<svg id="Layer_1" data-name="Layer 1" xmlns="http://www.w3.org/2000/svg" xmlns:xlink="http://www.w3.org/1999/xlink" viewBox="0 0 437.63 388.49"><defs><style>.cls-1{fill:#ceae89;opacity:0.4;}.cls-1,.cls-14,.cls-15,.cls-16{isolation:isolate;}.cls-2{fill:#efd5ae;}.cls-3{fill:#dbbe97;}.cls-4{fill:#8f8de2;}.cls-5{fill:#c4a382;}.cls-6{fill:#ceb291;}.cls-7{fill:#f7debc;}.cls-8{fill:#7a7ace;}.cls-9{fill:#382452;}.cls-10{fill:#6c6cbc;}.cls-11,.cls-15,.cls-16{fill:#341f4d;}.cls-12{fill:#fff;}.cls-13{fill:url(#linear-gradient);}.cls-15,.cls-16{font-size:24px;font-family:SnapITC-Regular, Snap ITC;}.cls-15{letter-spacing:0.21em;}.cls-16{letter-spacing:0.22em;}</style><linearGradient id="linear-gradient" x1="338.82" y1="220.6" x2="124.82" y2="288.6" gradientTransform="matrix(1, 0, 0, -1, -29.6, 348.57)" gradientUnits="userSpaceOnUse"><stop offset="0" stop-color="#fff"/><stop offset="1"/></linearGradient></defs><title>boxes</title><g id="OBJECTS"><polyline class="cls-1" points="319.76 344.13 396.03 313.78 321.26 282.2 319.76 344.13"/><polygon class="cls-2" points="221.31 258.23 221.31 386.2 95.45 363.83 95.45 241.37 221.31 258.23"/><polygon class="cls-3" points="221.31 258.23 221.31 386.2 321.01 342.87 321.01 222.4 221.31 258.23"/><polygon class="cls-4" points="140.95 371.92 140.95 289.38 166.72 293.93 166.72 376.5 140.95 371.92"/><polygon class="cls-5" points="95.45 241.37 221.31 204.95 221.31 258.23 95.45 241.37"/><polygon class="cls-6" points="321.01 222.4 221.31 204.95 221.31 258.23 321.01 222.4"/><polygon class="cls-7" points="95.45 241.37 60.59 275.2 191.31 298.27 221.31 258.23 95.45 241.37"/><polygon class="cls-2" points="221.31 258.23 263.08 294.68 358.06 256.34 321.01 222.4 221.31 258.23"/><polygon class="cls-3" points="221.31 204.95 197.97 167.55 71.31 204.46 95.45 241.37 221.31 204.95"/><polygon class="cls-7" points="221.31 204.95 255.22 170.62 358.06 187.79 321.01 222.4 221.31 204.95"/><polygon class="cls-8" points="273.32 290.55 273.32 363.6 296.87 353.36 296.87 281.04 273.32 290.55"/><path class="cls-9" d="M95.67,363.63c-.64,0-1.16-17.9-1.17-40s.51-40,1.14-40,1.16,17.9,1.17,40S96.3,363.63,95.67,363.63Z" transform="translate(0.01 0)"/><path class="cls-9" d="M191.3,298.27c-.51-.38,5.8-9.65,14.08-20.71s15.41-19.71,15.92-19.33-5.79,9.65-14.08,20.71S191.81,298.65,191.3,298.27Z" transform="translate(0.01 0)"/><path class="cls-9" d="M221.93,385.47c0,.16-1.79-.21-5-.67s-7.79-.88-13.55-1.4-12.59-1.44-20.13-2.66-15.78-2.75-24.43-4.38c-17.29-3.26-32.91-6.35-44.21-8.69-5.64-1.17-10.2-2.16-13.35-2.89s-4.86-1.22-4.83-1.37,1.81,0,5,.49,7.8,1.2,13.49,2.17c11.36,1.94,27,4.77,44.33,8,8.65,1.63,16.86,3.23,24.36,4.55s14.25,2.38,20,3.13,10.36,1.39,13.52,2.14S222,385.33,221.93,385.47Z" transform="translate(0.01 0)"/><path class="cls-9" d="M142.16,371.31c-.31,0-.85-4.55-1.37-11.93s-1-17.62-1.21-28.92-.1-21.53.14-28.93.61-12,.92-12,.53,4.59.71,12,.32,17.63.53,28.89.4,21.46.54,28.89S142.48,371.29,142.16,371.31Z" transform="translate(0.01 0)"/><ellipse class="cls-9" cx="166.72" cy="335.3" rx="1.15" ry="41.37"/><path class="cls-9" d="M191.3,298.27c-.11.63-29.46-4-65.56-10.4s-65.27-12-65.16-12.67,29.46,4,65.56,10.4S191.4,297.65,191.3,298.27Z" transform="translate(0.01 0)"/><path class="cls-9" d="M221.93,385.47c-.25-.58,21.72-10.59,49.08-22.36s49.74-20.82,50-20.24-21.73,10.59-49.08,22.36S222.18,386.05,221.93,385.47Z" transform="translate(0.01 0)"/><ellipse class="cls-9" cx="321.01" cy="307.08" rx="1.15" ry="35.79"/><path class="cls-9" d="M221.3,258.23c-.21-.6,21.93-9.1,49.46-19s50-17.43,50.24-16.83-21.93,9.1-49.46,19S221.52,258.83,221.3,258.23Z" transform="translate(0.01 0)"/><path class="cls-9" d="M321,222.4c.43-.47,9.07,6.75,19.3,16.12s18.18,17.35,17.75,17.82-9.07-6.75-19.3-16.12S320.57,222.87,321,222.4Z" transform="translate(0.01 0)"/><path class="cls-9" d="M358.05,256.34c.24.59-20.83,9.65-47.06,20.24s-47.68,18.69-47.92,18.1,20.83-9.65,47.06-20.23S357.81,255.75,358.05,256.34Z" transform="translate(0.01 0)"/><path class="cls-9" d="M263.07,294.68c-.42.48-10.11-7.29-21.64-17.36s-20.55-18.61-20.13-19.09,10.1,7.34,21.64,17.34S263.49,294.2,263.07,294.68Z" transform="translate(0.01 0)"/><path class="cls-9" d="M60.58,275.2a14.53,14.53,0,0,1,2.31-2.7c1.58-1.67,3.93-4.09,6.94-7.13,6-6.08,14.62-14.64,24.89-24.74l.35-.35.5.07,38.88,5.08c24,3.22,45.76,6.26,61.48,8.58,7.85,1.16,14.21,2.13,18.59,2.86s6.8,1.2,6.78,1.36-2.47,0-6.9-.47-10.8-1.19-18.69-2.14c-15.77-1.9-37.54-4.69-61.57-7.91L95.3,242.39l.85-.28c-10.4,10-19.21,18.31-25.47,24.14-3.12,2.91-5.61,5.19-7.34,6.72A14.82,14.82,0,0,1,60.58,275.2Z" transform="translate(0.01 0)"/><path class="cls-9" d="M221.3,258.23c.64,0,1.29,28.48,1.47,63.61s-.2,63.63-.84,63.63-1.29-28.48-1.46-63.61S220.67,258.23,221.3,258.23Z" transform="translate(0.01 0)"/><path class="cls-9" d="M273.74,363.41c-.63,0-1.24-16.31-1.36-36.42s.29-36.44.93-36.44,1.25,16.3,1.37,36.42S274.4,363.4,273.74,363.41Z" transform="translate(0.01 0)"/><ellipse class="cls-9" cx="296.87" cy="316.69" rx="1.15" ry="35.64"/><path class="cls-9" d="M221.3,205c.18.61-27.86,9.26-62.61,19.31S95.61,242,95.4,241.37s27.85-9.26,62.61-19.32S221.12,204.34,221.3,205Z" transform="translate(0.01 0)"/><path class="cls-9" d="M95.4,241.37c-.54.35-6.37-7.64-13-17.83s-11.64-18.73-11.11-19.08,6.37,7.63,13,17.82S96,241,95.4,241.37Z" transform="translate(0.01 0)"/><path class="cls-9" d="M71.3,204.46c-.18-.61,28-9.37,63-19.56s63.48-18,63.65-17.35-28,9.36-63,19.56S71.48,205.07,71.3,204.46Z" transform="translate(0.01 0)"/><path class="cls-9" d="M198,167.57c.54-.34,6.2,7.76,12.65,18.09s11.23,19,10.69,19.31-6.2-7.76-12.64-18.09S197.4,167.88,198,167.57Z" transform="translate(0.01 0)"/><path class="cls-9" d="M221.3,258.23c-.63,0-1.15-11.93-1.15-26.64S220.67,205,221.3,205s1.15,11.93,1.15,26.64S221.94,258.23,221.3,258.23Z" transform="translate(0.01 0)"/><path class="cls-9" d="M221.3,205c.11-.63,22.52,2.77,50,7.59s49.76,9.23,49.65,9.86-22.52-2.77-50.05-7.59S221.19,205.57,221.3,205Z" transform="translate(0.01 0)"/><path class="cls-9" d="M321,222.4c-.44-.46,7.51-8.59,17.74-18.15s18.88-16.93,19.31-16.46-7.51,8.59-17.74,18.14S321.4,222.86,321,222.4Z" transform="translate(0.01 0)"/><path class="cls-9" d="M358.05,187.79c-.1.62-23.21-2.71-51.61-7.45s-51.34-9.09-51.23-9.72,23.21,2.71,51.61,7.45S358.15,187.16,358.05,187.79Z" transform="translate(0.01 0)"/><path class="cls-9" d="M255.21,170.62c.45.45-6.77,8.5-16.14,18S221.75,205.42,221.3,205s6.77-8.49,16.14-18S254.76,170.18,255.21,170.62Z" transform="translate(0.01 0)"/><ellipse class="cls-9" cx="213.9" cy="222.08" rx="1.15" ry="14.38"/><path class="cls-9" d="M209.22,246.27c-.64,0-1.69-8.11-2.34-18.2s-.68-18.31,0-18.35,1.68,8.1,2.34,18.2S209.85,246.23,209.22,246.27Z" transform="translate(0.01 0)"/><path class="cls-9" d="M226,212.57c-.61.15-1.49-1.39-1.63-3.46s.52-3.72,1.14-3.66,1,1.63,1.16,3.5S226.61,212.45,226,212.57Z" transform="translate(0.01 0)"/><path class="cls-9" d="M229,241.57c-.65,0-.91-7.85-1-17.49s.15-17.48.79-17.5,1.47,7.8,1.52,17.48S229.59,241.57,229,241.57Z" transform="translate(0.01 0)"/><path class="cls-9" d="M199,229.32c-.64,0-.81-4-.72-8.93s.44-8.87,1.08-8.9,1.33,4,1.22,9S199.64,229.38,199,229.32Z" transform="translate(0.01 0)"/><path class="cls-9" d="M192.56,246.26c-.63,0-1-7.25-.93-16.18s.74-16.15,1.37-16.14,1.05,7.25.93,16.18S193.2,246.27,192.56,246.26Z" transform="translate(0.01 0)"/><path class="cls-9" d="M184.88,246.26c-.63,0-1-6.87-.9-15.29s.76-15.24,1.39-15.25,1,6.84.91,15.29S185.52,246.28,184.88,246.26Z" transform="translate(0.01 0)"/><path class="cls-9" d="M179,227.31c-.64,0-1.21-2.11-1.28-4.76s.4-4.8,1-4.82,1.21,2.12,1.27,4.76S179.59,227.3,179,227.31Z" transform="translate(0.01 0)"/><path class="cls-9" d="M243.13,245.57c-.63,0-.9-8.12-.6-18.09s1.05-18,1.69-18,.91,8.12.61,18.09S243.77,245.57,243.13,245.57Z" transform="translate(0.01 0)"/><path class="cls-9" d="M250.13,229.57c-.64,0-.82-4.38-.83-9.7s.2-9.64.84-9.69,1.47,4.29,1.46,9.7S250.76,229.57,250.13,229.57Z" transform="translate(0.01 0)"/><path class="cls-9" d="M257.4,239.57c-.64,0-.69-6.28-.53-13.94s.48-13.9,1.13-13.92,1.34,6.23,1.17,14S258,239.62,257.4,239.57Z" transform="translate(0.01 0)"/><path class="cls-9" d="M198.89,237.57c.64,0,1.1,4,1,9s-.63,9-1.27,9-1.09-4-1-9S198.26,237.51,198.89,237.57Z" transform="translate(0.01 0)"/><path class="cls-9" d="M229.19,249.32c.63,0,1.22,1.37,1.32,3.13s-.34,3.23-1,3.27-1.23-1.37-1.33-3.14S228.55,249.35,229.19,249.32Z" transform="translate(0.01 0)"/><path class="cls-9" d="M251.26,236.75c.63,0,1.23,2.09,1.32,4.7s-.34,4.76-1,4.79-1.22-2.09-1.32-4.7S250.62,236.78,251.26,236.75Z" transform="translate(0.01 0)"/><path class="cls-9" d="M117.63,195.7c.22.59-7,3.8-16.14,6.84s-16.85,4.75-17,4.15,7.16-3.31,16.3-6.34S117.4,195.1,117.63,195.7Z" transform="translate(0.01 0)"/><ellipse class="cls-9" cx="83.42" cy="215.21" rx="1.15" ry="5.19" transform="translate(-101.02 76.45) rotate(-31.86)"/><path class="cls-9" d="M90.4,222.63c-.58.26-1.69-1-2.47-2.72s-1-3.41-.38-3.67,1.69,1,2.48,2.73S90.94,222.37,90.4,222.63Z" transform="translate(0.01 0)"/><path class="cls-9" d="M206.11,191.28c-.57.28-3-3-5.35-7.4-1.2-2.18-2.14-4.26-2.79-5.75s-1.13-2.26-.94-2.51,1.27.27,2.33,1.66a43.58,43.58,0,0,1,3.41,5.48C205.19,187.18,206.68,191,206.11,191.28Z" transform="translate(0.01 0)"/><path class="cls-9" d="M196.4,180.36c-.54.34-1.66-.49-2.5-1.84s-1.08-2.72-.54-3,1.66.49,2.5,1.84S197,180,196.4,180.36Z" transform="translate(0.01 0)"/><path class="cls-9" d="M173.4,251.37c-.6.12-2.47-6.77-3-15.51s.44-15.81,1.06-15.76.69,7,1.23,15.62S174,251.24,173.4,251.37Z" transform="translate(0.01 0)"/><path class="cls-9" d="M165.67,236c-.64,0-1.15-3.1-1.15-6.93s.51-6.92,1.15-6.92,1.15,3.1,1.15,6.92S166.3,236,165.67,236Z" transform="translate(0.01 0)"/><path class="cls-9" d="M159.26,231.88c.64,0,1,4,1.26,8.93s.21,8.93-.43,9-1.64-3.89-1.86-8.9S158.63,231.86,159.26,231.88Z" transform="translate(0.01 0)"/><path class="cls-9" d="M148.33,233.16c.63,0,1.33,3.32,1.55,7.5s-.1,7.59-.74,7.62-1.33-3.32-1.55-7.5S147.69,233.19,148.33,233.16Z" transform="translate(0.01 0)"/><path class="cls-9" d="M143.91,240.85c-.64,0-1.29-2.69-1.45-6.09s.22-6.17.85-6.21,1.28,2.7,1.45,6.1S144.54,240.82,143.91,240.85Z" transform="translate(0.01 0)"/><path class="cls-9" d="M130.27,242.39c-.63,0-1.17-2.37-1.19-5.25s.48-5.23,1.11-5.26,1.17,2.31,1.19,5.25S130.91,242.42,130.27,242.39Z" transform="translate(0.01 0)"/><path class="cls-9" d="M134.56,240.87c.63-.1,1.34,1.07,1.6,2.62s0,2.89-.68,3-1.34-1.07-1.59-2.62S133.94,241,134.56,240.87Z" transform="translate(0.01 0)"/><path class="cls-9" d="M120.28,234.7c.63,0,1.22,2.26,1.32,5.09s-.34,5.14-1,5.16-1.23-2.25-1.33-5.08S119.64,234.73,120.28,234.7Z" transform="translate(0.01 0)"/><path class="cls-9" d="M267.07,242.14c-.63,0-1.29-6.25-1.14-14s1-14,1.66-13.94.78,6.29.64,14S267.71,242.12,267.07,242.14Z" transform="translate(0.01 0)"/><path class="cls-9" d="M275.09,239.06c-.64,0-1.17-5.46-1.19-12.17s.47-12.17,1.1-12.18,1.17,5.43,1.2,12.17S275.73,239.07,275.09,239.06Z" transform="translate(0.01 0)"/><path class="cls-9" d="M281.5,229.83c-.64,0-1-2.94-1.09-6.52s.23-6.5.87-6.55,1.37,2.86,1.43,6.51S282.13,229.86,281.5,229.83Z" transform="translate(0.01 0)"/><path class="cls-9" d="M285.59,221.63c.64.05.94,3,.89,6.55s-.44,6.49-1.08,6.52-1.28-2.9-1.22-6.55S285,221.57,285.59,221.63Z" transform="translate(0.01 0)"/><ellipse class="cls-9" cx="291.27" cy="221.37" rx="1.15" ry="3.59"/><path class="cls-9" d="M297.62,228c-.64-.07-.93-2.24-1-4.85s.06-4.8.69-4.91,1.51,2,1.61,4.83S298.25,228.1,297.62,228Z" transform="translate(0.01 0)"/><path class="cls-9" d="M302.26,223.42c.63.11.95,1.32.9,2.73s-.48,2.6-1.12,2.66-1.25-1.18-1.18-2.75S301.64,223.32,302.26,223.42Z" transform="translate(0.01 0)"/><path class="cls-9" d="M257.13,177c.44.48-3.65,4.8-8.68,10.09s-9.16,9.58-9.67,9.17,2.89-5.39,8-10.75S256.72,176.51,257.13,177Z" transform="translate(0.01 0)"/><path class="cls-9" d="M262.69,177.76c.45.46-1.8,3.41-5,6.61s-6.2,5.43-6.64,5,1.8-3.41,5-6.61S262.24,177.31,262.69,177.76Z" transform="translate(0.01 0)"/><path class="cls-9" d="M344.75,191.8c-.14.61-5.16,0-11.19-1.47s-10.81-3.09-10.67-3.7,5.16,0,11.2,1.46S344.9,191.18,344.75,191.8Z" transform="translate(0.01 0)"/><path class="cls-9" d="M342.12,249.11c-.43.47-5.06-3.13-10.35-8s-9.18-9.34-8.74-9.77,5,3.2,10.31,8.09S342.56,248.64,342.12,249.11Z" transform="translate(0.01 0)"/><path class="cls-9" d="M344.19,256.37c.23.6-4.9,3.06-11.46,5.51s-12.06,3.95-12.27,3.35,4.92-3.07,11.46-5.51S344,255.78,344.19,256.37Z" transform="translate(0.01 0)"/><path class="cls-9" d="M341.05,253.08c.36.52-1.63,2.49-4.66,4s-5.8,1.93-6,1.34,2.09-1.95,5-3.4S340.69,252.57,341.05,253.08Z" transform="translate(0.01 0)"/><path class="cls-9" d="M279.5,283.48c.24.6-2.26,2.12-5.58,3.42s-6.19,1.86-6.42,1.26,2.27-2.12,5.59-3.41S279.27,282.89,279.5,283.48Z" transform="translate(0.01 0)"/><path class="cls-9" d="M206.74,266c.51.39-2.86,5.69-7.26,12s-8.19,11.36-8.73,11,2.4-5.94,6.84-12.33S206.24,265.64,206.74,266Z" transform="translate(0.01 0)"/><path class="cls-9" d="M202.4,262.48c.55.28-.49,3.42-2.76,6.72s-4.81,5.42-5.28,5,1.21-3.11,3.38-6.3S201.86,262.18,202.4,262.48Z" transform="translate(0.01 0)"/><path class="cls-9" d="M97.64,277c-.24.61-5.63-1-12.35-2.39S73,272.29,73.06,271.63s5.8-.81,12.72.7S97.87,276.4,97.64,277Z" transform="translate(0.01 0)"/><path class="cls-9" d="M85.33,268.09c-.22.6-2.19.41-4.48-.14s-4.12-1.29-4-1.93,2.16-.9,4.59-.31S85.56,267.5,85.33,268.09Z" transform="translate(0.01 0)"/><path class="cls-9" d="M109.67,287.91c-.25.6-2.53.22-5.25-.19s-5-.75-5.07-1.4,2.39-1.35,5.42-.87S109.92,287.34,109.67,287.91Z" transform="translate(0.01 0)"/><path class="cls-9" d="M133,297.07c-.19.62-7.92-1.26-17.47-3.37S98.21,290,98.3,289.34s8.1,0,17.75,2.11S133.21,296.48,133,297.07Z" transform="translate(0.01 0)"/><path class="cls-9" d="M122.68,290.66c-.28.58-1.26.7-2.28.58s-1.93-.48-2.06-1.11.93-1.35,2.35-1.17S123,290.1,122.68,290.66Z" transform="translate(0.01 0)"/><path class="cls-9" d="M152.54,296.06c-.35.55-2.08.07-4.06-.62s-3.63-1.43-3.55-2.07,2.06-.9,4.31-.1S152.87,295.57,152.54,296.06Z" transform="translate(0.01 0)"/><ellipse class="cls-9" cx="146.29" cy="298.79" rx="1.36" ry="1.15"/><path class="cls-9" d="M161.81,337.86c.63-.05,1.57,5.89,1.69,13.27s-.62,13.34-1.25,13.32-.92-6-1-13.28S161.17,337.9,161.81,337.86Z" transform="translate(0.01 0)"/><path class="cls-9" d="M100.27,351.4c.63.09.9,1.87.6,4s-1,3.73-1.67,3.64-.9-1.86-.6-4S99.64,351.31,100.27,351.4Z" transform="translate(0.01 0)"/><path class="cls-9" d="M106.4,360.57c-.18.61-1.17.86-2.22.55s-1.75-1.05-1.57-1.66,1.17-.85,2.22-.55S106.6,360,106.4,360.57Z" transform="translate(0.01 0)"/><path class="cls-9" d="M214.54,303.67c.31,0,.8,4,1.17,10.56s.6,15.59.39,25.59-.82,19-1.48,25.55-1.32,10.52-1.63,10.49-.23-4.07,0-10.6.58-15.54.8-25.49.25-19,.29-25.5S214.21,303.69,214.54,303.67Z" transform="translate(0.01 0)"/><path class="cls-9" d="M213.29,291.2c.64,0,1.15,1.21,1.15,2.71s-.51,2.71-1.15,2.71-1.15-1.21-1.15-2.71S212.66,291.2,213.29,291.2Z" transform="translate(0.01 0)"/><path class="cls-9" d="M187.8,303.08c-.11.62-1.53.9-3.18.61s-2.9-1-2.8-1.65,1.54-.9,3.19-.61S187.91,302.45,187.8,303.08Z" transform="translate(0.01 0)"/><path class="cls-9" d="M240.06,280.3c-.39.5-3.64-1.36-7.1-4.36s-5.75-6-5.31-6.41,3.42,1.72,6.82,4.67S240.45,279.8,240.06,280.3Z" transform="translate(0.01 0)"/><path class="cls-9" d="M239.14,286.57c-.4.48-3.1-1.09-6-3.52s-5-4.8-4.54-5.29,3.1,1.09,6,3.52S239.55,286.12,239.14,286.57Z" transform="translate(0.01 0)"/><path class="cls-9" d="M268,320c-.63-.06-.8-4.12-.61-9.09s.66-9,1.3-9,1.19,4.07,1,9.1S268.6,320.07,268,320Z" transform="translate(0.01 0)"/><path class="cls-9" d="M291.88,344.78c.56-.27,1.59.75,1.77,2.38s-.61,2.85-1.22,2.71-.93-1.23-1.07-2.46S291.29,345,291.88,344.78Z" transform="translate(0.01 0)"/><path class="cls-9" d="M280.4,356.57c-.39-.48,1.19-2.38,3.9-3.55s5.18-1,5.26-.42-1.94,1.48-4.34,2.53S280.82,357.1,280.4,356.57Z" transform="translate(0.01 0)"/><path class="cls-9" d="M292.78,335.9c.64,0,1.23,1,1.34,2.29s-.33,2.42-1,2.47-1.23-1-1.33-2.29S292.15,336,292.78,335.9Z" transform="translate(0.01 0)"/><path class="cls-9" d="M277.85,294c-.21-.61,3.1-2.28,7.27-4s7.67-2.93,8-2.36-2.82,2.71-7.07,4.48S278.05,294.57,277.85,294Z" transform="translate(0.01 0)"/><path class="cls-9" d="M288.66,293.67c-.33-.53.23-1.48,1.37-1.81s2.11.17,2.11.8-.67,1.17-1.48,1.41A1.75,1.75,0,0,1,288.66,293.67Z" transform="translate(0.01 0)"/><path class="cls-9" d="M317.55,280c.15.62-3.22,2-7.48,3.25s-7.82,2-8,1.37,3.06-2.29,7.38-3.57S317.4,279.33,317.55,280Z" transform="translate(0.01 0)"/><path class="cls-9" d="M313.4,286c.17.61-1,1.48-2.71,1.93s-3.14.32-3.31-.29,1.05-1.48,2.71-1.93S313.26,285.39,313.4,286Z" transform="translate(0.01 0)"/><path class="cls-9" d="M314.4,331.77c-.64,0-.9-5.08-.82-11.29s.48-11.25,1.12-11.26,1.26,5,1.18,11.29S315,331.8,314.4,331.77Z" transform="translate(0.01 0)"/><path class="cls-1" d="M292.05,380.43s10.76-4.87,14.3-1.61,14.27,12.8,26.42,8.64,21.14-17.73,28.74-17.33,19.49-4.56,29.3-10.48c8.71-5.26,11.74-6.09,10.06-9.1-1.2-2.13-8.92-.05-17.06,6.18s-9.32-9-12.78-18.75S353,333.57,353,333.57L290.15,351.2Z" transform="translate(0.01 0)"/><path class="cls-8" d="M336.88,344.37s12.14-1.1,23.17,9.23,29.25-2.66,24.86-10.65c-2.53-3.7-4.58-4.4-8.33-5.12,0,0,12.64.27,10.84,12.56s-12.08,16-22,15.16-13-11.15-26.13-11.25A59,59,0,0,0,336.88,344.37Z" transform="translate(0.01 0)"/><path class="cls-10" d="M276.5,317.91s-4.29,11.88,28,22.38C304.55,340.29,290.58,309.66,276.5,317.91Z" transform="translate(0.01 0)"/><path class="cls-4" d="M318.94,332.71s3.52-25.35-3.08-33.61-25.61-3-32.6,5.66-6.76,13.15-6.76,13.15,7.73-4.78,19.16,8.68c6.86,8.81,8.1,13.69,8.1,13.69S314.27,340.87,318.94,332.71Z" transform="translate(0.01 0)"/><path class="cls-10" d="M286.16,379.25s10.75,6.62,27-23.26C313.15,356,282.48,363.57,286.16,379.25Z" transform="translate(0.01 0)"/><path class="cls-4" d="M308.47,340.23s-24.28-8.1-33.6-3.12-7.64,24.63-.41,33.08,11.7,9.06,11.7,9.06-3.29-8.47,12-17.25c9.92-5.13,14.94-5.46,14.94-5.46S315.64,346.32,308.47,340.23Z" transform="translate(0.01 0)"/><path class="cls-10" d="M318,386.57s-12.26-1.67-4.82-34.85C313.18,351.73,331.2,377.43,318,386.57Z" transform="translate(0.01 0)"/><path class="cls-4" d="M326.88,342.57s23.61,9.88,27.35,19.76-10.45,23.57-21.46,25.18-14.77-.94-14.77-.94,8-4.22,2.29-20.91c-4.1-10.39-7.66-13.94-7.66-13.94S317.47,342.38,326.88,342.57Z" transform="translate(0.01 0)"/><path class="cls-10" d="M359.13,342.77s-2.46,12.42-35.12,2.93C324,345.7,350.63,328.68,359.13,342.77Z" transform="translate(0.01 0)"/><path class="cls-4" d="M315.71,331.17s11.33-23,21.42-26.07,22.88,11.89,23.8,23-1.8,14.68-1.8,14.68-3.73-8.31-20.73-3.59C327.78,342.63,324,346,324,346S315,340.57,315.71,331.17Z" transform="translate(0.01 0)"/><path class="cls-8" d="M306.4,338.29a19.49,19.49,0,0,1,10-7,2.71,2.71,0,0,1,2.86.83,43.91,43.91,0,0,1,5.78,10,2.67,2.67,0,0,1-1.28,3.53,40.42,40.42,0,0,0-8.89,5.73,2.68,2.68,0,0,1-3.76-.17c-1.57-1.74-3.7-5-5.11-10.74A2.72,2.72,0,0,1,306.4,338.29Z" transform="translate(0.01 0)"/><path class="cls-9" d="M304.56,339.82c-.29.16-1.58-1.59-3.62-4.41A89.48,89.48,0,0,0,292.4,325a48.29,48.29,0,0,0-5.47-4.84,14.59,14.59,0,0,0-5.12-2.52c-3.21-.78-5.24.23-5.38-.09-.07-.13.33-.57,1.29-1a8.58,8.58,0,0,1,4.37-.52,14.18,14.18,0,0,1,6,2.37,37.69,37.69,0,0,1,5.91,5,52.38,52.38,0,0,1,8.31,11.15C304,337.63,304.82,339.67,304.56,339.82Z" transform="translate(0.01 0)"/><path class="cls-9" d="M305.54,339.83c-.05.28-2.27.26-5.72-.64a45.25,45.25,0,0,1-12.67-5.62,40.36,40.36,0,0,1-6.08-4.74,17.11,17.11,0,0,1-3.78-5.19,8.3,8.3,0,0,1-.79-4.33c.14-1,.46-1.54.59-1.51s.17.59.31,1.5a10,10,0,0,0,1.33,3.6,18.89,18.89,0,0,0,3.79,4.38,50.9,50.9,0,0,0,5.87,4.35,67.64,67.64,0,0,0,11.93,6C303.52,338.9,305.6,339.49,305.54,339.83Z" transform="translate(0.01 0)"/><path class="cls-9" d="M318.61,331c-.33-.12.05-1.75.28-4.37a57.15,57.15,0,0,0-.11-10.3c-.4-4-.76-7.67-1-10.43s-.62-4.24-.32-4.37,1.23,1.39,1.92,4.08c.35,1.34.65,2.94.95,4.7s.59,3.73.77,5.82a33.6,33.6,0,0,1-.57,10.77C319.82,329.65,318.88,331.14,318.61,331Z" transform="translate(0.01 0)"/><path class="cls-9" d="M317.4,301.57c-.16.08-.54-.59-1.38-1.57a8.05,8.05,0,0,0-4.41-2.67,32.19,32.19,0,0,0-8.14-.4,31.59,31.59,0,0,0-9.66,2.32,25.74,25.74,0,0,0-4.52,2.4,29.87,29.87,0,0,0-3.73,3,36.4,36.4,0,0,0-5.29,6.26,23.65,23.65,0,0,0-2.5,4.91l-.27.83-.17.62c-.1.34-.19.52-.27.52s-.14-.19-.19-.55a5.34,5.34,0,0,1-.05-.69c0-.28.05-.59.08-.93a16.9,16.9,0,0,1,2-5.54,32.14,32.14,0,0,1,5.21-6.95,28,28,0,0,1,3.93-3.36A25.36,25.36,0,0,1,293,297.1a30.31,30.31,0,0,1,10.45-2.3,29.16,29.16,0,0,1,8.67.95,8.1,8.1,0,0,1,4.74,3.73C317.47,300.73,317.56,301.51,317.4,301.57Z" transform="translate(0.01 0)"/><path class="cls-9" d="M313.19,352.66c-.09.28-1.11.31-2.47-.5a11.49,11.49,0,0,1-3.79-4.42,11.68,11.68,0,0,1-1.22-3,14.39,14.39,0,0,1-.41-2.52c-.11-1.41-.07-2.3.24-2.39s.82.69,1.34,2a30.51,30.51,0,0,0,2.06,4.77,21.54,21.54,0,0,0,2.8,4.27C312.59,351.84,313.31,352.35,313.19,352.66Z" transform="translate(0.01 0)"/><path class="cls-9" d="M317.9,330.69c.08.32-.84.82-2.32,1.44a37.93,37.93,0,0,0-5.45,2.53,10,10,0,0,0-3.26,4.42c-.64,1.41-1,2.37-1.34,2.32s-.5-1.09-.22-2.79a10.28,10.28,0,0,1,1-2.9,7.48,7.48,0,0,1,2.63-3,16.57,16.57,0,0,1,6.25-2.16C316.79,330.33,317.82,330.39,317.9,330.69Z" transform="translate(0.01 0)"/><path class="cls-9" d="M324.4,343.18c-.64.15-1.79-2.79-3.59-6.14s-3.56-6-3.08-6.42,3.16,1.66,5.11,5.34S325,343.07,324.4,343.18Z" transform="translate(0.01 0)"/><path class="cls-9" d="M324.48,341.57c.16,0,.26.27.42.64a7.08,7.08,0,0,1,.25.78,2.27,2.27,0,0,1-.13,1.43,2.36,2.36,0,0,1-.53.72l-.5.48c-.33.31-.69.65-1.08,1-.76.66-1.63,1.36-2.55,2.07a40.22,40.22,0,0,1-5,3.38c-1.47.77-2.6.76-2.66.45s.68-.8,1.74-1.79a52,52,0,0,1,4.52-3.86c.92-.71,1.83-1.36,2.66-1.93.42-.29.83-.55,1.21-.79s.71-.43.78-.5c.25-.15.28-.91.39-1.35S324.33,341.5,324.48,341.57Z" transform="translate(0.01 0)"/><path class="cls-9" d="M284.87,378.47c0,.13-1.18,0-3-.85a19.4,19.4,0,0,1-6.5-5.58,34.58,34.58,0,0,1-7.29-18.69,23.34,23.34,0,0,1,.82-8.19,17.33,17.33,0,0,1,4.2-7.22,14.26,14.26,0,0,1,6.82-3.84c4.91-1.14,9.34-.14,12.75.84s6.08,2.08,7.95,2.73,2.89,1,2.85,1.18-1.14.09-3.1-.32-4.72-1.21-8.11-2a35,35,0,0,0-5.56-.88,19.06,19.06,0,0,0-6.25.53,12.24,12.24,0,0,0-5.74,3.36,15.56,15.56,0,0,0-3.61,6.29c-1.43,4.9-.76,10,.42,14.38a36.36,36.36,0,0,0,5.15,10.88,22,22,0,0,0,5.65,5.78C283.89,377.92,284.93,378.3,284.87,378.47Z" transform="translate(0.01 0)"/><path class="cls-9" d="M312.15,356.68c.07.34-1.95.9-5.08,2a40.9,40.9,0,0,0-11.35,5.71,32.2,32.2,0,0,0-5.12,4.71,18.41,18.41,0,0,0-3,4.65c-1.29,2.92-1,5-1.31,5.07-.14,0-.42-.45-.59-1.44a9.55,9.55,0,0,1,.37-4.18,16.54,16.54,0,0,1,2.95-5.46,28.64,28.64,0,0,1,5.38-5.17,31.58,31.58,0,0,1,12.28-5.43C310,356.39,312.1,356.39,312.15,356.68Z" transform="translate(0.01 0)"/><path class="cls-9" d="M313.4,354.57c.27.05.19,2.4-1.25,5.84a38.31,38.31,0,0,1-8.26,11.74,72.85,72.85,0,0,1-5.81,5.3,13.52,13.52,0,0,1-6,3,7.21,7.21,0,0,1-4.55-.57c-1-.51-1.3-1.06-1.22-1.16s.61.13,1.54.33a7.81,7.81,0,0,0,3.87-.18,13.67,13.67,0,0,0,5-3.07c1.72-1.55,3.63-3.37,5.53-5.29a50.92,50.92,0,0,0,8.43-10.84C312.4,356.57,313,354.44,313.4,354.57Z" transform="translate(0.01 0)"/><path class="cls-9" d="M319.09,386.57c0,.15-.6.19-1.58-.06a9.8,9.8,0,0,1-3.77-2.06,11.44,11.44,0,0,1-3.45-5.46,25.51,25.51,0,0,1-.88-7.63,52.47,52.47,0,0,1,2.09-13.46c.95-3.34,1.78-5.32,2.08-5.24s0,2.21-.5,5.59a93.38,93.38,0,0,0-1.37,13.13,28.88,28.88,0,0,0,.62,7,11,11,0,0,0,2.54,4.87,12.43,12.43,0,0,0,3,2.4C318.65,386.16,319.14,386.41,319.09,386.57Z" transform="translate(0.01 0)"/><path class="cls-9" d="M319.21,386.29c-.3-.18.64-1.92.85-5a45.69,45.69,0,0,0-1.2-12c-1.92-9.38-6.36-16-5.8-16.34.23-.17,1.7,1.24,3.41,4a37.86,37.86,0,0,1,4.64,11.83c1,4.88,1.25,9.44.56,12.75a11.17,11.17,0,0,1-1.41,3.7C319.75,386,319.34,386.37,319.21,386.29Z" transform="translate(0.01 0)"/><path class="cls-9" d="M316.47,385.76c0-.07.3-.07.78,0l2.06.39a35.13,35.13,0,0,0,7.59.58,33.31,33.31,0,0,0,10.94-2.25c.49-.18,1-.39,1.47-.61s1-.45,1.47-.71a16.47,16.47,0,0,0,2.81-1.71,30.75,30.75,0,0,0,5.1-4.84,26,26,0,0,0,3.83-5.83,12.72,12.72,0,0,0,1.22-6.07,9.78,9.78,0,0,0-2-5.13,21.87,21.87,0,0,0-3.62-3.64c-2.51-2-4.8-3.43-6.23-4.62s-2.13-2-2-2.08a10.31,10.31,0,0,1,2.55,1.34c1.55.91,3.93,2.13,6.7,4.06a21.44,21.44,0,0,1,4.14,3.76,11.54,11.54,0,0,1,2.64,6.11,14.44,14.44,0,0,1-1.27,7.18,26.91,26.91,0,0,1-4.13,6.41,31.21,31.21,0,0,1-5.54,5.17,18.49,18.49,0,0,1-3.15,1.86q-.79.4-1.59.72c-.53.23-1.06.43-1.59.62A32,32,0,0,1,327,388.35a26.3,26.3,0,0,1-7.82-1.34,12,12,0,0,1-2-.82C316.65,386,316.42,385.84,316.47,385.76Z" transform="translate(0.01 0)"/><path class="cls-9" d="M358.57,344.39c-.16,0,0-1.09.29-2.95a65.36,65.36,0,0,0,.84-7.89,28.47,28.47,0,0,0-1.56-11.32c-.21-.48-.43-1-.66-1.45s-.51-.93-.82-1.42a32.22,32.22,0,0,0-2-2.93,36.37,36.37,0,0,0-4.76-5.53,14.93,14.93,0,0,0-2.86-2.08,16.24,16.24,0,0,0-3.23-1.25c-2.21-.61-4.56-1-6.31-.46a13.84,13.84,0,0,0-4.9,3.22c-1.45,1.34-2.79,2.62-4,3.8-4.81,4.73-7.62,7.85-7.88,7.64s2.14-3.69,6.71-8.77c1.15-1.26,2.43-2.62,3.85-4.05a15.25,15.25,0,0,1,5.56-3.85,9.42,9.42,0,0,1,3.84-.37,21.43,21.43,0,0,1,3.73.66,17.64,17.64,0,0,1,3.7,1.41,16.85,16.85,0,0,1,3.34,2.4,36.17,36.17,0,0,1,5.05,5.93c.72,1,1.38,2.05,2,3.07.31.51.6,1.08.89,1.62a15.92,15.92,0,0,1,.71,1.66,27.79,27.79,0,0,1,1.2,12.18,41.2,41.2,0,0,1-1.58,8C359.17,343.47,358.71,344.43,358.57,344.39Z" transform="translate(0.01 0)"/><path class="cls-9" d="M358.57,344.39c-.08,0-.14-.16-.19-.42a3.49,3.49,0,0,0-.06-.46c-.06-.18-.1-.37-.15-.59a3.65,3.65,0,0,0-.69-1.36,4.57,4.57,0,0,0-1.65-1.17,15.27,15.27,0,0,0-5.68-.94,45.26,45.26,0,0,0-7.35.59,75.16,75.16,0,0,0-13.13,3.23c-3.28,1.13-5.1,2.25-5.31,2s1.41-1.91,4.68-3.49a48.18,48.18,0,0,1,13.42-4,36.19,36.19,0,0,1,7.78-.42,14.34,14.34,0,0,1,6.35,1.62,5.38,5.38,0,0,1,2,1.87,3.91,3.91,0,0,1,.52,2,4.37,4.37,0,0,1-.06.72,4,4,0,0,1-.16.49C358.74,344.29,358.65,344.41,358.57,344.39Z" transform="translate(0.01 0)"/><path class="cls-9" d="M358.69,342.87c.14,0,.24.63-.23,1.58a7.79,7.79,0,0,1-3.08,3,33.23,33.23,0,0,1-5.5,2.67,20.17,20.17,0,0,1-7.55,1.12,28.29,28.29,0,0,1-7.41-1.33c-2.14-.63-4.08-1.25-5.69-1.87-3.22-1.24-5-2.47-4.87-2.74s2.12.38,5.37,1.19l5.75,1.38a32.46,32.46,0,0,0,6.93,1.07,20.65,20.65,0,0,0,6.81-.84,45.15,45.15,0,0,0,5.39-2.09,9.22,9.22,0,0,0,3.11-2C358.31,343.32,358.52,342.83,358.69,342.87Z" transform="translate(0.01 0)"/><path class="cls-9" d="M378.45,338.18c0-.13.88-.38,2.45,0a9.65,9.65,0,0,1,5.47,3.93A13,13,0,0,1,388.1,352a18.77,18.77,0,0,1-6.19,10.49,19.7,19.7,0,0,1-16.58,4.3,14.79,14.79,0,0,1-4.42-1.58,17.52,17.52,0,0,1-3-2.36,9.24,9.24,0,0,0-2.11-1.51c-1.27-.62-2.12-.44-2.15-.61s.16-.22.58-.33a3.86,3.86,0,0,1,1.88.1,8,8,0,0,1,2.6,1.34,19.1,19.1,0,0,0,2.94,1.93,17.33,17.33,0,0,0,8.8,1.23,18,18,0,0,0,9.93-4.26,17.55,17.55,0,0,0,5.63-9.17,11.77,11.77,0,0,0-1-8.53,9.67,9.67,0,0,0-4.39-4C379.29,338.43,378.4,338.37,378.45,338.18Z" transform="translate(0.01 0)"/><path class="cls-9" d="M384.65,342.57c.12-.07.62.41,1,1.57a7.56,7.56,0,0,1-.49,5,14.23,14.23,0,0,1-4.89,5.52,20.06,20.06,0,0,1-8.19,3.68,13,13,0,0,1-4.82,0,13.27,13.27,0,0,1-4.16-1.61,16.59,16.59,0,0,1-3.14-2.39c-.88-.82-1.62-1.61-2.32-2.28a13.91,13.91,0,0,0-3.56-2.72c-.94-.46-1.55-.59-1.54-.77s.66-.32,1.83-.08a11,11,0,0,1,4.34,2.34,35.08,35.08,0,0,0,5.42,4.05,11.52,11.52,0,0,0,7.55,1.25,19.9,19.9,0,0,0,7.37-3.16,13.9,13.9,0,0,0,4.64-4.51,7.77,7.77,0,0,0,1.06-4.13C384.69,343.24,384.49,342.65,384.65,342.57Z" transform="translate(0.01 0)"/><path class="cls-9" d="M277.4,340.48c.22.25-.32,1-.92,2.36a18.46,18.46,0,0,0-1.53,5.39c-.29,2.2-.26,4.29-.33,5.83s-.21,2.53-.53,2.57-.73-.87-1.09-2.42a18.42,18.42,0,0,1-.33-6.28,11.78,11.78,0,0,1,2.44-6C276.18,340.67,277.19,340.25,277.4,340.48Z" transform="translate(0.01 0)"/><path class="cls-9" d="M284.4,338c.18.26-.31.91-1.13,1.81a34.7,34.7,0,0,0-2.92,3.48,15.58,15.58,0,0,0-1.94,3.92c-.37,1.08-.53,1.85-.85,1.89s-.74-.74-.76-2.12a8.81,8.81,0,0,1,1.66-5,11.56,11.56,0,0,1,3.81-3.45C283.4,337.89,284.2,337.73,284.4,338Z" transform="translate(0.01 0)"/><path class="cls-9" d="M306.34,352.23c.3.57-3.68,3.18-8.8,5.83a28.66,28.66,0,0,0-3.32,2,16.82,16.82,0,0,0-2.3,2.08c-1.22,1.32-1.86,2.32-2.17,2.19s-.16-1.38.85-3.15a11.23,11.23,0,0,1,2.28-2.76,17.81,17.81,0,0,1,3.57-2.39C301.64,353.35,306,351.68,306.34,352.23Z" transform="translate(0.01 0)"/><path class="cls-9" d="M289.4,377.64c-.62.11-1.38-1.31-1.47-3.2s.55-3.39,1.17-3.33,1,1.49,1.13,3.22S290.07,377.57,289.4,377.64Z" transform="translate(0.01 0)"/><path class="cls-9" d="M291.9,375.45c-.63.07-1.37-1.74-1.65-4.06s0-4.25.64-4.32,1.37,1.73,1.65,4.05S292.53,375.37,291.9,375.45Z" transform="translate(0.01 0)"/><path class="cls-9" d="M295,374c-.63.06-1.28-2.19-1.44-5s.22-5.16.85-5.17,1.28,2.24,1.45,5S295.68,374,295,374Z" transform="translate(0.01 0)"/><path class="cls-9" d="M299.08,370.13c-.63.06-1.3-1.74-1.5-4s.15-4.17.79-4.22,1.3,1.74,1.5,4S299.72,370.08,299.08,370.13Z" transform="translate(0.01 0)"/><path class="cls-9" d="M302.88,366.38c-.64,0-1.07-1.65-1.17-3.62s.2-3.61.83-3.7,1.38,1.51,1.47,3.6S303.51,366.41,302.88,366.38Z" transform="translate(0.01 0)"/><path class="cls-9" d="M307.21,363.27c-.63,0-1.14-1.2-1.13-2.68s.54-2.68,1.17-2.67,1.15,1.21,1.15,2.65S307.85,363.28,307.21,363.27Z" transform="translate(0.01 0)"/><path class="cls-9" d="M279.74,319.74c-.32-.55.32-1.52,1.43-2.18s2.28-.75,2.6-.2-.32,1.52-1.43,2.18S280.06,320.29,279.74,319.74Z" transform="translate(0.01 0)"/><path class="cls-9" d="M281.56,322.12c-.34-.53.64-1.77,2.3-2.54s3.23-.73,3.42-.12-.94,1.5-2.45,2.21S281.9,322.66,281.56,322.12Z" transform="translate(0.01 0)"/><path class="cls-9" d="M282.52,325.94c-.27-.57,1.41-1.88,3.75-2.92s4.44-1.4,4.69-.81-1.44,1.89-3.75,2.92S282.79,326.57,282.52,325.94Z" transform="translate(0.01 0)"/><path class="cls-9" d="M285,328.74c-.27-.57,1.31-1.89,3.59-2.82s4.33-1.09,4.54-.49-1.46,1.72-3.67,2.63S285.27,329.32,285,328.74Z" transform="translate(0.01 0)"/><path class="cls-9" d="M290.24,329.48c-.37-.51.44-1.73,2-2.47s3-.63,3.14,0-.82,1.44-2.13,2.09S290.62,330,290.24,329.48Z" transform="translate(0.01 0)"/><path class="cls-9" d="M293.61,331.17c-.36-.52.3-1.59,1.61-2.08s2.52-.13,2.59.49-.75,1.26-1.78,1.66S294,331.7,293.61,331.17Z" transform="translate(0.01 0)"/><path class="cls-9" d="M315.4,318.94c-.32,0-.75-1.27-1.19-3.4-.22-1.06-.44-2.35-.65-3.74a32.52,32.52,0,0,0-.93-4.36,9.89,9.89,0,0,0-1.9-3.65,7.44,7.44,0,0,0-2.65-2c-1.76-.79-3.08-.41-3.2-.75-.05-.12.2-.43.83-.68a5,5,0,0,1,2.85-.13,7.84,7.84,0,0,1,3.7,2.07,10.22,10.22,0,0,1,2.57,4.43,21.09,21.09,0,0,1,.83,4.79c.11,1.45.15,2.73.17,3.82C315.89,317.57,315.74,318.91,315.4,318.94Z" transform="translate(0.01 0)"/><path class="cls-9" d="M313.32,326.62c-.68,0-1.1-3.25-1.6-7.07-.26-1.91-.59-3.59-.87-4.83s-.42-2.06-.13-2.22.95.42,1.65,1.63a14.53,14.53,0,0,1,1.63,5.09,20.5,20.5,0,0,1,.07,5.25C313.91,325.8,313.63,326.62,313.32,326.62Z" transform="translate(0.01 0)"/><path class="cls-9" d="M308.91,328.27c-.11.11-.22.22-.34.32s-.16.23-.27.35a5.89,5.89,0,0,1-1.28,1c-1.11.66-2.2,1.13-2.68.72s0-1.8,1.49-2.68a3.78,3.78,0,0,1,2.19-.6,1.27,1.27,0,0,1,.87.42A.39.39,0,0,1,308.91,328.27Z" transform="translate(0.01 0)"/><path class="cls-9" d="M311,343.86c-.3.08-.72-.27-1.08-1a5.46,5.46,0,0,1-.45-3.21,4.31,4.31,0,0,1,1.81-2.93c.8-.49,1.43-.39,1.54-.11s-.14.71-.39,1.26a8.13,8.13,0,0,0-.69,2.16C311.46,341.79,311.64,343.69,311,343.86Z" transform="translate(0.01 0)"/><path class="cls-9" d="M314.2,340.57a.85.85,0,0,1-.86-.47,2,2,0,0,1-.16-1.51,2,2,0,0,1,.89-1.22.84.84,0,0,1,1,0,2.1,2.1,0,0,1-.41,2.93,2.38,2.38,0,0,1-.44.25Z" transform="translate(0.01 0)"/><path class="cls-9" d="M332.91,347.42c-.43.47-1.83-.13-2.9-1.53s-1.28-2.93-.71-3.21,1.6.59,2.54,1.81S333.34,347,332.91,347.42Z" transform="translate(0.01 0)"/><path class="cls-9" d="M338,348.89c-.2.24-.77.15-1.49-.3a8.1,8.1,0,0,1-2.22-2.26c-1.35-2-1.86-3.88-1.34-4.22s2,1,3.23,2.92a25.41,25.41,0,0,1,1.51,2.44C338,348.13,338.21,348.64,338,348.89Z" transform="translate(0.01 0)"/><path class="cls-9" d="M341.59,347.57c-.47.43-2-.48-3.26-2.14s-1.75-3.37-1.22-3.71,1.84.74,3.05,2.31S342.06,347.13,341.59,347.57Z" transform="translate(0.01 0)"/><path class="cls-9" d="M345,346.24c-.49.39-2-.64-3.14-2.43s-1.52-3.56-1-3.85,1.78.91,2.89,2.59S345.52,345.84,345,346.24Z" transform="translate(0.01 0)"/><path class="cls-9" d="M349.76,346.88c-.54.33-2-1.06-3.27-3.08s-1.85-4-1.32-4.3,2,1,3.28,3.08S350.31,346.57,349.76,346.88Z" transform="translate(0.01 0)"/><path class="cls-9" d="M353.29,344.57c-.57.28-1.66-.74-2.6-2.19s-1.41-2.87-.91-3.27,1.84.46,2.85,2S353.86,344.28,353.29,344.57Z" transform="translate(0.01 0)"/><path class="cls-9" d="M356.4,330.82c-.32.09-1-1.75-2.17-4.65s-2.74-6.88-6-10a12.46,12.46,0,0,0-5.27-3.09,10.44,10.44,0,0,0-5-.08c-2.85.66-4.12,2.26-4.4,2-.11-.08,0-.6.63-1.33a7.91,7.91,0,0,1,3.29-2.23,10.93,10.93,0,0,1,5.94-.43,13.45,13.45,0,0,1,6.37,3.47,19.26,19.26,0,0,1,4.11,5.8,29.1,29.1,0,0,1,1.87,5.36C356.48,328.79,356.64,330.74,356.4,330.82Z" transform="translate(0.01 0)"/><path class="cls-9" d="M352.53,330.72c-.65.06-1.39-2.51-3.23-5.06s-3.95-4.16-3.66-4.75c.14-.28.92-.23,2,.31a10.06,10.06,0,0,1,5.26,7.49C353.05,329.92,352.83,330.68,352.53,330.72Z" transform="translate(0.01 0)"/><path class="cls-9" d="M312.73,359.26c0-.63,1.21-1.14,2.64-.75s2.24,1.42,1.92,2-1.39.54-2.51.25S312.73,359.9,312.73,359.26Z" transform="translate(0.01 0)"/><path class="cls-9" d="M313,363.41c.35-.54,1.89-.17,3.56.61s2.94,1.74,2.75,2.35-1.9.59-3.73-.27S312.69,363.94,313,363.41Z" transform="translate(0.01 0)"/><path class="cls-9" d="M313.81,367.83c.25-.59,1.81-.57,3.48,0s2.89,1.6,2.7,2.2-1.75.59-3.48,0S313.57,368.41,313.81,367.83Z" transform="translate(0.01 0)"/><path class="cls-9" d="M312.64,371.14c.32-.56,2.11-.14,4.14.6s3.66,1.61,3.54,2.24-2.11.75-4.33-.08S312.33,371.69,312.64,371.14Z" transform="translate(0.01 0)"/><path class="cls-9" d="M313.9,376.91c.21-.6,1.9-.62,3.78-.06s3.27,1.53,3.11,2.15-1.85.64-3.78.06S313.69,377.51,313.9,376.91Z" transform="translate(0.01 0)"/><path class="cls-9" d="M314.53,380.31c.37-.52,1.7-.2,3.11.46s2.51,1.49,2.34,2.11-1.7.74-3.32,0S314.16,380.82,314.53,380.31Z" transform="translate(0.01 0)"/><path class="cls-9" d="M346.53,375.3c-.32-.13.19-1.77.84-4.32a15.4,15.4,0,0,0,.51-4.38,8.77,8.77,0,0,0-1.75-4.77,24.8,24.8,0,0,0-3.8-4,45.42,45.42,0,0,0-3.64-2.83c-2.16-1.52-3.62-2.36-3.49-2.67s1.82,0,4.32,1.27a25.48,25.48,0,0,1,4.15,2.59,20.48,20.48,0,0,1,4.33,4.29,11,11,0,0,1,1.52,3,9.55,9.55,0,0,1,.48,3.09,13.74,13.74,0,0,1-1.08,4.94C347.82,374.06,346.8,375.41,346.53,375.3Z" transform="translate(0.01 0)"/><path class="cls-9" d="M339.8,379.37c-.44-.48,1.49-2.75,2-6.06s-.55-6.07,0-6.39c.26-.15.94.38,1.54,1.59a8.93,8.93,0,0,1-1.59,9.85C340.81,379.31,340,379.57,339.8,379.37Z" transform="translate(0.01 0)"/><path class="cls-9" d="M350.86,355.57c-.59.24-1.53-.71-2.44-1.91s-1.51-2.38-1.11-2.88,1.88,0,3,1.51S351.45,355.29,350.86,355.57Z" transform="translate(0.01 0)"/><path class="cls-9" d="M354.55,355.4c-.57.3-1.75-.83-2.92-2.32s-2-2.92-1.54-3.4,2.05.3,3.35,2S355.11,355.11,354.55,355.4Z" transform="translate(0.01 0)"/><path class="cls-9" d="M358.47,356.47c-.57.29-2-1.24-3.43-3.19s-2.56-3.72-2.12-4.19,2.36.67,4,2.8S359,356.18,358.47,356.47Z" transform="translate(0.01 0)"/><path class="cls-9" d="M372.1,360.91c.1.29-.39.82-1.43,1.34a5.94,5.94,0,0,1-2.06.59,5.4,5.4,0,0,1-2.74-.52,12.74,12.74,0,0,1-2.07-1.24c-.53-.37-1-.76-1.53-1.18-.83-.73-1.25-1.31-1.08-1.58s.89-.18,1.92.18a15.51,15.51,0,0,1,1.73.74c.63.29,1.34.7,2,1a4.77,4.77,0,0,0,1.73.49,11.64,11.64,0,0,0,1.67,0C371.25,360.57,372,360.57,372.1,360.91Z" transform="translate(0.01 0)"/><path class="cls-11" d="M74.88,168c-1.84-4.56-8.12-10.5-12-13.58-6.69-5.37-14.63-8.92-22-13.32s-14.49-10-18-17.87a16.22,16.22,0,0,1-1.34-10.28c.84-3.41,3.53-6.5,7-7.1,3.29-.57,6.52,1.07,9.34,2.84A80.67,80.67,0,0,1,74.8,168" transform="translate(0.01 0)"/><path class="cls-11" d="M95.89,173c-3-10.24-14.67-17.45-15.32-28.1a4.76,4.76,0,0,1,.31-2.3c.92-2,3.84-2.16,5.63-.94S89.23,145,90.07,147c3.48,8.3,7,17.1,5.82,26" transform="translate(0.01 0)"/><path class="cls-11" d="M74.66,191.45c-14.89-9.17-37.91-10.18-54.18-13.38-3.09-.61-6.27-1.52-8.56-3.69s-3.31-5.94-1.55-8.55c1.48-2.17,4.31-2.89,6.9-3.27a52.38,52.38,0,0,1,34.67,7c9,5.55,15.94,13.79,22.72,21.88" transform="translate(0.01 0)"/><path class="cls-11" d="M361.74,175.29c-.23-6.95,1.28-16.9,4.38-23.12a28.6,28.6,0,0,1,14.74-14.06,3.28,3.28,0,0,1,1.34-.31c1.23,0,2.06,1.3,2.4,2.48,1.23,4.33-1.31,8.9-4.61,11.95s-7.4,5.14-10.69,8.2a24.39,24.39,0,0,0-7.56,14.86" transform="translate(0.01 0)"/><path class="cls-11" d="M374.31,179.72c6.51-15.12,18.46-27.86,29.6-37,4.24-3.5,9.17-6.66,14.67-6.84s11.41,3.73,11.67,9.22c.15,3.28-1.71,6.41-4.21,8.55a30.26,30.26,0,0,1-8.65,4.65c-15,5.95-31.07,10.67-43.08,21.46" transform="translate(0.01 0)"/><path class="cls-11" d="M377.79,190.68c6.82-4.51,19.79-11,27.64-13.3s16.34-2.9,24.21-.67a13.44,13.44,0,0,1,6.07,3.16,6.12,6.12,0,0,1,1.61,6.34c-1.39,3.39-5.9,3.92-9.57,3.85-16.68-.33-33.51-2.19-50,.62" transform="translate(0.01 0)"/><path class="cls-4" d="M73.46,110.64c6.6,0,6.61-10.26,0-10.26S66.85,110.64,73.46,110.64Z" transform="translate(0.01 0)"/><path class="cls-4" d="M5,147.37c6.6,0,6.61-10.25,0-10.25S-1.66,147.37,5,147.37Z" transform="translate(0.01 0)"/><path class="cls-4" d="M354.62,217.71v-1a5.29,5.29,0,0,0-1.5-3.63,5.13,5.13,0,0,0-7.25,0,5.33,5.33,0,0,0-1.5,3.63v1a5.28,5.28,0,0,0,1.5,3.62,5.13,5.13,0,0,0,7.25,0A5.33,5.33,0,0,0,354.62,217.71Z" transform="translate(0.01 0)"/><path class="cls-4" d="M407.08,112.62c6.6,0,6.61-10.25,0-10.25S400.47,112.62,407.08,112.62Z" transform="translate(0.01 0)"/><path class="cls-4" d="M54.6,230.78c6.59,0,6.61-10.25,0-10.25S48,230.78,54.6,230.78Z" transform="translate(0.01 0)"/><path class="cls-4" d="M15.87,248.65c6.6,0,6.61-10.25,0-10.25S9.27,248.65,15.87,248.65Z" transform="translate(0.01 0)"/><path class="cls-4" d="M428.09,230.62v-1a5.28,5.28,0,0,0-1.5-3.62,5.13,5.13,0,0,0-7.25,0,5.33,5.33,0,0,0-1.5,3.62v1a5.28,5.28,0,0,0,1.5,3.62,5.13,5.13,0,0,0,7.25,0A5.33,5.33,0,0,0,428.09,230.62Z" transform="translate(0.01 0)"/><path class="cls-12" d="M357.87,75a40.37,40.37,0,0,0-15.53-14.66c-3-1.6-5.44-4.43-7.36-7.18-4.66-10.41,3.22-24.77-10.72-38.6-9.84-9.76-24.84-9.07-37.11-4.6-1.15.36-12,2.14-15.23,2.89a8.62,8.62,0,0,0-2.08-.41c-10.32-.82-21.11-9.4-31.61-9.86-10.1-.44-23.79.06-32.66,4.83-10.77,5.79-18.63,11.24-23.5,22.06-9.45-6.2-17.86-7-29.17-5.06-7.27,1.25-21.17,6.84-24.67,23.5-13.79-5.2-23.34,2.61-32.16,15.57a30.41,30.41,0,0,0-5,19.55,25.84,25.84,0,0,0-2.85,18.55,34.75,34.75,0,0,0,5.64,13.13c3,4.34,7.54,7.16,10.63,11.32,4.15,5.6.86,12.74.66,19.06a38.16,38.16,0,0,0,2.38,14.23,41.47,41.47,0,0,0,16.31,20.51,37.85,37.85,0,0,0,12.47,5h0c6.07,1.33,12.43,1.6,18.65,2a75.67,75.67,0,0,1,16.44,2.63c2.52,1,5.1,1.82,7.7,2.69,15.77,6.54,30.73,16.38,37.12,33.5.83,2.23,2.8,5.34,3.2,2.34,2.12-15.53,8.14-35.56,24.65-41.25a29.47,29.47,0,0,1,7-1.46c12.21,9.43,31.91,9.94,45.34,3.39a41.22,41.22,0,0,0,20-22.43A38.61,38.61,0,0,0,319,150.82c0-.52-.08-1-.13-1.54.22-.25.44-.51.67-.75a19.41,19.41,0,0,1,7.2-4.74c11.42-5,26-13.71,33.82-27.76C367.5,103.57,365.4,87.16,357.87,75Z" transform="translate(0.01 0)"/><path class="cls-13" d="M91.4,82.24c-.14,0-.48-.82-.81-2.45a27.37,27.37,0,0,1-.36-7A28.38,28.38,0,0,1,92.9,62.57a27.58,27.58,0,0,1,8.15-10,30.93,30.93,0,0,1,11.73-5.36,35.79,35.79,0,0,1,10.42-.78,38.27,38.27,0,0,1,4,.47c1.15.25,2.14.45,2.93.68,1.58.5,2.42.84,2.38,1-.09.41-3.61-.56-9.34-.51a39.12,39.12,0,0,0-9.87,1.21,31,31,0,0,0-10.83,5.13,26.93,26.93,0,0,0-7.67,9.16,30.21,30.21,0,0,0-3,9.4C91,78.57,91.77,82.19,91.4,82.24Z" transform="translate(0.01 0)"/><path class="cls-11" d="M104.49,126c-.14.1-.65-.37-1.55-1.2s-2.24-2-3.94-3.42a37.59,37.59,0,0,1-5.66-5.62,34.69,34.69,0,0,1-4.73-8.63,31.58,31.58,0,0,1-2-9.65,24.6,24.6,0,0,1,1-8,20.2,20.2,0,0,1,2.18-4.94c.68-1.07,1.19-1.58,1.31-1.5.34.17-1,2.61-1.91,6.83a27.27,27.27,0,0,0-.43,7.49,33.44,33.44,0,0,0,2,9A37.22,37.22,0,0,0,95,114.51a48,48,0,0,0,5.06,5.69,34.1,34.1,0,0,1,3.5,4C104.34,125.24,104.61,125.9,104.49,126Z" transform="translate(0.01 0)"/><path class="cls-11" d="M216.18,225.64c-.35.18-1.9-5.07-7.54-12.1a56.69,56.69,0,0,0-11.82-10.8,93,93,0,0,0-18.17-9.63h.07L171,190.45h.09a74.87,74.87,0,0,0-11.79-2.29c-4.07-.47-8.36-.51-12.74-.9a60.22,60.22,0,0,1-17-3.41,34.77,34.77,0,0,1-7.37-3.93,40.53,40.53,0,0,1-6.07-5.18,41.73,41.73,0,0,1-11.53-24.46,33.54,33.54,0,0,1-.13-5.58,38.65,38.65,0,0,1,.68-4.91,39.09,39.09,0,0,0,1-7.62,11.56,11.56,0,0,0-.93-4.67c-.44-1-.77-1.52-.68-1.58s.5.38,1.09,1.37a10.53,10.53,0,0,1,1.41,4.83,35.92,35.92,0,0,1-.6,7.88,40,40,0,0,0-.49,4.76,35.2,35.2,0,0,0,.28,5.33,39.29,39.29,0,0,0,3.45,11.71,41.33,41.33,0,0,0,8,11.46,36.05,36.05,0,0,0,12.76,8.54A58.58,58.58,0,0,0,146.76,185c4.3.38,8.57.43,12.81.93a73.84,73.84,0,0,1,12.13,2.44h.08l7.65,2.71h0a91,91,0,0,1,18.39,10.14,55,55,0,0,1,11.8,11.45A43.87,43.87,0,0,1,215,222,14,14,0,0,1,216.18,225.64Z" transform="translate(0.01 0)"/><path class="cls-11" d="M251.07,185.27c0,.16-.87.36-2.41.75a29.83,29.83,0,0,0-6.28,2.27,27.53,27.53,0,0,0-7.91,5.66,40.32,40.32,0,0,0-6.91,9.82,66,66,0,0,0-4.45,11.33c-1.08,3.61-1.84,6.93-2.42,9.73l-.39,2c-.14.65-.21,1.19-.42,1.89a2,2,0,0,1-.26.53.92.92,0,0,1-.24.28,1.26,1.26,0,0,1-.39.22,1.77,1.77,0,0,1-.46,0l-.35-.12a2.59,2.59,0,0,1-.42-.32,4.69,4.69,0,0,1-.85-1.22c-.76-1.51-.86-2.44-.73-2.49s.56.76,1.48,2a4.23,4.23,0,0,0,.82.87.72.72,0,0,0,.19.11v.17a.25.25,0,0,0-.1-.15v-.06a2,2,0,0,0,.07-.23c.07-.41.13-1.1.2-1.73s.13-1.34.23-2.06a79.76,79.76,0,0,1,2-10.05,60,60,0,0,1,4.44-11.8A38.65,38.65,0,0,1,233,192.39a26.86,26.86,0,0,1,8.75-5.65,22.37,22.37,0,0,1,6.78-1.65C250.15,185,251.05,185.12,251.07,185.27Z" transform="translate(0.01 0)"/><path class="cls-11" d="M319.4,151.57c.14,0,.39,1.31.34,3.73A35.87,35.87,0,0,1,318,165.36a44.09,44.09,0,0,1-7.26,13.37A39.23,39.23,0,0,1,296,190.18a40.68,40.68,0,0,1-9.28,2.85c-1.54.34-3.07.48-4.56.67a28.76,28.76,0,0,1-4.41.2,50.19,50.19,0,0,1-8.12-.6,47.83,47.83,0,0,1-6.89-1.71,33.46,33.46,0,0,1-9.15-4.55,9.47,9.47,0,0,1-1.27-1c-.36-.31-.65-.57-.88-.79q-.71-.65-.63-.75c.05-.06.36.08.91.38l1,.6a14,14,0,0,0,1.36.77A41,41,0,0,0,263.2,190a47.28,47.28,0,0,0,14.49,1.74c1.38,0,2.79-.16,4.22-.26a27.91,27.91,0,0,0,4.35-.7,41.1,41.1,0,0,0,8.79-2.74,38.59,38.59,0,0,0,14-10.7,45.32,45.32,0,0,0,7.35-12.54,43.39,43.39,0,0,0,2.43-9.59C319.19,152.88,319.24,151.57,319.4,151.57Z" transform="translate(0.01 0)"/><path class="cls-11" d="M182.77,28.22c-.07,0,0-.37.33-1a27.42,27.42,0,0,1,1.4-2.55A49.45,49.45,0,0,1,191,16.22a51.09,51.09,0,0,1,12.52-9.65,54.87,54.87,0,0,1,18.27-6,53.11,53.11,0,0,1,10-.52A45.39,45.39,0,0,1,241,1.32C246.8,2.8,251.53,5.21,255.54,7a82.44,82.44,0,0,0,9.6,3.78,26,26,0,0,1,2.71.88c.61.29.88.52.85.59s-.37,0-1-.15-1.55-.22-2.78-.45a55.78,55.78,0,0,1-10-3.14c-4.11-1.59-8.87-3.79-14.39-5.09a45.06,45.06,0,0,0-8.81-1.08,53.6,53.6,0,0,0-9.56.55,55.81,55.81,0,0,0-17.61,5.63,53.58,53.58,0,0,0-12.37,8.92,65.73,65.73,0,0,0-6.92,7.8l-1.72,2.29C183.08,28,182.84,28.26,182.77,28.22Z" transform="translate(0.01 0)"/><path class="cls-11" d="M98.47,74.29c-.3-.09-.29-1.25.11-3.06a16.58,16.58,0,0,1,3.11-6.71,10.43,10.43,0,0,1,6.52-3.88c2-.24,3.17.39,3.1.66s-1.18.35-2.73.93a12.07,12.07,0,0,0-5.1,3.74,28.84,28.84,0,0,0-3.36,5.79C99.4,73.37,98.78,74.38,98.47,74.29Z" transform="translate(0.01 0)"/><path class="cls-11" d="M101.89,75.39c-.3-.09-.41-.76-.2-1.76a10.05,10.05,0,0,1,4.59-6.24c.89-.5,1.56-.6,1.74-.35.36.55-1.22,2.19-2.8,4.37S102.51,75.57,101.89,75.39Z" transform="translate(0.01 0)"/><path class="cls-11" d="M106.65,121c-.25.19-1.67-1.18-3.69-3.65a41.58,41.58,0,0,1-6.5-10.76,26.15,26.15,0,0,1-1.66-6.86,19.59,19.59,0,0,1,.26-5.77,13.68,13.68,0,0,1,1.28-3.67,1.51,1.51,0,0,1,.5-.62.55.55,0,0,1,.48-.08.41.41,0,0,1,.3.34.37.37,0,0,1-.21.42c-.15,0-.15-.08-.14-.1s0-.11,0-.08a.38.38,0,0,0-.13-.09h0v.14h0a2.7,2.7,0,0,0-.08.39,30.85,30.85,0,0,0-.51,3.58,26.63,26.63,0,0,0,1.94,11.57,67.24,67.24,0,0,0,5.68,10.66C105.94,119,106.91,120.76,106.65,121Z" transform="translate(0.01 0)"/><path class="cls-11" d="M156.93,180c-.06.16-.89,0-2.38-.33a50.25,50.25,0,0,0-6.36-.68c-2.71-.17-6-.15-9.7-.64-.92-.12-1.86-.35-2.83-.54s-1.91-.53-2.9-.81a21.46,21.46,0,0,1-2.9-1.13c-1-.44-1.93-.92-2.86-1.45a35.76,35.76,0,0,1-9.4-7.65,33.49,33.49,0,0,1-5.34-8.31,36.85,36.85,0,0,1-1.35-3.54c-.27-1.08-.52-2-.66-2.77-.22-1.56-.26-2.42-.1-2.44.41-.1,1,3.31,3.57,8a37.06,37.06,0,0,0,14.41,14.68c.86.54,1.79.91,2.67,1.36s1.81.73,2.69,1.09a19.24,19.24,0,0,0,2.69.81c.89.22,1.77.43,2.64.57,3.48.59,6.76.74,9.52,1.12a29.66,29.66,0,0,1,6.45,1.44C156.26,179.38,157,179.87,156.93,180Z" transform="translate(0.01 0)"/><path class="cls-11" d="M122.14,161.94c-.13.28-.7.33-1.48,0a6.57,6.57,0,0,1-3.93-4.76c-.13-.83,0-1.37.33-1.45.64-.15,1.52,1.33,2.81,2.86S122.4,161.35,122.14,161.94Z" transform="translate(0.01 0)"/><path class="cls-11" d="M214.07,209c-.57.35-3.54-3.8-8.27-7.77s-9.25-6.27-9-6.89c.12-.28,1.44-.08,3.42.74a28.41,28.41,0,0,1,12.56,10.66C213.91,207.57,214.33,208.87,214.07,209Z" transform="translate(0.01 0)"/><path class="cls-11" d="M308.45,170.77c.23.09-.73,3.09-4,6.82a32.44,32.44,0,0,1-16.53,9.6,40.41,40.41,0,0,1-19.09-.31c-4.75-1.24-7.42-2.71-7.32-3s3,.57,7.65,1.37a46.24,46.24,0,0,0,18.23-.34,35.06,35.06,0,0,0,15.89-8.5C306.67,173.22,308.12,170.57,308.45,170.77Z" transform="translate(0.01 0)"/><path class="cls-11" d="M307.47,166.25c.28.1.19,1.25-.5,3a18.91,18.91,0,0,1-9.9,9.9c-1.7.68-2.86.78-3,.5-.24-.63,3.64-2.48,7.23-6.13S306.84,166,307.47,166.25Z" transform="translate(0.01 0)"/><path class="cls-11" d="M351.13,96.57c.22,0,.95,3,0,7.77a29.35,29.35,0,0,1-2.93,8,37.1,37.1,0,0,1-6.19,8.38,53.56,53.56,0,0,1-15.45,10.54c-4.33,2-7.15,2.85-7.26,2.6s2.48-1.64,6.56-4a66.67,66.67,0,0,0,14.61-10.69,36.35,36.35,0,0,0,9.17-15.23C350.92,99.49,350.76,96.57,351.13,96.57Z" transform="translate(0.01 0)"/><path class="cls-11" d="M343.29,78c.21-.15,1.58,1.12,3,3.72a18.53,18.53,0,0,1,1.08,2.19,27,27,0,0,1,1,2.64,29.75,29.75,0,0,1,1.11,6.35,28.87,28.87,0,0,1-.42,6.43c-.18.92-.4,1.83-.67,2.73a20.87,20.87,0,0,1-.83,2.29c-1.19,2.75-2.41,4.17-2.63,4s.43-1.81,1.19-4.53c.18-.68.39-1.42.53-2.24s.3-1.68.45-2.59a36.46,36.46,0,0,0,.22-6,37.89,37.89,0,0,0-.87-6c-.24-.89-.44-1.75-.73-2.53s-.51-1.51-.77-2.16C343.92,79.74,343,78.18,343.29,78Z" transform="translate(0.01 0)"/><path class="cls-11" d="M320.91,24.43c-.31.16-1.09-.87-2.47-2.29a23.81,23.81,0,0,0-6.12-4.57A23.76,23.76,0,0,0,305,15.24c-2-.3-3.25-.34-3.3-.68s1.2-.83,3.39-.94a15.23,15.23,0,0,1,3.81.33,19,19,0,0,1,4.46,1.62,19.48,19.48,0,0,1,3.86,2.69,15.35,15.35,0,0,1,2.48,2.92C320.89,23,321.17,24.31,320.91,24.43Z" transform="translate(0.01 0)"/><path class="cls-11" d="M244.68,9.3c-.1.37-3-.32-7.8-.63L235,8.57h-2c-1.4,0-2.89.1-4.46.19A54.91,54.91,0,0,0,209,14.19c-1.39.73-2.74,1.39-3.92,2.14-.59.37-1.19.69-1.73,1l-1.55,1.05c-3.91,2.73-6.07,4.83-6.35,4.57s1.57-2.7,5.37-5.87c.49-.38,1-.79,1.52-1.21s1.12-.78,1.72-1.2a45.12,45.12,0,0,1,4-2.41A48.14,48.14,0,0,1,228.4,6.63a44.88,44.88,0,0,1,4.64,0c.73,0,1.43.06,2.1.14l1.93.26C242,7.8,244.76,9.06,244.68,9.3Z" transform="translate(0.01 0)"/><path class="cls-11" d="M247.27,13.77c-.16.64-5.36-.19-11.77-.17s-11.61.81-11.77.16,5-2.48,11.77-2.46S247.45,13.19,247.27,13.77Z" transform="translate(0.01 0)"/><path class="cls-11" d="M158.84,30.57c-.09.65-3.69.63-8,1.44s-7.63,2-7.94,1.47c-.14-.28.54-1,1.88-1.74a18.07,18.07,0,0,1,5.65-2,18.32,18.32,0,0,1,6-.15C158,29.85,158.88,30.26,158.84,30.57Z" transform="translate(0.01 0)"/><path class="cls-11" d="M300.9,153.4c-.17-.31.87-1.15,2.3-2.66a24.43,24.43,0,0,0,2.29-2.79,25.18,25.18,0,0,0,2.18-3.81,26.38,26.38,0,0,0,1.42-4.15,25.16,25.16,0,0,0,.58-3.56c.19-2.07.13-3.41.47-3.48s.92,1.2,1.16,3.47a16.74,16.74,0,0,1-.13,4,18.22,18.22,0,0,1-4,8.84,15.63,15.63,0,0,1-2.9,2.73C302.4,153.29,301,153.65,300.9,153.4Z" transform="translate(0.01 0)"/><path class="cls-11" d="M303.33,142.46c-.53-.37-.25-1.68-.08-3.17s.3-2.82.91-3c.29-.1.69.18,1,.79a4.31,4.31,0,0,1,.37,2.55,4.38,4.38,0,0,1-1,2.36C304.05,142.47,303.59,142.63,303.33,142.46Z" transform="translate(0.01 0)"/><path class="cls-11" d="M160.59,161.47c-.07.29-1.23.34-3-.23a12,12,0,0,1-5.9-4.3,9.58,9.58,0,0,1-1.7-7.2c.38-1.92,1.27-2.81,1.52-2.67s0,1.2.1,2.8a10.85,10.85,0,0,0,2,5.73,15.74,15.74,0,0,0,4.7,4.16C159.7,160.64,160.68,161.14,160.59,161.47Z" transform="translate(0.01 0)"/><path class="cls-11" d="M142.4,153.24c-.54.31-1.62-.58-1.84-2.13s.55-2.72,1.16-2.57.94,1.13,1.11,2.24S143,152.93,142.4,153.24Z" transform="translate(0.01 0)"/><path class="cls-11" d="M316.94,55.15c-.29.13-.92-.67-1.79-2a31.05,31.05,0,0,0-3.56-4.6,13.44,13.44,0,0,0-4.63-3c-1.35-.52-2.32-.64-2.35-1s1-.78,2.71-.6a10.11,10.11,0,0,1,5.9,3,14.8,14.8,0,0,1,3.39,5.5C317.14,54,317.23,55,316.94,55.15Z" transform="translate(0.01 0)"/><path class="cls-11" d="M303.4,53.67c-.65,0-1.08-1.71-2.33-3.2s-2.71-2.33-2.62-3c.06-.3.63-.51,1.52-.33a5.42,5.42,0,0,1,4.08,5.09C304.06,53.17,303.73,53.67,303.4,53.67Z" transform="translate(0.01 0)"/><path class="cls-11" d="M183.71,31.78c-.16.1-.86-.51-2.37-1.35a39.49,39.49,0,0,0-6.77-2.86,51.23,51.23,0,0,0-10.8-2.32,46,46,0,0,0-13.46.54l-3.43.81-3.25,1a18.71,18.71,0,0,0-5.31,3,28.82,28.82,0,0,0-6.52,7.89c-1.49,2.54-2.49,4.7-3.22,6.19S127.42,47,127.25,47s0-1,.4-2.55a40.08,40.08,0,0,1,2.54-6.61,27.39,27.39,0,0,1,6.56-8.72,19.84,19.84,0,0,1,5.93-3.5l3.44-1.15c1.2-.31,2.42-.58,3.66-.88a46,46,0,0,1,25.47,2.52,28.44,28.44,0,0,1,6.68,3.68C183.34,30.84,183.84,31.7,183.71,31.78Z" transform="translate(0.01 0)"/><path class="cls-11" d="M319.5,148.57a7.22,7.22,0,0,1,1.95-1.23c1.33-.71,3.32-1.65,5.85-3s5.58-2.93,9-5.09a80,80,0,0,0,10.81-8.22,64.7,64.7,0,0,0,10.54-12.51c.39-.62.83-1.22,1.2-1.87s.73-1.32,1.09-2,.74-1.33,1.11-2a17,17,0,0,0,.88-2.06,34.36,34.36,0,0,0,1.55-9.38c.08-1.65.08-3.32,0-5,0-.84-.08-1.69-.14-2.54s-.21-1.69-.31-2.54a36.75,36.75,0,0,0-2.94-10c-3-6.5-8-12.19-13.73-17.22-1.45-1.26-2.91-2.49-4.4-3.71a54.41,54.41,0,0,1-4.36-3.82,19,19,0,0,1-3.61-4.7,20,20,0,0,1-2-5.46,65.22,65.22,0,0,1-1.06-10.89,40.19,40.19,0,0,0-1.38-10,20.31,20.31,0,0,0-4.66-8A26.29,26.29,0,0,0,317.82,12a35.43,35.43,0,0,0-15.64-3.79,67.27,67.27,0,0,0-13.51,1.1c-4,.68-7.35,1.45-10.13,2s-5,1-6.42,1.31a8,8,0,0,1-2.28.28,9.3,9.3,0,0,1,2.18-.72l6.32-1.72c2.75-.73,6.12-1.63,10.1-2.43a65.79,65.79,0,0,1,13.78-1.43,36.66,36.66,0,0,1,16.46,3.73A28.43,28.43,0,0,1,326.34,16a22.55,22.55,0,0,1,5.19,8.77c2.14,6.77,1.09,14.1,2.61,21a17.33,17.33,0,0,0,5.05,9.06c1.29,1.28,2.74,2.47,4.22,3.69s3,2.46,4.45,3.74c5.9,5.14,11.14,11.09,14.24,18a38.47,38.47,0,0,1,3.08,10.61c.09.9.23,1.79.3,2.68s.1,1.76.13,2.64c.05,1.74,0,3.48-.06,5.19a36,36,0,0,1-1.76,9.92,19.35,19.35,0,0,1-1,2.29l-1.17,2.07-1.15,2c-.4.66-.85,1.28-1.27,1.91a64.46,64.46,0,0,1-11.07,12.65,78.44,78.44,0,0,1-11.22,8.11,88.79,88.79,0,0,1-9.23,4.81c-2.6,1.18-4.66,2-6,2.57A12.31,12.31,0,0,1,319.5,148.57Z" transform="translate(0.01 0)"/></g><g id="TEXTO"><g class="cls-14"><text class="cls-15" transform="matrix(0.98, -0.17, 0.17, 0.98, 129.77, 94.25)"></text><text class="cls-15" transform="matrix(0.98, -0.17, 0.17, 0.98, 149.12, 94.78)">A</text><text class="cls-15" transform="matrix(0.98, -0.17, 0.17, 0.98, 174.58, 94.38)">g</text><text class="cls-15" transform="matrix(0.98, -0.17, 0.17, 0.98, 195.4, 94.24)">r</text><text class="cls-15" transform="matrix(0.98, -0.17, 0.17, 0.98, 214.71, 94.33)">e</text><text class="cls-15" transform="matrix(0.98, -0.17, 0.17, 0.98, 235.01, 94.37)">g</text><text class="cls-15" transform="matrix(0.98, -0.17, 0.17, 0.98, 255.84, 94.33)">a</text><text class="cls-16" transform="matrix(0.98, -0.17, 0.17, 0.98, 276.11, 93.92)"> </text><text class="cls-15" transform="matrix(0.98, -0.17, 0.17, 0.98, 291.71, 94.39)">u</text><text class="cls-15" transform="matrix(0.98, -0.17, 0.17, 0.98, 312.69, 94.32)">n</text><text class="cls-16" transform="matrix(0.98, -0.17, 0.17, 0.98, 332.9, 93.92)"> </text><text class="cls-15" transform="matrix(0.98, -0.17, 0.17, 0.98, 129.77, 123.04)">r</text><text class="cls-15" transform="matrix(0.98, -0.17, 0.17, 0.98, 149.08, 123.13)">e</text><text class="cls-15" transform="matrix(0.98, -0.17, 0.17, 0.98, 169.37, 123.18)">g</text><text class="cls-16" transform="matrix(0.98, -0.17, 0.17, 0.98, 190.2, 122.76)">i</text><text class="cls-15" transform="matrix(0.98, -0.17, 0.17, 0.98, 206.23, 123.09)">s</text><text class="cls-15" transform="matrix(0.98, -0.17, 0.17, 0.98, 226.04, 123.09)">t</text><text class="cls-15" transform="matrix(0.98, -0.17, 0.17, 0.98, 245.88, 123.04)">r</text><text class="cls-15" transform="matrix(0.98, -0.17, 0.17, 0.98, 265.19, 123.07)">o</text><text class="cls-15" transform="matrix(0.98, -0.17, 0.17, 0.98, 284.79, 123.04)">!</text></g></g></svg>