<svg xmlns="http://www.w3.org/2000/svg" xmlns:xlink="http://www.w3.org/1999/xlink" viewBox="0 0 437.67 388.49"><defs><style>.cls-1{fill:#ceae89;opacity:0.4;}.cls-2{fill:#efd5ae;}.cls-3{fill:#dbbe97;}.cls-4{fill:#8f8de2;}.cls-5{fill:#c4a382;}.cls-6{fill:#ceb291;}.cls-7{fill:#f7debc;}.cls-8{fill:#7a7ace;}.cls-9{fill:#382452;}.cls-10{fill:#6c6cbc;}.cls-11,.cls-14{fill:#341f4d;}.cls-12{fill:#fff;}.cls-13{fill:url(#linear-gradient);}.cls-14{font-size:24px;font-family:SnapITC-Regular, Snap ITC;letter-spacing:0.21em;}.cls-15{letter-spacing:0.21em;}.cls-16{letter-spacing:0.21em;}.cls-17{letter-spacing:0.21em;}.cls-18{letter-spacing:0.21em;}.cls-19{letter-spacing:0.21em;}.cls-20{letter-spacing:0.22em;}.cls-21{letter-spacing:0.21em;}.cls-22{letter-spacing:0.21em;}.cls-23{letter-spacing:0.21em;}.cls-24{letter-spacing:0.21em;}.cls-25{letter-spacing:0.21em;}.cls-26{letter-spacing:0.22em;}.cls-27{letter-spacing:0.21em;}</style><linearGradient id="linear-gradient" x1="338.81" y1="169.42" x2="124.81" y2="101.42" gradientUnits="userSpaceOnUse"><stop offset="0" stop-color="#fff"/><stop offset="1"/></linearGradient></defs><title>Boxes</title><g id="OBJECTS"><polyline class="cls-1" points="319.75 344.13 396.02 313.78 321.25 282.2 319.75 344.13"/><polygon class="cls-2" points="221.3 258.23 221.3 386.2 95.44 363.83 95.44 241.37 221.3 258.23"/><polygon class="cls-3" points="221.3 258.23 221.3 386.2 321 342.87 321 222.4 221.3 258.23"/><polygon class="cls-4" points="140.94 371.92 140.94 289.38 166.71 293.93 166.71 376.5 140.94 371.92"/><polygon class="cls-5" points="95.44 241.37 221.3 204.95 221.3 258.23 95.44 241.37"/><polygon class="cls-6" points="321 222.4 221.3 204.95 221.3 258.23 321 222.4"/><polygon class="cls-7" points="95.44 241.37 60.58 275.2 191.3 298.27 221.3 258.23 95.44 241.37"/><polygon class="cls-2" points="221.3 258.23 263.07 294.68 358.05 256.34 321 222.4 221.3 258.23"/><polygon class="cls-3" points="221.3 204.95 197.96 167.55 71.3 204.46 95.44 241.37 221.3 204.95"/><polygon class="cls-7" points="221.3 204.95 255.21 170.62 358.05 187.79 321 222.4 221.3 204.95"/><polygon class="cls-8" points="273.31 290.55 273.31 363.6 296.86 353.36 296.86 281.04 273.31 290.55"/><path class="cls-9" d="M125.27,405.06c-.64,0-1.16-17.9-1.17-40s.51-40,1.14-40,1.16,17.9,1.17,40S125.9,405.06,125.27,405.06Z" transform="translate(-29.6 -41.43)"/><path class="cls-9" d="M220.9,339.7c-.51-.38,5.8-9.65,14.08-20.71s15.41-19.71,15.92-19.33-5.79,9.65-14.08,20.71S221.41,340.08,220.9,339.7Z" transform="translate(-29.6 -41.43)"/><path class="cls-9" d="M251.53,426.9c0,.16-1.79-.21-5-.67s-7.79-.88-13.55-1.4-12.59-1.44-20.13-2.66-15.78-2.75-24.43-4.38c-17.29-3.26-32.91-6.35-44.21-8.69-5.64-1.17-10.2-2.16-13.35-2.89s-4.86-1.22-4.83-1.37,1.81,0,5,.49,7.8,1.2,13.49,2.17c11.36,1.94,27,4.77,44.33,8,8.65,1.63,16.86,3.23,24.36,4.55s14.25,2.38,20,3.13,10.36,1.39,13.52,2.14S251.57,426.76,251.53,426.9Z" transform="translate(-29.6 -41.43)"/><path class="cls-9" d="M171.76,412.74c-.31,0-.85-4.55-1.37-11.93s-1-17.62-1.21-28.92-.1-21.53.14-28.93.61-12,.92-12,.53,4.59.71,12,.32,17.63.53,28.89.4,21.46.54,28.89S172.08,412.72,171.76,412.74Z" transform="translate(-29.6 -41.43)"/><ellipse class="cls-9" cx="166.71" cy="335.3" rx="1.15" ry="41.37"/><path class="cls-9" d="M220.9,339.7c-.11.63-29.46-4-65.56-10.4s-65.27-12-65.16-12.67,29.46,4,65.56,10.4S221,339.08,220.9,339.7Z" transform="translate(-29.6 -41.43)"/><path class="cls-9" d="M251.53,426.9c-.25-.58,21.72-10.59,49.08-22.36s49.74-20.82,50-20.24-21.73,10.59-49.08,22.36S251.78,427.48,251.53,426.9Z" transform="translate(-29.6 -41.43)"/><ellipse class="cls-9" cx="321" cy="307.08" rx="1.15" ry="35.79"/><path class="cls-9" d="M250.9,299.66c-.21-.6,21.93-9.1,49.46-19s50-17.43,50.24-16.83-21.93,9.1-49.46,19S251.12,300.26,250.9,299.66Z" transform="translate(-29.6 -41.43)"/><path class="cls-9" d="M350.6,263.83c.43-.47,9.07,6.75,19.3,16.12s18.18,17.35,17.75,17.82-9.07-6.75-19.3-16.12S350.17,264.3,350.6,263.83Z" transform="translate(-29.6 -41.43)"/><path class="cls-9" d="M387.65,297.77c.24.59-20.83,9.65-47.06,20.24s-47.68,18.69-47.92,18.1,20.83-9.65,47.06-20.23S387.41,297.18,387.65,297.77Z" transform="translate(-29.6 -41.43)"/><path class="cls-9" d="M292.67,336.11c-.42.48-10.11-7.29-21.64-17.36s-20.55-18.61-20.13-19.09S261,307,272.54,317,293.09,335.63,292.67,336.11Z" transform="translate(-29.6 -41.43)"/><path class="cls-9" d="M90.18,316.63a14.63,14.63,0,0,1,2.31-2.7c1.58-1.67,3.93-4.09,6.94-7.13,6-6.08,14.62-14.64,24.89-24.74l.35-.35.5.07,38.88,5.08c24,3.22,45.76,6.26,61.48,8.58,7.85,1.16,14.21,2.13,18.59,2.86s6.8,1.2,6.78,1.36-2.47,0-6.9-.47-10.8-1.19-18.69-2.14c-15.77-1.9-37.54-4.69-61.57-7.91l-38.84-5.32.85-.28c-10.4,10-19.21,18.31-25.47,24.14-3.12,2.91-5.61,5.19-7.34,6.72A14.58,14.58,0,0,1,90.18,316.63Z" transform="translate(-29.6 -41.43)"/><path class="cls-9" d="M250.9,299.66c.64,0,1.29,28.48,1.47,63.61s-.2,63.63-.84,63.63-1.29-28.48-1.46-63.61S250.27,299.66,250.9,299.66Z" transform="translate(-29.6 -41.43)"/><path class="cls-9" d="M303.34,404.84c-.63,0-1.24-16.31-1.36-36.42s.29-36.44.93-36.44,1.25,16.3,1.37,36.42S304,404.83,303.34,404.84Z" transform="translate(-29.6 -41.43)"/><ellipse class="cls-9" cx="296.86" cy="316.69" rx="1.15" ry="35.64"/><path class="cls-9" d="M250.9,246.38c.18.61-27.86,9.26-62.61,19.31S125.21,283.41,125,282.8s27.85-9.26,62.61-19.32S250.72,245.77,250.9,246.38Z" transform="translate(-29.6 -41.43)"/><path class="cls-9" d="M125,282.8c-.54.35-6.37-7.64-13-17.83s-11.64-18.73-11.11-19.08,6.37,7.63,13,17.82S125.57,282.45,125,282.8Z" transform="translate(-29.6 -41.43)"/><path class="cls-9" d="M100.9,245.89c-.18-.61,28-9.37,63-19.56s63.48-18,63.65-17.35-28,9.36-63,19.56S101.08,246.5,100.9,245.89Z" transform="translate(-29.6 -41.43)"/><path class="cls-9" d="M227.56,209c.54-.34,6.2,7.76,12.65,18.09s11.23,19,10.69,19.31-6.2-7.76-12.64-18.09S227,209.31,227.56,209Z" transform="translate(-29.6 -41.43)"/><path class="cls-9" d="M250.9,299.66c-.63,0-1.15-11.93-1.15-26.64s.52-26.64,1.15-26.64,1.15,11.93,1.15,26.64S251.54,299.66,250.9,299.66Z" transform="translate(-29.6 -41.43)"/><path class="cls-9" d="M250.9,246.38c.11-.63,22.52,2.77,50,7.59s49.76,9.23,49.65,9.86-22.52-2.77-50.05-7.59S250.79,247,250.9,246.38Z" transform="translate(-29.6 -41.43)"/><path class="cls-9" d="M350.6,263.83c-.44-.46,7.51-8.59,17.74-18.15s18.88-16.93,19.31-16.46-7.51,8.59-17.74,18.14S351,264.29,350.6,263.83Z" transform="translate(-29.6 -41.43)"/><path class="cls-9" d="M387.65,229.22c-.1.62-23.21-2.71-51.61-7.45s-51.34-9.09-51.23-9.72,23.21,2.71,51.61,7.45S387.75,228.59,387.65,229.22Z" transform="translate(-29.6 -41.43)"/><path class="cls-9" d="M284.81,212.05c.45.45-6.77,8.5-16.14,18s-17.32,16.8-17.77,16.35,6.77-8.49,16.14-18S284.36,211.61,284.81,212.05Z" transform="translate(-29.6 -41.43)"/><ellipse class="cls-9" cx="213.89" cy="222.08" rx="1.15" ry="14.38"/><path class="cls-9" d="M238.82,287.7c-.64,0-1.69-8.11-2.34-18.2s-.68-18.31,0-18.35,1.68,8.1,2.34,18.2S239.45,287.66,238.82,287.7Z" transform="translate(-29.6 -41.43)"/><path class="cls-9" d="M255.58,254c-.61.15-1.49-1.39-1.63-3.46s.52-3.72,1.14-3.66,1,1.63,1.16,3.5S256.21,253.88,255.58,254Z" transform="translate(-29.6 -41.43)"/><path class="cls-9" d="M258.57,283c-.65,0-.91-7.85-1-17.49s.15-17.48.79-17.5,1.47,7.8,1.52,17.48S259.19,283,258.57,283Z" transform="translate(-29.6 -41.43)"/><path class="cls-9" d="M228.61,270.75c-.64-.05-.81-4-.72-8.93s.44-8.87,1.08-8.9,1.33,4,1.22,9S229.24,270.81,228.61,270.75Z" transform="translate(-29.6 -41.43)"/><path class="cls-9" d="M222.16,287.69c-.63,0-1-7.25-.93-16.18s.74-16.15,1.37-16.14,1.05,7.25.93,16.18S222.8,287.7,222.16,287.69Z" transform="translate(-29.6 -41.43)"/><path class="cls-9" d="M214.48,287.69c-.63,0-1-6.87-.9-15.29s.76-15.24,1.39-15.25,1,6.84.91,15.29S215.12,287.71,214.48,287.69Z" transform="translate(-29.6 -41.43)"/><path class="cls-9" d="M208.56,268.74c-.64,0-1.21-2.11-1.28-4.76s.4-4.8,1-4.82,1.21,2.12,1.27,4.76S209.19,268.73,208.56,268.74Z" transform="translate(-29.6 -41.43)"/><path class="cls-9" d="M272.73,287c-.63,0-.9-8.12-.6-18.09s1.05-18,1.69-18,.91,8.12.61,18.09S273.37,287,272.73,287Z" transform="translate(-29.6 -41.43)"/><path class="cls-9" d="M279.73,271c-.64-.05-.82-4.38-.83-9.7s.2-9.64.84-9.69,1.47,4.29,1.46,9.7S280.36,271,279.73,271Z" transform="translate(-29.6 -41.43)"/><path class="cls-9" d="M287,281c-.64,0-.69-6.28-.53-13.94s.48-13.9,1.13-13.92,1.34,6.23,1.17,14S287.61,281.05,287,281Z" transform="translate(-29.6 -41.43)"/><path class="cls-9" d="M228.49,279c.64,0,1.1,4,1,9s-.63,9-1.27,8.95-1.09-4-1-9S227.86,278.94,228.49,279Z" transform="translate(-29.6 -41.43)"/><path class="cls-9" d="M258.79,290.75c.63,0,1.22,1.37,1.32,3.13s-.34,3.23-1,3.27-1.23-1.37-1.33-3.14S258.15,290.78,258.79,290.75Z" transform="translate(-29.6 -41.43)"/><path class="cls-9" d="M280.86,278.18c.63,0,1.23,2.09,1.32,4.7s-.34,4.76-1,4.79-1.22-2.09-1.32-4.7S280.22,278.21,280.86,278.18Z" transform="translate(-29.6 -41.43)"/><path class="cls-9" d="M147.23,237.13c.22.59-7,3.8-16.14,6.84s-16.85,4.75-17,4.15,7.16-3.31,16.3-6.34S147,236.53,147.23,237.13Z" transform="translate(-29.6 -41.43)"/><ellipse class="cls-9" cx="113.02" cy="256.64" rx="1.15" ry="5.19" transform="translate(-148.04 56.89) rotate(-31.86)"/><path class="cls-9" d="M120,264.06c-.58.26-1.69-1-2.47-2.72s-1-3.41-.38-3.67,1.69,1,2.48,2.73S120.54,263.8,120,264.06Z" transform="translate(-29.6 -41.43)"/><path class="cls-9" d="M235.71,232.71c-.57.28-3-3-5.35-7.4-1.2-2.18-2.14-4.26-2.79-5.75s-1.13-2.26-.94-2.51,1.27.27,2.33,1.66a44.13,44.13,0,0,1,3.41,5.48C234.79,228.61,236.28,232.43,235.71,232.71Z" transform="translate(-29.6 -41.43)"/><path class="cls-9" d="M226,221.79c-.54.34-1.66-.49-2.5-1.84s-1.08-2.72-.54-3,1.66.49,2.5,1.84S226.57,221.46,226,221.79Z" transform="translate(-29.6 -41.43)"/><path class="cls-9" d="M203,292.8c-.6.12-2.47-6.77-3-15.51s.44-15.81,1.06-15.76.69,7,1.23,15.62S203.6,292.67,203,292.8Z" transform="translate(-29.6 -41.43)"/><path class="cls-9" d="M195.27,277.42c-.64,0-1.15-3.1-1.15-6.93s.51-6.92,1.15-6.92,1.15,3.1,1.15,6.92S195.9,277.42,195.27,277.42Z" transform="translate(-29.6 -41.43)"/><path class="cls-9" d="M188.86,273.31c.64,0,1,4,1.26,8.93s.21,8.93-.43,9-1.64-3.89-1.86-8.9S188.23,273.29,188.86,273.31Z" transform="translate(-29.6 -41.43)"/><path class="cls-9" d="M177.93,274.59c.63,0,1.33,3.32,1.55,7.5s-.1,7.59-.74,7.62-1.33-3.32-1.55-7.5S177.29,274.62,177.93,274.59Z" transform="translate(-29.6 -41.43)"/><path class="cls-9" d="M173.51,282.28c-.64,0-1.29-2.69-1.45-6.09s.22-6.17.85-6.21,1.28,2.7,1.45,6.1S174.14,282.25,173.51,282.28Z" transform="translate(-29.6 -41.43)"/><path class="cls-9" d="M159.87,283.82c-.63,0-1.17-2.37-1.19-5.25s.48-5.23,1.11-5.26,1.17,2.31,1.19,5.25S160.51,283.85,159.87,283.82Z" transform="translate(-29.6 -41.43)"/><path class="cls-9" d="M164.16,282.3c.63-.1,1.34,1.07,1.6,2.62s0,2.89-.68,3-1.34-1.07-1.59-2.62S163.54,282.4,164.16,282.3Z" transform="translate(-29.6 -41.43)"/><path class="cls-9" d="M149.88,276.13c.63,0,1.22,2.26,1.32,5.09s-.34,5.14-1,5.16-1.23-2.25-1.33-5.08S149.24,276.16,149.88,276.13Z" transform="translate(-29.6 -41.43)"/><path class="cls-9" d="M296.67,283.57c-.63,0-1.29-6.25-1.14-14s1-14,1.66-13.94.78,6.29.64,14S297.31,283.55,296.67,283.57Z" transform="translate(-29.6 -41.43)"/><path class="cls-9" d="M304.69,280.49c-.64,0-1.17-5.46-1.19-12.17s.47-12.17,1.1-12.18,1.17,5.43,1.2,12.17S305.33,280.5,304.69,280.49Z" transform="translate(-29.6 -41.43)"/><path class="cls-9" d="M311.1,271.26c-.64,0-1-2.94-1.09-6.52s.23-6.5.87-6.55,1.37,2.86,1.43,6.51S311.73,271.29,311.1,271.26Z" transform="translate(-29.6 -41.43)"/><path class="cls-9" d="M315.19,263.06c.64.05.94,3,.89,6.55s-.44,6.49-1.08,6.52-1.28-2.9-1.22-6.55S314.56,263,315.19,263.06Z" transform="translate(-29.6 -41.43)"/><ellipse class="cls-9" cx="291.26" cy="221.37" rx="1.15" ry="3.59"/><path class="cls-9" d="M327.22,269.47c-.64-.07-.93-2.24-1-4.85s.06-4.8.69-4.91,1.51,2,1.61,4.83S327.85,269.53,327.22,269.47Z" transform="translate(-29.6 -41.43)"/><path class="cls-9" d="M331.86,264.85c.63.11.95,1.32.9,2.73s-.48,2.6-1.12,2.66-1.25-1.18-1.18-2.75S331.24,264.75,331.86,264.85Z" transform="translate(-29.6 -41.43)"/><path class="cls-9" d="M286.73,218.41c.44.48-3.65,4.8-8.68,10.09s-9.16,9.58-9.67,9.17,2.89-5.39,8-10.75S286.32,217.94,286.73,218.41Z" transform="translate(-29.6 -41.43)"/><path class="cls-9" d="M292.29,219.19c.45.46-1.8,3.41-5,6.61s-6.2,5.43-6.64,5,1.8-3.41,5-6.61S291.84,218.74,292.29,219.19Z" transform="translate(-29.6 -41.43)"/><path class="cls-9" d="M374.35,233.23c-.14.61-5.16,0-11.19-1.47s-10.81-3.09-10.67-3.7,5.16,0,11.2,1.46S374.5,232.61,374.35,233.23Z" transform="translate(-29.6 -41.43)"/><path class="cls-9" d="M371.72,290.54c-.43.47-5.06-3.13-10.35-8s-9.18-9.34-8.74-9.77,5,3.2,10.31,8.09S372.16,290.07,371.72,290.54Z" transform="translate(-29.6 -41.43)"/><path class="cls-9" d="M373.79,297.8c.23.6-4.9,3.06-11.46,5.51s-12.06,3.95-12.27,3.35,4.92-3.07,11.46-5.51S373.55,297.21,373.79,297.8Z" transform="translate(-29.6 -41.43)"/><path class="cls-9" d="M370.65,294.51c.36.52-1.63,2.49-4.66,4s-5.8,1.93-6,1.34,2.09-1.95,5-3.4S370.29,294,370.65,294.51Z" transform="translate(-29.6 -41.43)"/><path class="cls-9" d="M309.1,324.91c.24.6-2.26,2.12-5.58,3.42s-6.19,1.86-6.42,1.26,2.27-2.12,5.59-3.41S308.87,324.32,309.1,324.91Z" transform="translate(-29.6 -41.43)"/><path class="cls-9" d="M236.34,307.45c.51.39-2.86,5.69-7.26,12s-8.19,11.36-8.73,11,2.4-5.94,6.84-12.33S235.84,307.07,236.34,307.45Z" transform="translate(-29.6 -41.43)"/><path class="cls-9" d="M232,303.91c.55.28-.49,3.42-2.76,6.72s-4.81,5.42-5.28,5,1.21-3.11,3.38-6.3S231.46,303.61,232,303.91Z" transform="translate(-29.6 -41.43)"/><path class="cls-9" d="M127.24,318.4c-.24.61-5.63-.95-12.35-2.39s-12.27-2.29-12.23-2.95,5.8-.81,12.72.7S127.47,317.83,127.24,318.4Z" transform="translate(-29.6 -41.43)"/><path class="cls-9" d="M114.93,309.52c-.22.6-2.19.41-4.48-.14s-4.12-1.29-4-1.93,2.16-.9,4.59-.31S115.16,308.93,114.93,309.52Z" transform="translate(-29.6 -41.43)"/><path class="cls-9" d="M139.27,329.34c-.25.6-2.53.22-5.25-.19s-5-.75-5.07-1.4,2.39-1.35,5.42-.87S139.52,328.77,139.27,329.34Z" transform="translate(-29.6 -41.43)"/><path class="cls-9" d="M162.62,338.5c-.19.62-7.92-1.26-17.47-3.37s-17.34-3.71-17.25-4.36,8.1,0,17.75,2.11S162.81,337.91,162.62,338.5Z" transform="translate(-29.6 -41.43)"/><path class="cls-9" d="M152.28,332.09c-.28.58-1.26.7-2.28.58s-1.93-.48-2.06-1.11.93-1.35,2.35-1.17S152.55,331.53,152.28,332.09Z" transform="translate(-29.6 -41.43)"/><path class="cls-9" d="M182.14,337.49c-.35.55-2.08.07-4.06-.62s-3.63-1.43-3.55-2.07,2.06-.9,4.31-.1S182.47,337,182.14,337.49Z" transform="translate(-29.6 -41.43)"/><ellipse class="cls-9" cx="146.28" cy="298.79" rx="1.36" ry="1.15"/><path class="cls-9" d="M191.41,379.29c.63-.05,1.57,5.89,1.69,13.27s-.62,13.34-1.25,13.32-.92-6-1-13.28S190.77,379.33,191.41,379.29Z" transform="translate(-29.6 -41.43)"/><path class="cls-9" d="M129.87,392.83c.63.09.9,1.87.6,4s-1,3.73-1.67,3.64-.9-1.86-.6-4S129.24,392.74,129.87,392.83Z" transform="translate(-29.6 -41.43)"/><path class="cls-9" d="M136,402c-.18.61-1.17.86-2.22.55s-1.75-1.05-1.57-1.66,1.17-.85,2.22-.55S136.2,401.4,136,402Z" transform="translate(-29.6 -41.43)"/><path class="cls-9" d="M244.14,345.1c.31,0,.8,4,1.17,10.56s.6,15.59.39,25.59-.82,19-1.48,25.55-1.32,10.52-1.63,10.49-.23-4.07,0-10.6.58-15.54.8-25.49.25-19,.29-25.5S243.81,345.12,244.14,345.1Z" transform="translate(-29.6 -41.43)"/><path class="cls-9" d="M242.89,332.63c.64,0,1.15,1.21,1.15,2.71s-.51,2.71-1.15,2.71-1.15-1.21-1.15-2.71S242.26,332.63,242.89,332.63Z" transform="translate(-29.6 -41.43)"/><path class="cls-9" d="M217.4,344.51c-.11.62-1.53.9-3.18.61s-2.9-1-2.8-1.65,1.54-.9,3.19-.61S217.51,343.88,217.4,344.51Z" transform="translate(-29.6 -41.43)"/><path class="cls-9" d="M269.66,321.73c-.39.5-3.64-1.36-7.1-4.36s-5.75-6-5.31-6.41,3.42,1.72,6.82,4.67S270.05,321.23,269.66,321.73Z" transform="translate(-29.6 -41.43)"/><path class="cls-9" d="M268.74,328c-.4.48-3.1-1.09-6-3.52s-5-4.8-4.54-5.29,3.1,1.09,6,3.52S269.15,327.55,268.74,328Z" transform="translate(-29.6 -41.43)"/><path class="cls-9" d="M297.57,361.45c-.63-.06-.8-4.12-.61-9.09s.66-9,1.3-9,1.19,4.07,1,9.1S298.2,361.5,297.57,361.45Z" transform="translate(-29.6 -41.43)"/><path class="cls-9" d="M321.48,386.21c.56-.27,1.59.75,1.77,2.38s-.61,2.85-1.22,2.71-.93-1.23-1.07-2.46S320.89,386.47,321.48,386.21Z" transform="translate(-29.6 -41.43)"/><path class="cls-9" d="M310,398c-.39-.48,1.19-2.38,3.9-3.55s5.18-1,5.26-.42-1.94,1.48-4.34,2.53S310.42,398.53,310,398Z" transform="translate(-29.6 -41.43)"/><path class="cls-9" d="M322.38,377.33c.64-.05,1.23,1,1.34,2.29s-.33,2.42-1,2.47-1.23-1-1.33-2.29S321.75,377.38,322.38,377.33Z" transform="translate(-29.6 -41.43)"/><path class="cls-9" d="M307.45,335.4c-.21-.61,3.1-2.28,7.27-4s7.67-2.93,8-2.36-2.82,2.71-7.07,4.48S307.65,336,307.45,335.4Z" transform="translate(-29.6 -41.43)"/><path class="cls-9" d="M318.26,335.1c-.33-.53.23-1.48,1.37-1.81s2.11.17,2.11.8-.67,1.17-1.48,1.41A1.76,1.76,0,0,1,318.26,335.1Z" transform="translate(-29.6 -41.43)"/><path class="cls-9" d="M347.15,321.38c.15.62-3.22,2-7.48,3.25s-7.82,2-8,1.37,3.06-2.29,7.38-3.57S347,320.76,347.15,321.38Z" transform="translate(-29.6 -41.43)"/><path class="cls-9" d="M343,327.43c.17.61-1,1.48-2.71,1.93s-3.14.32-3.31-.29,1.05-1.48,2.71-1.93S342.86,326.82,343,327.43Z" transform="translate(-29.6 -41.43)"/><path class="cls-9" d="M344,373.2c-.64,0-.9-5.08-.82-11.29s.48-11.25,1.12-11.26,1.26,5,1.18,11.29S344.62,373.23,344,373.2Z" transform="translate(-29.6 -41.43)"/><path class="cls-1" d="M321.65,421.86s10.76-4.87,14.3-1.61,14.27,12.8,26.42,8.64,21.14-17.73,28.74-17.33,19.49-4.56,29.3-10.48c8.71-5.26,11.74-6.09,10.06-9.1-1.2-2.13-8.92-.05-17.06,6.18s-9.32-9-12.78-18.75S382.56,375,382.56,375l-62.81,17.63Z" transform="translate(-29.6 -41.43)"/><path class="cls-8" d="M366.48,385.8s12.14-1.1,23.17,9.23,29.25-2.66,24.86-10.65c-2.53-3.7-4.58-4.4-8.33-5.12,0,0,12.64.27,10.84,12.56s-12.08,16-22,15.16-13-11.15-26.13-11.25C368.9,395.73,367.83,389.06,366.48,385.8Z" transform="translate(-29.6 -41.43)"/><path class="cls-10" d="M306.1,359.34s-4.29,11.88,28,22.38C334.15,381.72,320.18,351.09,306.1,359.34Z" transform="translate(-29.6 -41.43)"/><path class="cls-4" d="M348.54,374.14s3.52-25.35-3.08-33.61-25.61-3-32.6,5.66-6.76,13.15-6.76,13.15,7.73-4.78,19.16,8.68c6.86,8.81,8.1,13.69,8.1,13.69S343.87,382.3,348.54,374.14Z" transform="translate(-29.6 -41.43)"/><path class="cls-10" d="M315.76,420.68s10.75,6.62,27-23.26C342.75,397.42,312.08,405,315.76,420.68Z" transform="translate(-29.6 -41.43)"/><path class="cls-4" d="M338.07,381.66s-24.28-8.1-33.6-3.12-7.64,24.63-.41,33.08,11.7,9.06,11.7,9.06-3.29-8.47,12-17.25c9.92-5.13,14.94-5.46,14.94-5.46S345.24,387.75,338.07,381.66Z" transform="translate(-29.6 -41.43)"/><path class="cls-10" d="M347.6,428s-12.26-1.67-4.82-34.85C342.78,393.16,360.8,418.86,347.6,428Z" transform="translate(-29.6 -41.43)"/><path class="cls-4" d="M356.48,384s23.61,9.88,27.35,19.76-10.45,23.57-21.46,25.18S347.6,428,347.6,428s8-4.22,2.29-20.91c-4.1-10.39-7.66-13.94-7.66-13.94S347.07,383.81,356.48,384Z" transform="translate(-29.6 -41.43)"/><path class="cls-10" d="M388.73,384.2s-2.46,12.42-35.12,2.93C353.61,387.13,380.23,370.11,388.73,384.2Z" transform="translate(-29.6 -41.43)"/><path class="cls-4" d="M345.31,372.6s11.33-23,21.42-26.07,22.88,11.89,23.8,23-1.8,14.68-1.8,14.68S385,375.9,368,380.62c-10.62,3.44-14.39,6.77-14.39,6.77S344.59,382,345.31,372.6Z" transform="translate(-29.6 -41.43)"/><path class="cls-8" d="M336,379.72a19.48,19.48,0,0,1,10-7,2.71,2.71,0,0,1,2.86.83,44,44,0,0,1,5.78,10,2.68,2.68,0,0,1-1.28,3.53,40.6,40.6,0,0,0-8.89,5.73,2.68,2.68,0,0,1-3.76-.17c-1.57-1.74-3.7-5-5.11-10.74A2.73,2.73,0,0,1,336,379.72Z" transform="translate(-29.6 -41.43)"/><path class="cls-9" d="M334.16,381.25c-.29.16-1.58-1.59-3.62-4.41A89.19,89.19,0,0,0,322,366.45a47.88,47.88,0,0,0-5.47-4.84,14.6,14.6,0,0,0-5.12-2.52c-3.21-.78-5.24.23-5.38-.09-.07-.13.33-.57,1.29-1a8.63,8.63,0,0,1,4.37-.52,14.16,14.16,0,0,1,6,2.37,38,38,0,0,1,5.91,5A52.58,52.58,0,0,1,331.91,376C333.63,379.06,334.42,381.1,334.16,381.25Z" transform="translate(-29.6 -41.43)"/><path class="cls-9" d="M335.14,381.26c-.05.28-2.27.26-5.72-.64A45.23,45.23,0,0,1,316.75,375a40.28,40.28,0,0,1-6.08-4.74,17.1,17.1,0,0,1-3.78-5.19,8.32,8.32,0,0,1-.79-4.33c.14-1,.46-1.54.59-1.51s.17.59.31,1.5a9.93,9.93,0,0,0,1.33,3.6,19,19,0,0,0,3.79,4.38,50.86,50.86,0,0,0,5.87,4.35,68,68,0,0,0,11.93,6C333.12,380.33,335.2,380.92,335.14,381.26Z" transform="translate(-29.6 -41.43)"/><path class="cls-9" d="M348.21,372.46c-.33-.12.05-1.75.28-4.37a57,57,0,0,0-.11-10.3c-.4-4-.76-7.67-1-10.43s-.62-4.24-.32-4.37,1.23,1.39,1.92,4.08c.35,1.34.65,2.94.95,4.7s.59,3.73.77,5.82a33.41,33.41,0,0,1-.57,10.77C349.42,371.08,348.48,372.57,348.21,372.46Z" transform="translate(-29.6 -41.43)"/><path class="cls-9" d="M347,343c-.16.08-.54-.59-1.38-1.57a8,8,0,0,0-4.41-2.67,32.1,32.1,0,0,0-8.14-.4,31.43,31.43,0,0,0-9.66,2.32,25.79,25.79,0,0,0-4.52,2.4,29,29,0,0,0-3.73,3,36.68,36.68,0,0,0-5.29,6.26,23.35,23.35,0,0,0-2.5,4.91l-.27.83-.17.62c-.1.34-.19.52-.27.52s-.14-.19-.19-.55a6.16,6.16,0,0,1-.05-.69c0-.28.05-.59.08-.93a16.9,16.9,0,0,1,2-5.54,32,32,0,0,1,5.21-6.95,27.91,27.91,0,0,1,3.93-3.36,25.22,25.22,0,0,1,4.91-2.67A30.45,30.45,0,0,1,333,336.23a28.89,28.89,0,0,1,8.67.95,8.13,8.13,0,0,1,4.74,3.73C347.07,342.16,347.16,342.94,347,343Z" transform="translate(-29.6 -41.43)"/><path class="cls-9" d="M342.79,394.09c-.09.28-1.11.31-2.47-.5a11.48,11.48,0,0,1-3.79-4.42,11.63,11.63,0,0,1-1.22-3,14.83,14.83,0,0,1-.41-2.52c-.11-1.41-.07-2.3.24-2.39s.82.69,1.34,2a30,30,0,0,0,2.06,4.77,21.7,21.7,0,0,0,2.8,4.27C342.19,393.27,342.91,393.78,342.79,394.09Z" transform="translate(-29.6 -41.43)"/><path class="cls-9" d="M347.5,372.12c.08.32-.84.82-2.32,1.44a38.2,38.2,0,0,0-5.45,2.53,10.07,10.07,0,0,0-3.26,4.42c-.64,1.41-1,2.37-1.34,2.32s-.5-1.09-.22-2.79a10.22,10.22,0,0,1,1-2.9,7.52,7.52,0,0,1,2.63-3,16.5,16.5,0,0,1,6.25-2.16C346.39,371.76,347.42,371.82,347.5,372.12Z" transform="translate(-29.6 -41.43)"/><path class="cls-9" d="M354,384.61c-.64.15-1.79-2.79-3.59-6.14s-3.56-6-3.08-6.42,3.16,1.66,5.11,5.34S354.58,384.5,354,384.61Z" transform="translate(-29.6 -41.43)"/><path class="cls-9" d="M354.08,383c.16,0,.26.27.42.64a6.64,6.64,0,0,1,.25.78,2.26,2.26,0,0,1-.13,1.43,2.36,2.36,0,0,1-.53.72l-.5.48q-.49.47-1.08,1c-.76.66-1.63,1.36-2.55,2.07a41.28,41.28,0,0,1-5,3.38c-1.47.77-2.6.76-2.66.45s.68-.8,1.74-1.79a52.24,52.24,0,0,1,4.52-3.86c.92-.71,1.83-1.36,2.66-1.93.42-.29.83-.55,1.21-.79s.71-.43.78-.5c.25-.15.28-.91.39-1.35S353.93,382.93,354.08,383Z" transform="translate(-29.6 -41.43)"/><path class="cls-9" d="M314.47,419.9c0,.13-1.18.05-3-.85a19.44,19.44,0,0,1-6.5-5.58,34.66,34.66,0,0,1-5.88-11.25,34.07,34.07,0,0,1-1.41-7.44,23.38,23.38,0,0,1,.82-8.19,17.33,17.33,0,0,1,4.2-7.22,14.2,14.2,0,0,1,6.82-3.84c4.91-1.14,9.34-.14,12.75.84s6.08,2.08,7.95,2.73,2.89,1,2.85,1.18-1.14.09-3.1-.32-4.72-1.21-8.11-2a34.8,34.8,0,0,0-5.56-.88,19.18,19.18,0,0,0-6.25.53,12.3,12.3,0,0,0-5.74,3.36,15.6,15.6,0,0,0-3.61,6.29c-1.43,4.9-.76,10,.42,14.38a36.47,36.47,0,0,0,5.15,10.88,22.13,22.13,0,0,0,5.65,5.78C313.49,419.35,314.53,419.73,314.47,419.9Z" transform="translate(-29.6 -41.43)"/><path class="cls-9" d="M341.75,398.11c.07.34-1.95.9-5.08,2a40.8,40.8,0,0,0-11.35,5.71,32.53,32.53,0,0,0-5.12,4.71,18.23,18.23,0,0,0-3,4.65c-1.29,2.92-1,5-1.31,5.07-.14,0-.42-.45-.59-1.44a9.51,9.51,0,0,1,.37-4.18,16.65,16.65,0,0,1,2.95-5.46A28.35,28.35,0,0,1,324,404a31.58,31.58,0,0,1,12.28-5.43C339.58,397.82,341.7,397.82,341.75,398.11Z" transform="translate(-29.6 -41.43)"/><path class="cls-9" d="M343,396c.27.05.19,2.4-1.25,5.84a38.42,38.42,0,0,1-8.26,11.74,70.41,70.41,0,0,1-5.81,5.3,13.53,13.53,0,0,1-6,3,7.22,7.22,0,0,1-4.55-.57c-1-.51-1.3-1.06-1.22-1.16s.61.13,1.54.33a7.82,7.82,0,0,0,3.87-.18,13.65,13.65,0,0,0,5-3.07c1.72-1.55,3.63-3.37,5.53-5.29a51.08,51.08,0,0,0,8.43-10.84C342,398,342.61,395.87,343,396Z" transform="translate(-29.6 -41.43)"/><path class="cls-9" d="M348.69,428c0,.15-.6.19-1.58-.06a9.72,9.72,0,0,1-3.77-2.06,11.42,11.42,0,0,1-3.45-5.46,25.57,25.57,0,0,1-.88-7.63,52.18,52.18,0,0,1,2.09-13.46c.95-3.34,1.78-5.32,2.08-5.24s0,2.21-.5,5.59a93.23,93.23,0,0,0-1.37,13.13,28.49,28.49,0,0,0,.62,7,11,11,0,0,0,2.54,4.87,12.79,12.79,0,0,0,3,2.4C348.25,427.59,348.74,427.84,348.69,428Z" transform="translate(-29.6 -41.43)"/><path class="cls-9" d="M348.81,427.72c-.3-.18.64-1.92.85-5a45.93,45.93,0,0,0-1.2-12c-1.92-9.38-6.36-16-5.8-16.34.23-.17,1.7,1.24,3.41,4a37.88,37.88,0,0,1,4.64,11.83c1,4.88,1.25,9.44.56,12.75a11.19,11.19,0,0,1-1.41,3.7C349.35,427.47,348.94,427.8,348.81,427.72Z" transform="translate(-29.6 -41.43)"/><path class="cls-9" d="M346.07,427.19c0-.07.3-.07.78,0l2.06.39a35.47,35.47,0,0,0,7.59.58,33.26,33.26,0,0,0,10.94-2.25c.49-.18,1-.39,1.47-.61s1-.45,1.47-.71a16.36,16.36,0,0,0,2.81-1.71,30.49,30.49,0,0,0,5.1-4.84,25.92,25.92,0,0,0,3.83-5.83,12.68,12.68,0,0,0,1.22-6.07,9.79,9.79,0,0,0-2-5.13,21.88,21.88,0,0,0-3.62-3.64c-2.51-2-4.8-3.43-6.23-4.62s-2.13-2-2-2.08,1,.43,2.55,1.34,3.93,2.13,6.7,4.06a21.86,21.86,0,0,1,4.14,3.76,11.57,11.57,0,0,1,2.64,6.11,14.43,14.43,0,0,1-1.27,7.18,26.86,26.86,0,0,1-4.13,6.41,31,31,0,0,1-5.54,5.17,18.46,18.46,0,0,1-3.15,1.86q-.8.41-1.59.72c-.53.23-1.06.43-1.59.62a32,32,0,0,1-11.67,1.88,26.36,26.36,0,0,1-7.82-1.34,12.07,12.07,0,0,1-2-.82Q346,427.31,346.07,427.19Z" transform="translate(-29.6 -41.43)"/><path class="cls-9" d="M388.17,385.82c-.16,0,0-1.09.29-2.95a65.74,65.74,0,0,0,.84-7.89,28.38,28.38,0,0,0-1.56-11.32c-.21-.48-.43-1-.66-1.45s-.51-.93-.82-1.42c-.62-1-1.27-2-2-2.93a36,36,0,0,0-4.76-5.53,14.66,14.66,0,0,0-2.86-2.08,16.14,16.14,0,0,0-3.23-1.25c-2.21-.61-4.56-1-6.31-.46a13.83,13.83,0,0,0-4.9,3.22c-1.45,1.34-2.79,2.62-4,3.8-4.81,4.73-7.62,7.85-7.88,7.64s2.14-3.69,6.71-8.77c1.15-1.26,2.43-2.62,3.85-4.05a15.2,15.2,0,0,1,5.56-3.85,9.36,9.36,0,0,1,3.84-.37,21,21,0,0,1,3.73.66,17.87,17.87,0,0,1,3.7,1.41,16.67,16.67,0,0,1,3.34,2.4,36,36,0,0,1,5.05,5.93c.72,1,1.38,2.05,2,3.07.31.51.6,1.08.89,1.62s.49,1.11.71,1.66a27.83,27.83,0,0,1,1.2,12.18,41.77,41.77,0,0,1-1.58,8C388.77,384.9,388.31,385.86,388.17,385.82Z" transform="translate(-29.6 -41.43)"/><path class="cls-9" d="M388.17,385.82c-.08,0-.14-.16-.19-.42s0-.28-.06-.46-.1-.37-.15-.59a3.72,3.72,0,0,0-.69-1.36,4.63,4.63,0,0,0-1.65-1.17,15.23,15.23,0,0,0-5.68-.94,45.42,45.42,0,0,0-7.35.59,75,75,0,0,0-13.13,3.23c-3.28,1.13-5.1,2.25-5.31,2s1.41-1.91,4.68-3.49a48.25,48.25,0,0,1,13.42-4,36.66,36.66,0,0,1,7.78-.42,14.37,14.37,0,0,1,6.35,1.62,5.49,5.49,0,0,1,1.95,1.87,3.9,3.9,0,0,1,.52,2,3.73,3.73,0,0,1-.06.72,4,4,0,0,1-.16.49C388.34,385.72,388.25,385.84,388.17,385.82Z" transform="translate(-29.6 -41.43)"/><path class="cls-9" d="M388.29,384.3c.14,0,.24.63-.23,1.58a7.85,7.85,0,0,1-3.08,3,32.51,32.51,0,0,1-5.5,2.67,20.14,20.14,0,0,1-7.55,1.12,28.09,28.09,0,0,1-7.41-1.33c-2.14-.63-4.08-1.25-5.69-1.87-3.22-1.24-5-2.47-4.87-2.74s2.12.38,5.37,1.19l5.75,1.38a32.53,32.53,0,0,0,6.93,1.07,20.57,20.57,0,0,0,6.81-.84,46.63,46.63,0,0,0,5.39-2.09,9.43,9.43,0,0,0,3.11-2C387.91,384.75,388.12,384.26,388.29,384.3Z" transform="translate(-29.6 -41.43)"/><path class="cls-9" d="M408.05,379.61c0-.13.88-.38,2.45,0a9.67,9.67,0,0,1,5.47,3.93,13,13,0,0,1,1.73,9.84,18.8,18.8,0,0,1-6.19,10.49,19.41,19.41,0,0,1-11.25,4.62,19.73,19.73,0,0,1-5.33-.32,14.73,14.73,0,0,1-4.42-1.58,17.38,17.38,0,0,1-3-2.36,8.86,8.86,0,0,0-2.11-1.51c-1.27-.62-2.12-.44-2.15-.61s.16-.22.58-.33a3.91,3.91,0,0,1,1.88.1,8,8,0,0,1,2.6,1.34,19.16,19.16,0,0,0,2.94,1.93,17.3,17.3,0,0,0,8.8,1.23,18.08,18.08,0,0,0,9.93-4.26,17.48,17.48,0,0,0,5.63-9.17,11.77,11.77,0,0,0-1-8.53,9.65,9.65,0,0,0-4.39-4C408.89,379.86,408,379.8,408.05,379.61Z" transform="translate(-29.6 -41.43)"/><path class="cls-9" d="M414.25,384c.12-.07.62.41,1,1.57a7.54,7.54,0,0,1-.49,5,14.2,14.2,0,0,1-4.89,5.52,20,20,0,0,1-8.19,3.68,13.23,13.23,0,0,1-4.82,0,13.41,13.41,0,0,1-4.16-1.61,16.49,16.49,0,0,1-3.14-2.39c-.88-.82-1.62-1.61-2.32-2.28a13.77,13.77,0,0,0-3.56-2.72c-.94-.46-1.55-.59-1.54-.77s.66-.32,1.83-.08a11.06,11.06,0,0,1,4.34,2.34,35.08,35.08,0,0,0,5.42,4.05,12.37,12.37,0,0,0,3.55,1.25,12,12,0,0,0,4,0,19.81,19.81,0,0,0,7.37-3.16,13.94,13.94,0,0,0,4.64-4.51,7.75,7.75,0,0,0,1.06-4.13C414.29,384.67,414.09,384.08,414.25,384Z" transform="translate(-29.6 -41.43)"/><path class="cls-9" d="M307,381.91c.22.25-.32,1-.92,2.36a18.36,18.36,0,0,0-1.53,5.39c-.29,2.2-.26,4.29-.33,5.83s-.21,2.53-.53,2.57-.73-.87-1.09-2.42a18.22,18.22,0,0,1-.33-6.28,11.79,11.79,0,0,1,2.44-6C305.78,382.1,306.79,381.68,307,381.91Z" transform="translate(-29.6 -41.43)"/><path class="cls-9" d="M314,379.42c.18.26-.31.91-1.13,1.81a34.61,34.61,0,0,0-2.92,3.48,15.35,15.35,0,0,0-1.94,3.92c-.37,1.08-.53,1.85-.85,1.89s-.74-.74-.76-2.12a8.84,8.84,0,0,1,1.66-5,11.49,11.49,0,0,1,3.81-3.45C313,379.32,313.8,379.16,314,379.42Z" transform="translate(-29.6 -41.43)"/><path class="cls-9" d="M335.94,393.66c.3.57-3.68,3.18-8.8,5.83a28.23,28.23,0,0,0-3.32,2,16.63,16.63,0,0,0-2.3,2.08c-1.22,1.32-1.86,2.32-2.17,2.19s-.16-1.38.85-3.15a11.24,11.24,0,0,1,2.28-2.76,17.93,17.93,0,0,1,3.57-2.39C331.24,394.78,335.64,393.11,335.94,393.66Z" transform="translate(-29.6 -41.43)"/><path class="cls-9" d="M319,419.07c-.62.11-1.38-1.31-1.47-3.2s.55-3.39,1.17-3.33,1.05,1.49,1.13,3.22S319.67,419,319,419.07Z" transform="translate(-29.6 -41.43)"/><path class="cls-9" d="M321.5,416.88c-.63.07-1.37-1.74-1.65-4.06s0-4.25.64-4.32,1.37,1.73,1.65,4.05S322.13,416.8,321.5,416.88Z" transform="translate(-29.6 -41.43)"/><path class="cls-9" d="M324.64,415.46c-.63.06-1.28-2.19-1.44-5s.22-5.16.85-5.17,1.28,2.24,1.45,5S325.28,415.4,324.64,415.46Z" transform="translate(-29.6 -41.43)"/><path class="cls-9" d="M328.68,411.56c-.63.06-1.3-1.74-1.5-4s.15-4.17.79-4.22,1.3,1.74,1.5,4S329.32,411.51,328.68,411.56Z" transform="translate(-29.6 -41.43)"/><path class="cls-9" d="M332.48,407.81c-.64,0-1.07-1.65-1.17-3.62s.2-3.61.83-3.7,1.38,1.51,1.47,3.6S333.11,407.84,332.48,407.81Z" transform="translate(-29.6 -41.43)"/><path class="cls-9" d="M336.81,404.7c-.63,0-1.14-1.2-1.13-2.68s.54-2.68,1.17-2.67S338,400.56,338,402,337.45,404.71,336.81,404.7Z" transform="translate(-29.6 -41.43)"/><path class="cls-9" d="M309.34,361.17c-.32-.55.32-1.52,1.43-2.18s2.28-.75,2.6-.2-.32,1.52-1.43,2.18S309.66,361.72,309.34,361.17Z" transform="translate(-29.6 -41.43)"/><path class="cls-9" d="M311.16,363.55c-.34-.53.64-1.77,2.3-2.54s3.23-.73,3.42-.12-.94,1.5-2.45,2.21S311.5,364.09,311.16,363.55Z" transform="translate(-29.6 -41.43)"/><path class="cls-9" d="M312.12,367.37c-.27-.57,1.41-1.88,3.75-2.92s4.44-1.4,4.69-.81-1.44,1.89-3.75,2.92S312.39,368,312.12,367.37Z" transform="translate(-29.6 -41.43)"/><path class="cls-9" d="M314.6,370.17c-.27-.57,1.31-1.89,3.59-2.82s4.33-1.09,4.54-.49-1.46,1.72-3.67,2.63S314.87,370.75,314.6,370.17Z" transform="translate(-29.6 -41.43)"/><path class="cls-9" d="M319.84,370.91c-.37-.51.44-1.73,2-2.47s3-.63,3.14,0-.82,1.44-2.13,2.09S320.22,371.43,319.84,370.91Z" transform="translate(-29.6 -41.43)"/><path class="cls-9" d="M323.21,372.6c-.36-.52.3-1.59,1.61-2.08s2.52-.13,2.59.49-.75,1.26-1.78,1.66S323.57,373.13,323.21,372.6Z" transform="translate(-29.6 -41.43)"/><path class="cls-9" d="M345,360.37c-.32,0-.75-1.27-1.19-3.4-.22-1.06-.44-2.35-.65-3.74a31.22,31.22,0,0,0-.93-4.36,9.85,9.85,0,0,0-1.9-3.65,7.52,7.52,0,0,0-2.65-2c-1.76-.79-3.08-.41-3.2-.75-.05-.12.2-.43.83-.68a5,5,0,0,1,2.85-.13,7.8,7.8,0,0,1,3.7,2.07,10.22,10.22,0,0,1,2.57,4.43,21.24,21.24,0,0,1,.83,4.79c.11,1.45.15,2.73.17,3.82C345.49,359,345.34,360.34,345,360.37Z" transform="translate(-29.6 -41.43)"/><path class="cls-9" d="M342.92,368.05c-.68,0-1.1-3.25-1.6-7.07-.26-1.91-.59-3.59-.87-4.83s-.42-2.06-.13-2.22.95.42,1.65,1.63a14.57,14.57,0,0,1,1.63,5.09,20.73,20.73,0,0,1,.07,5.25C343.51,367.23,343.23,368.05,342.92,368.05Z" transform="translate(-29.6 -41.43)"/><path class="cls-9" d="M338.51,369.7a3.4,3.4,0,0,1-.34.32c-.1.11-.16.23-.27.35a5.87,5.87,0,0,1-1.28,1c-1.11.66-2.2,1.13-2.68.72s0-1.8,1.49-2.68a3.75,3.75,0,0,1,2.19-.6,1.25,1.25,0,0,1,.87.42A.39.39,0,0,1,338.51,369.7Z" transform="translate(-29.6 -41.43)"/><path class="cls-9" d="M340.59,385.29c-.3.08-.72-.27-1.08-1a5.49,5.49,0,0,1-.45-3.21,4.31,4.31,0,0,1,1.81-2.93c.8-.49,1.43-.39,1.54-.11s-.14.71-.39,1.26a8.07,8.07,0,0,0-.69,2.16C341.06,383.22,341.24,385.12,340.59,385.29Z" transform="translate(-29.6 -41.43)"/><path class="cls-9" d="M343.8,382a.86.86,0,0,1-.86-.47,2,2,0,0,1-.16-1.51,2,2,0,0,1,.89-1.22.85.85,0,0,1,1,0,2.09,2.09,0,0,1-.85,3.18Z" transform="translate(-29.6 -41.43)"/><path class="cls-9" d="M362.51,388.85c-.43.47-1.83-.13-2.9-1.53s-1.28-2.93-.71-3.21,1.6.59,2.54,1.81S362.94,388.38,362.51,388.85Z" transform="translate(-29.6 -41.43)"/><path class="cls-9" d="M367.6,390.32c-.2.24-.77.15-1.49-.3a8,8,0,0,1-2.22-2.26c-1.35-2-1.86-3.88-1.34-4.22s2,1,3.23,2.92a24.78,24.78,0,0,1,1.51,2.44C367.64,389.56,367.81,390.07,367.6,390.32Z" transform="translate(-29.6 -41.43)"/><path class="cls-9" d="M371.19,389c-.47.43-2-.48-3.26-2.14s-1.75-3.37-1.22-3.71,1.84.74,3.05,2.31S371.66,388.56,371.19,389Z" transform="translate(-29.6 -41.43)"/><path class="cls-9" d="M374.62,387.67c-.49.39-2-.64-3.14-2.43s-1.52-3.56-1-3.85,1.78.91,2.89,2.59S375.12,387.27,374.62,387.67Z" transform="translate(-29.6 -41.43)"/><path class="cls-9" d="M379.36,388.31c-.54.33-2-1.06-3.27-3.08s-1.85-4-1.32-4.3,2,1,3.28,3.08S379.91,388,379.36,388.31Z" transform="translate(-29.6 -41.43)"/><path class="cls-9" d="M382.89,386c-.57.28-1.66-.74-2.6-2.19s-1.41-2.87-.91-3.27,1.84.46,2.85,2S383.46,385.71,382.89,386Z" transform="translate(-29.6 -41.43)"/><path class="cls-9" d="M386,372.25c-.32.09-1.05-1.75-2.17-4.65s-2.74-6.88-6-10a12.48,12.48,0,0,0-5.27-3.09,10.53,10.53,0,0,0-5-.08c-2.85.66-4.12,2.26-4.4,2-.11-.08,0-.6.63-1.33a7.87,7.87,0,0,1,3.29-2.23,10.86,10.86,0,0,1,5.94-.43,13.44,13.44,0,0,1,6.37,3.47,19.29,19.29,0,0,1,4.11,5.8,28.82,28.82,0,0,1,1.87,5.36C386.08,370.22,386.24,372.17,386,372.25Z" transform="translate(-29.6 -41.43)"/><path class="cls-9" d="M382.13,372.15c-.65.06-1.39-2.51-3.23-5.06s-3.95-4.16-3.66-4.75c.14-.28.92-.23,2,.31a10.06,10.06,0,0,1,5.26,7.49C382.65,371.35,382.43,372.11,382.13,372.15Z" transform="translate(-29.6 -41.43)"/><path class="cls-9" d="M342.33,400.69c0-.63,1.21-1.14,2.64-.75s2.24,1.42,1.92,2-1.39.54-2.51.25S342.33,401.33,342.33,400.69Z" transform="translate(-29.6 -41.43)"/><path class="cls-9" d="M342.63,404.84c.35-.54,1.89-.17,3.56.61s2.94,1.74,2.75,2.35-1.9.59-3.73-.27S342.29,405.37,342.63,404.84Z" transform="translate(-29.6 -41.43)"/><path class="cls-9" d="M343.41,409.26c.25-.59,1.81-.57,3.48,0s2.89,1.6,2.7,2.2-1.75.59-3.48,0S343.17,409.84,343.41,409.26Z" transform="translate(-29.6 -41.43)"/><path class="cls-9" d="M342.24,412.57c.32-.56,2.11-.14,4.14.6s3.66,1.61,3.54,2.24-2.11.75-4.33-.08S341.93,413.12,342.24,412.57Z" transform="translate(-29.6 -41.43)"/><path class="cls-9" d="M343.5,418.34c.21-.6,1.9-.62,3.78-.06s3.27,1.53,3.11,2.15-1.85.64-3.78.06S343.29,418.94,343.5,418.34Z" transform="translate(-29.6 -41.43)"/><path class="cls-9" d="M344.13,421.74c.37-.52,1.7-.2,3.11.46s2.51,1.49,2.34,2.11-1.7.74-3.32,0S343.76,422.25,344.13,421.74Z" transform="translate(-29.6 -41.43)"/><path class="cls-9" d="M376.13,416.73c-.32-.13.19-1.77.84-4.32a15.64,15.64,0,0,0,.51-4.38,8.85,8.85,0,0,0-1.75-4.77,24.45,24.45,0,0,0-3.8-4,45,45,0,0,0-3.64-2.83c-2.16-1.52-3.62-2.36-3.49-2.67s1.82,0,4.32,1.27a25.17,25.17,0,0,1,4.15,2.59,20.6,20.6,0,0,1,4.33,4.29,10.93,10.93,0,0,1,1.52,3,9.46,9.46,0,0,1,.48,3.09,13.64,13.64,0,0,1-1.08,4.94C377.42,415.49,376.4,416.84,376.13,416.73Z" transform="translate(-29.6 -41.43)"/><path class="cls-9" d="M369.4,420.8c-.44-.48,1.49-2.75,2-6.06s-.55-6.07,0-6.39c.26-.15.94.38,1.54,1.59a8.93,8.93,0,0,1-1.59,9.85C370.41,420.74,369.6,421,369.4,420.8Z" transform="translate(-29.6 -41.43)"/><path class="cls-9" d="M380.46,397c-.59.24-1.53-.71-2.44-1.91s-1.51-2.38-1.11-2.88,1.88,0,3,1.51S381.05,396.72,380.46,397Z" transform="translate(-29.6 -41.43)"/><path class="cls-9" d="M384.15,396.83c-.57.3-1.75-.83-2.92-2.32s-2-2.92-1.54-3.4,2.05.3,3.35,2S384.71,396.54,384.15,396.83Z" transform="translate(-29.6 -41.43)"/><path class="cls-9" d="M388.07,397.9c-.57.29-1.95-1.24-3.43-3.19s-2.56-3.72-2.12-4.19,2.36.67,4,2.8S388.63,397.61,388.07,397.9Z" transform="translate(-29.6 -41.43)"/><path class="cls-9" d="M401.7,402.34c.1.29-.39.82-1.43,1.34a6.08,6.08,0,0,1-2.06.59,5.35,5.35,0,0,1-2.74-.52,13,13,0,0,1-2.07-1.24,19.31,19.31,0,0,1-1.53-1.18c-.83-.73-1.25-1.31-1.08-1.58s.89-.18,1.92.18a16.26,16.26,0,0,1,1.73.74c.63.29,1.34.7,2,1a4.69,4.69,0,0,0,1.73.49,13.05,13.05,0,0,0,1.67,0C400.85,402,401.59,402,401.7,402.34Z" transform="translate(-29.6 -41.43)"/><path class="cls-11" d="M104.48,209.4c-1.84-4.56-8.12-10.5-12-13.58-6.69-5.37-14.63-8.92-22-13.32s-14.49-10-18-17.87a16.23,16.23,0,0,1-1.34-10.28c.84-3.41,3.53-6.5,7-7.1,3.29-.57,6.52,1.07,9.34,2.84a80.67,80.67,0,0,1,36.92,59.31" transform="translate(-29.6 -41.43)"/><path class="cls-11" d="M125.49,214.45c-3-10.24-14.67-17.45-15.32-28.1a4.72,4.72,0,0,1,.31-2.3c.92-2,3.84-2.16,5.63-.94s2.72,3.33,3.56,5.32c3.48,8.3,7,17.1,5.82,26" transform="translate(-29.6 -41.43)"/><path class="cls-11" d="M104.26,232.88c-14.89-9.17-37.91-10.18-54.18-13.38-3.09-.61-6.27-1.52-8.56-3.69s-3.31-5.94-1.55-8.55c1.48-2.17,4.31-2.89,6.9-3.27a52.39,52.39,0,0,1,34.67,7c9,5.55,15.94,13.79,22.72,21.88" transform="translate(-29.6 -41.43)"/><path class="cls-11" d="M391.34,216.72c-.23-6.95,1.28-16.9,4.38-23.12a28.58,28.58,0,0,1,14.74-14.06,3.32,3.32,0,0,1,1.34-.31c1.23,0,2.06,1.3,2.4,2.48,1.23,4.33-1.31,8.9-4.61,11.95s-7.4,5.14-10.69,8.2a24.41,24.41,0,0,0-7.56,14.86" transform="translate(-29.6 -41.43)"/><path class="cls-11" d="M403.91,221.15c6.51-15.12,18.46-27.86,29.6-37,4.24-3.5,9.17-6.66,14.67-6.84s11.41,3.73,11.67,9.22c.15,3.28-1.71,6.41-4.21,8.55a30.09,30.09,0,0,1-8.65,4.65c-15,5.95-31.07,10.67-43.08,21.46" transform="translate(-29.6 -41.43)"/><path class="cls-11" d="M407.39,232.11c6.82-4.51,19.79-11,27.64-13.3s16.34-2.9,24.21-.67a13.43,13.43,0,0,1,6.07,3.16,6.12,6.12,0,0,1,1.61,6.34c-1.39,3.39-5.9,3.92-9.57,3.85-16.68-.33-33.51-2.19-50,.62" transform="translate(-29.6 -41.43)"/><path class="cls-4" d="M103.06,152.07c6.6,0,6.61-10.26,0-10.26s-6.61,10.26,0,10.26Z" transform="translate(-29.6 -41.43)"/><path class="cls-4" d="M34.55,188.8c6.6,0,6.61-10.25,0-10.25s-6.61,10.25,0,10.25Z" transform="translate(-29.6 -41.43)"/><path class="cls-4" d="M384.22,259.14v-1a5.29,5.29,0,0,0-1.5-3.63,5.13,5.13,0,0,0-7.25,0,5.33,5.33,0,0,0-1.5,3.63v1a5.28,5.28,0,0,0,1.5,3.62,5.13,5.13,0,0,0,7.25,0,5.31,5.31,0,0,0,1.5-3.62Z" transform="translate(-29.6 -41.43)"/><path class="cls-4" d="M436.68,154.05c6.6,0,6.61-10.25,0-10.25s-6.61,10.25,0,10.25Z" transform="translate(-29.6 -41.43)"/><path class="cls-4" d="M84.2,272.21c6.59,0,6.61-10.25,0-10.25s-6.61,10.25,0,10.25Z" transform="translate(-29.6 -41.43)"/><path class="cls-4" d="M45.47,290.08c6.6,0,6.61-10.25,0-10.25s-6.6,10.25,0,10.25Z" transform="translate(-29.6 -41.43)"/><path class="cls-4" d="M457.69,272.05v-1a5.28,5.28,0,0,0-1.5-3.62,5.13,5.13,0,0,0-7.25,0,5.31,5.31,0,0,0-1.5,3.62v1a5.28,5.28,0,0,0,1.5,3.62,5.13,5.13,0,0,0,7.25,0,5.31,5.31,0,0,0,1.5-3.62Z" transform="translate(-29.6 -41.43)"/><path class="cls-12" d="M387.47,116.42a40.37,40.37,0,0,0-15.53-14.66c-3.05-1.6-5.44-4.43-7.36-7.18-4.66-10.41,3.22-24.77-10.72-38.6-9.84-9.76-24.84-9.07-37.11-4.6-1.15.36-12,2.14-15.23,2.89a8.92,8.92,0,0,0-2.08-.41c-10.32-.82-21.11-9.4-31.61-9.86-10.1-.44-23.79.06-32.66,4.83-10.77,5.79-18.63,11.24-23.5,22.06-9.45-6.2-17.86-7-29.17-5.06-7.27,1.25-21.17,6.84-24.67,23.5-13.79-5.2-23.34,2.61-32.16,15.57a30.42,30.42,0,0,0-5,19.55A25.83,25.83,0,0,0,117.82,143a34.91,34.91,0,0,0,5.64,13.13c3,4.34,7.54,7.16,10.63,11.32,4.15,5.6.86,12.74.66,19.06a38,38,0,0,0,2.38,14.23,41.47,41.47,0,0,0,16.31,20.51,37.84,37.84,0,0,0,12.47,5h0c6.07,1.33,12.43,1.6,18.65,2A75.71,75.71,0,0,1,201,230.88c2.52,1,5.1,1.82,7.7,2.69,15.77,6.54,30.73,16.38,37.12,33.5.83,2.23,2.8,5.34,3.2,2.34,2.12-15.53,8.14-35.56,24.65-41.25a29.42,29.42,0,0,1,7-1.46c12.21,9.43,31.91,9.94,45.34,3.39a41.22,41.22,0,0,0,20-22.43,38.58,38.58,0,0,0,2.57-15.41c0-.52-.08-1-.13-1.54.22-.25.44-.51.67-.75a19.43,19.43,0,0,1,7.2-4.74c11.42-5,26-13.71,33.82-27.76C397.1,145,395,128.59,387.47,116.42Z" transform="translate(-29.6 -41.43)"/><text x="-29.6" y="-41.43"></text><path class="cls-13" d="M121,123.67c-.14,0-.48-.82-.81-2.45a27.06,27.06,0,0,1-.36-7A28.46,28.46,0,0,1,122.5,104a27.59,27.59,0,0,1,8.15-10,31,31,0,0,1,11.73-5.36,35.73,35.73,0,0,1,10.42-.78,39,39,0,0,1,4,.47c1.15.25,2.14.45,2.93.68,1.58.5,2.42.84,2.38,1-.09.41-3.61-.56-9.34-.51a39.2,39.2,0,0,0-9.87,1.21,30.89,30.89,0,0,0-10.83,5.13A27,27,0,0,0,124.4,105a30.08,30.08,0,0,0-3,9.4C120.64,120,121.37,123.62,121,123.67Z" transform="translate(-29.6 -41.43)"/><path class="cls-11" d="M134.09,167.41c-.14.1-.65-.37-1.55-1.2s-2.24-2-3.94-3.42a37.62,37.62,0,0,1-5.66-5.62,34.5,34.5,0,0,1-4.73-8.63,31.56,31.56,0,0,1-2-9.65,24.74,24.74,0,0,1,1-8,20.16,20.16,0,0,1,2.18-4.94c.68-1.07,1.19-1.58,1.31-1.5.34.17-1,2.61-1.91,6.83a27.21,27.21,0,0,0-.43,7.49,33.52,33.52,0,0,0,2,9,37.19,37.19,0,0,0,4.28,8.17,48.3,48.3,0,0,0,5.06,5.69,34.18,34.18,0,0,1,3.5,4C133.94,166.67,134.21,167.33,134.09,167.41Z" transform="translate(-29.6 -41.43)"/><path class="cls-11" d="M245.78,267.07c-.35.18-1.9-5.07-7.54-12.1a56.79,56.79,0,0,0-11.82-10.8,92.69,92.69,0,0,0-18.17-9.63l.07,0-7.75-2.66.09,0a74.77,74.77,0,0,0-11.79-2.29c-4.07-.47-8.36-.51-12.74-.9a60,60,0,0,1-17-3.41,34.86,34.86,0,0,1-7.37-3.93,40.71,40.71,0,0,1-6.07-5.18,41.74,41.74,0,0,1-11.53-24.46,34,34,0,0,1-.13-5.58,37.78,37.78,0,0,1,.68-4.91,39.17,39.17,0,0,0,1-7.62,11.57,11.57,0,0,0-.93-4.67c-.44-1-.77-1.52-.68-1.58s.5.38,1.09,1.37a10.54,10.54,0,0,1,1.41,4.83,35.89,35.89,0,0,1-.6,7.88,39.07,39.07,0,0,0-.49,4.76,35.11,35.11,0,0,0,.28,5.33,39.39,39.39,0,0,0,3.45,11.71,41.26,41.26,0,0,0,8,11.46A36,36,0,0,0,160,223.23a58.52,58.52,0,0,0,16.36,3.23c4.3.38,8.57.43,12.81.93a74.22,74.22,0,0,1,12.13,2.44h.08l7.65,2.71,0,0h0a90.64,90.64,0,0,1,18.39,10.14,55.05,55.05,0,0,1,11.8,11.45,44,44,0,0,1,5.36,9.26A14.19,14.19,0,0,1,245.78,267.07Z" transform="translate(-29.6 -41.43)"/><path class="cls-11" d="M280.67,226.7c0,.16-.87.36-2.41.75a29.77,29.77,0,0,0-6.28,2.27,27.51,27.51,0,0,0-7.91,5.66,40,40,0,0,0-6.91,9.82,66.42,66.42,0,0,0-4.45,11.33c-1.08,3.61-1.84,6.93-2.42,9.73q-.21,1.07-.39,2c-.14.65-.21,1.19-.42,1.89a1.85,1.85,0,0,1-.26.53,1,1,0,0,1-.24.28,1.26,1.26,0,0,1-.39.22,1.46,1.46,0,0,1-.46,0l-.35-.12a2.1,2.1,0,0,1-.42-.32,4.6,4.6,0,0,1-.85-1.22c-.76-1.51-.86-2.44-.73-2.49s.56.76,1.48,2a4.52,4.52,0,0,0,.82.87.65.65,0,0,0,.19.11c0-.06,0,.12,0,.17a.25.25,0,0,0-.1-.15s0,0,0-.06a2.35,2.35,0,0,0,.07-.23c.07-.41.13-1.1.2-1.73s.13-1.34.23-2.06a80.44,80.44,0,0,1,2-10.05,60,60,0,0,1,4.44-11.8,38.62,38.62,0,0,1,7.47-10.28,26.89,26.89,0,0,1,8.75-5.65,22.33,22.33,0,0,1,6.78-1.65C279.75,226.44,280.65,226.55,280.67,226.7Z" transform="translate(-29.6 -41.43)"/><path class="cls-11" d="M349,193c.14,0,.39,1.31.34,3.73a35.8,35.8,0,0,1-1.78,10.06,44,44,0,0,1-7.26,13.37,39.21,39.21,0,0,1-14.73,11.45,40.9,40.9,0,0,1-9.28,2.85c-1.54.34-3.07.48-4.56.67s-3,.24-4.41.2a50.79,50.79,0,0,1-8.12-.6,47.19,47.19,0,0,1-6.89-1.71,33.5,33.5,0,0,1-9.15-4.55,9.72,9.72,0,0,1-1.27-1c-.36-.31-.65-.57-.88-.79q-.7-.64-.63-.75c.05-.06.36.08.91.38l1,.6a14.36,14.36,0,0,0,1.36.77,41.16,41.16,0,0,0,9.15,3.76,51.66,51.66,0,0,0,6.68,1.37,53.06,53.06,0,0,0,7.81.37c1.38,0,2.79-.16,4.22-.26s2.89-.36,4.35-.7a40.74,40.74,0,0,0,8.79-2.74,38.57,38.57,0,0,0,14-10.7A45.36,45.36,0,0,0,346,206.24a43.61,43.61,0,0,0,2.43-9.59C348.79,194.31,348.84,193,349,193Z" transform="translate(-29.6 -41.43)"/><path class="cls-11" d="M212.37,69.65c-.07,0,0-.37.33-1a27,27,0,0,1,1.4-2.55,49.73,49.73,0,0,1,6.52-8.45A51.11,51.11,0,0,1,233.14,48a55,55,0,0,1,18.27-6,53.41,53.41,0,0,1,10-.52,45.26,45.26,0,0,1,9.21,1.27c5.78,1.48,10.51,3.89,14.52,5.64a82,82,0,0,0,9.6,3.78,24.92,24.92,0,0,1,2.71.88c.61.29.88.52.85.59s-.37,0-1-.15-1.55-.22-2.78-.45a56.22,56.22,0,0,1-10-3.14c-4.11-1.59-8.87-3.79-14.39-5.09a45.47,45.47,0,0,0-8.81-1.08,53.73,53.73,0,0,0-9.56.55,55.69,55.69,0,0,0-17.61,5.63,53.69,53.69,0,0,0-12.37,8.92,66.18,66.18,0,0,0-6.92,7.8l-1.72,2.29C212.68,69.44,212.44,69.69,212.37,69.65Z" transform="translate(-29.6 -41.43)"/><path class="cls-11" d="M128.07,115.72c-.3-.09-.29-1.25.11-3.06a16.6,16.6,0,0,1,3.11-6.71,10.44,10.44,0,0,1,6.52-3.88c2-.24,3.17.39,3.1.66s-1.18.35-2.73.93a12.06,12.06,0,0,0-5.1,3.74,28.71,28.71,0,0,0-3.36,5.79C129,114.8,128.38,115.81,128.07,115.72Z" transform="translate(-29.6 -41.43)"/><path class="cls-11" d="M131.49,116.82c-.3-.09-.41-.76-.2-1.76a9.59,9.59,0,0,1,1.67-3.58,9.49,9.49,0,0,1,2.92-2.66c.89-.5,1.56-.6,1.74-.35.36.55-1.22,2.19-2.8,4.37S132.11,117,131.49,116.82Z" transform="translate(-29.6 -41.43)"/><path class="cls-11" d="M136.25,162.38c-.25.19-1.67-1.18-3.69-3.65a41.54,41.54,0,0,1-6.5-10.76,25.93,25.93,0,0,1-1.66-6.86,19.71,19.71,0,0,1,.26-5.77,13.61,13.61,0,0,1,1.28-3.67,1.44,1.44,0,0,1,.5-.62.57.57,0,0,1,.48-.08.41.41,0,0,1,.3.34.38.38,0,0,1-.21.42c-.15,0-.15-.08-.14-.1s0-.11,0-.08a.51.51,0,0,0-.13-.09s0,0,0,0,0,0,0,0h0v.14h0l0,0a2.82,2.82,0,0,0-.08.39,30,30,0,0,0-.51,3.58,26.62,26.62,0,0,0,1.94,11.57,67.21,67.21,0,0,0,5.68,10.66C135.54,160.46,136.51,162.19,136.25,162.38Z" transform="translate(-29.6 -41.43)"/><path class="cls-11" d="M186.53,221.43c-.06.16-.89,0-2.38-.33a49.77,49.77,0,0,0-6.36-.68c-2.71-.17-6-.15-9.7-.64-.92-.12-1.86-.35-2.83-.54s-1.91-.53-2.9-.81-1.94-.7-2.9-1.13a32,32,0,0,1-2.86-1.45,35.79,35.79,0,0,1-9.4-7.65,33.66,33.66,0,0,1-5.34-8.31,35,35,0,0,1-1.35-3.54c-.27-1.08-.52-2-.66-2.77-.22-1.56-.26-2.42-.1-2.44.41-.1,1,3.31,3.57,8a37.05,37.05,0,0,0,14.41,14.68c.86.54,1.79.91,2.67,1.36s1.81.73,2.69,1.09,1.8.59,2.69.81,1.77.43,2.64.57c3.48.59,6.76.74,9.52,1.12a29.62,29.62,0,0,1,6.45,1.44C185.86,220.81,186.59,221.3,186.53,221.43Z" transform="translate(-29.6 -41.43)"/><path class="cls-11" d="M151.74,203.37c-.13.28-.7.33-1.48,0a6.56,6.56,0,0,1-3.93-4.76c-.13-.83,0-1.37.33-1.45.64-.15,1.52,1.33,2.81,2.86S152,202.78,151.74,203.37Z" transform="translate(-29.6 -41.43)"/><path class="cls-11" d="M243.67,250.46c-.57.35-3.54-3.8-8.27-7.77s-9.25-6.27-9-6.89c.12-.28,1.44-.08,3.42.74a27.64,27.64,0,0,1,7.07,4.4,27.36,27.36,0,0,1,5.49,6.26C243.51,249,243.93,250.3,243.67,250.46Z" transform="translate(-29.6 -41.43)"/><path class="cls-11" d="M338.05,212.2c.23.09-.73,3.09-4,6.82a32.44,32.44,0,0,1-16.53,9.6,40.45,40.45,0,0,1-19.09-.31c-4.75-1.24-7.42-2.71-7.32-3s3,.57,7.65,1.37a46.26,46.26,0,0,0,18.23-.34,35.11,35.11,0,0,0,15.89-8.5C336.27,214.65,337.72,212,338.05,212.2Z" transform="translate(-29.6 -41.43)"/><path class="cls-11" d="M337.07,207.68c.28.1.19,1.25-.5,3a18.42,18.42,0,0,1-4,5.9,18.63,18.63,0,0,1-5.9,4c-1.7.68-2.86.78-3,.5-.24-.63,3.64-2.48,7.23-6.13S336.44,207.44,337.07,207.68Z" transform="translate(-29.6 -41.43)"/><path class="cls-11" d="M380.73,138c.22,0,.95,3,0,7.77a29.46,29.46,0,0,1-2.93,8,37,37,0,0,1-6.19,8.38,53.72,53.72,0,0,1-15.45,10.54c-4.33,2-7.15,2.85-7.26,2.6s2.48-1.64,6.56-4a66.9,66.9,0,0,0,14.61-10.69,36.44,36.44,0,0,0,9.17-15.23C380.52,140.92,380.36,138,380.73,138Z" transform="translate(-29.6 -41.43)"/><path class="cls-11" d="M372.89,119.41c.21-.15,1.58,1.12,3.05,3.72a18.63,18.63,0,0,1,1.08,2.19,27.69,27.69,0,0,1,1,2.64,29.57,29.57,0,0,1,1.11,6.35,28.82,28.82,0,0,1-.42,6.43,26.61,26.61,0,0,1-.67,2.73,19.47,19.47,0,0,1-.83,2.29c-1.19,2.75-2.41,4.17-2.63,4s.43-1.81,1.19-4.53c.18-.68.39-1.42.53-2.24s.3-1.68.45-2.59a36.39,36.39,0,0,0,.22-6,37.29,37.29,0,0,0-.87-6c-.24-.89-.44-1.75-.73-2.53s-.51-1.51-.77-2.16C373.52,121.17,372.62,119.61,372.89,119.41Z" transform="translate(-29.6 -41.43)"/><path class="cls-11" d="M350.51,65.86c-.31.16-1.09-.87-2.47-2.29A23.67,23.67,0,0,0,341.92,59a26.5,26.5,0,0,0-3.9-1.57,27,27,0,0,0-3.38-.76c-2-.3-3.25-.34-3.3-.68s1.2-.83,3.39-.94a15.21,15.21,0,0,1,3.81.33A19.19,19.19,0,0,1,343,57a19.65,19.65,0,0,1,3.86,2.69,15.31,15.31,0,0,1,2.48,2.92C350.49,64.4,350.77,65.74,350.51,65.86Z" transform="translate(-29.6 -41.43)"/><path class="cls-11" d="M274.28,50.73c-.1.37-3-.32-7.8-.63L264.62,50c-.65,0-1.33,0-2,0-1.4,0-2.89.1-4.46.19a54.78,54.78,0,0,0-19.56,5.43c-1.39.73-2.74,1.39-3.92,2.14-.59.37-1.19.69-1.73,1l-1.55,1.05c-3.91,2.73-6.07,4.83-6.35,4.57s1.57-2.7,5.37-5.87c.49-.38,1-.79,1.52-1.21s1.12-.78,1.72-1.2a45.28,45.28,0,0,1,4-2.41A48.12,48.12,0,0,1,258,48.06a44.61,44.61,0,0,1,4.64,0c.73.05,1.43.06,2.1.14l1.93.26C271.55,49.23,274.36,50.49,274.28,50.73Z" transform="translate(-29.6 -41.43)"/><path class="cls-11" d="M276.87,55.2c-.16.64-5.36-.19-11.77-.17s-11.61.81-11.77.16,5-2.48,11.77-2.46S277.05,54.62,276.87,55.2Z" transform="translate(-29.6 -41.43)"/><path class="cls-11" d="M188.44,72c-.09.65-3.69.63-7.95,1.44s-7.63,2-7.94,1.47c-.14-.28.54-1,1.88-1.74a18.09,18.09,0,0,1,5.65-2,18.35,18.35,0,0,1,6-.15C187.59,71.28,188.48,71.69,188.44,72Z" transform="translate(-29.6 -41.43)"/><path class="cls-11" d="M330.5,194.83c-.17-.31.87-1.15,2.3-2.66a24.84,24.84,0,0,0,2.29-2.79,25.39,25.39,0,0,0,2.18-3.81,26.87,26.87,0,0,0,1.42-4.15,25.35,25.35,0,0,0,.58-3.56c.19-2.07.13-3.41.47-3.48s.92,1.2,1.16,3.47a16.6,16.6,0,0,1-.13,4,18.22,18.22,0,0,1-4,8.84,15.69,15.69,0,0,1-2.9,2.73C332,194.72,330.63,195.08,330.5,194.83Z" transform="translate(-29.6 -41.43)"/><path class="cls-11" d="M332.93,183.89c-.53-.37-.25-1.68-.08-3.17s.3-2.82.91-3c.29-.1.69.18,1,.79a4.35,4.35,0,0,1,.37,2.55,4.42,4.42,0,0,1-1,2.36C333.65,183.9,333.19,184.06,332.93,183.89Z" transform="translate(-29.6 -41.43)"/><path class="cls-11" d="M190.19,202.9c-.07.29-1.23.34-3-.23a12,12,0,0,1-5.9-4.3,9.58,9.58,0,0,1-1.7-7.2c.38-1.92,1.27-2.81,1.52-2.67s0,1.2.1,2.8a10.8,10.8,0,0,0,2,5.73,15.9,15.9,0,0,0,4.7,4.16C189.3,202.07,190.28,202.57,190.19,202.9Z" transform="translate(-29.6 -41.43)"/><path class="cls-11" d="M172,194.67c-.54.31-1.62-.58-1.84-2.13s.55-2.72,1.16-2.57.94,1.13,1.11,2.24S172.58,194.36,172,194.67Z" transform="translate(-29.6 -41.43)"/><path class="cls-11" d="M346.54,96.58c-.29.13-.92-.67-1.79-2a31,31,0,0,0-3.56-4.6A13.47,13.47,0,0,0,336.56,87c-1.35-.52-2.32-.64-2.35-1s1-.78,2.71-.6a10.1,10.1,0,0,1,5.9,3,14.9,14.9,0,0,1,3.39,5.5C346.74,95.44,346.83,96.46,346.54,96.58Z" transform="translate(-29.6 -41.43)"/><path class="cls-11" d="M333,95.1c-.65,0-1.08-1.71-2.33-3.2s-2.71-2.33-2.62-3c.06-.3.63-.51,1.52-.33a5.42,5.42,0,0,1,4.08,5.09C333.66,94.6,333.33,95.1,333,95.1Z" transform="translate(-29.6 -41.43)"/><path class="cls-11" d="M213.31,73.21c-.16.1-.86-.51-2.37-1.35A39.32,39.32,0,0,0,204.17,69a51.18,51.18,0,0,0-10.8-2.32,45.78,45.78,0,0,0-13.46.54l-3.43.81-3.25,1a18.78,18.78,0,0,0-5.31,3,28.92,28.92,0,0,0-6.52,7.89c-1.49,2.54-2.49,4.7-3.22,6.19s-1.16,2.32-1.33,2.27,0-1,.4-2.55a39.73,39.73,0,0,1,2.54-6.61,27.44,27.44,0,0,1,6.56-8.72A19.79,19.79,0,0,1,172.28,67l3.44-1.15c1.2-.31,2.42-.58,3.66-.88a46,46,0,0,1,25.47,2.52,28.18,28.18,0,0,1,6.68,3.68C212.94,72.27,213.44,73.13,213.31,73.21Z" transform="translate(-29.6 -41.43)"/><path class="cls-11" d="M349.1,190a7.18,7.18,0,0,1,1.95-1.23c1.33-.71,3.32-1.65,5.85-2.95s5.58-2.93,9-5.09a80,80,0,0,0,10.81-8.22A64.72,64.72,0,0,0,387.25,160c.39-.62.83-1.22,1.2-1.87s.73-1.32,1.09-2,.74-1.33,1.11-2a16.35,16.35,0,0,0,.88-2.06,34.55,34.55,0,0,0,1.55-9.38c.08-1.65.08-3.32,0-5,0-.84-.08-1.69-.14-2.54s-.21-1.69-.31-2.54a36.62,36.62,0,0,0-2.94-10c-3-6.5-8-12.19-13.73-17.22-1.45-1.26-2.91-2.49-4.4-3.71s-3-2.44-4.36-3.82a19.05,19.05,0,0,1-3.61-4.7,20,20,0,0,1-2-5.46,65.11,65.11,0,0,1-1.06-10.89,40.17,40.17,0,0,0-1.38-10,20.38,20.38,0,0,0-4.66-8,26.28,26.28,0,0,0-7.07-5.41,35.45,35.45,0,0,0-15.64-3.79,67.83,67.83,0,0,0-13.51,1.1c-4,.68-7.35,1.45-10.13,2s-4.95,1-6.42,1.31a8,8,0,0,1-2.28.28,9.09,9.09,0,0,1,2.18-.72l6.32-1.72c2.75-.73,6.12-1.63,10.1-2.43A65.82,65.82,0,0,1,331.82,48a36.7,36.7,0,0,1,16.46,3.73,28.3,28.3,0,0,1,7.66,5.71,22.51,22.51,0,0,1,5.19,8.77c2.14,6.77,1.09,14.1,2.61,21a17.33,17.33,0,0,0,5.05,9.06c1.29,1.28,2.74,2.47,4.22,3.69s3,2.46,4.45,3.74c5.9,5.14,11.14,11.09,14.24,18a38.24,38.24,0,0,1,3.08,10.61c.09.9.23,1.79.3,2.68s.1,1.76.13,2.64c.05,1.74,0,3.48-.06,5.19a36.11,36.11,0,0,1-1.76,9.92,19.56,19.56,0,0,1-1,2.29l-1.17,2.07-1.15,2c-.4.66-.85,1.28-1.27,1.91a64.59,64.59,0,0,1-11.07,12.65,78.09,78.09,0,0,1-11.22,8.11,88.65,88.65,0,0,1-9.23,4.81c-2.6,1.18-4.66,2-6,2.57A12,12,0,0,1,349.1,190Z" transform="translate(-29.6 -41.43)"/></g><g id="TEXTO"><text class="cls-14" transform="translate(129.76 94.25) rotate(-10)"><tspan class="cls-15" x="18.97" y="3.89">A</tspan><tspan class="cls-16" x="44.11" y="7.91">g</tspan><tspan class="cls-17" x="64.64" y="11.39">r</tspan><tspan class="cls-18" x="83.64" y="14.83">e</tspan><tspan class="cls-19" x="103.62" y="18.4">g</tspan><tspan class="cls-18" x="124.14" y="21.97">a</tspan><tspan class="cls-20" x="144.18" y="25.09"> </tspan><tspan class="cls-21" x="159.46" y="28.26">u</tspan><tspan class="cls-22" x="180.13" y="31.84">n</tspan><tspan class="cls-20" x="200.1" y="34.95"> </tspan><tspan class="cls-23"><tspan x="-5" y="28.36">r</tspan><tspan class="cls-24" x="14" y="31.8">e</tspan><tspan class="cls-25" x="33.98" y="35.37">g</tspan><tspan class="cls-26" x="54.56" y="38.57">i</tspan><tspan class="cls-27" x="70.29" y="41.68">s</tspan><tspan class="cls-27" x="89.8" y="45.12">t</tspan><tspan x="109.35" y="48.52">r</tspan><tspan x="128.36" y="51.9">o</tspan><tspan x="147.67" y="55.28">!</tspan></tspan></text></g></svg>