<svg data-v-d3f97b9e="" xmlns="http://www.w3.org/2000/svg" viewBox="0 0 377.53715498938425 188"><!----><!----><!----><g data-v-d3f97b9e="" id="7cf94ddc-025e-4e2d-916a-bcc09dfbc55d" fill="#FFFFFF" transform="matrix(5.435244083404541,0,0,5.435244083404541,-1.3588159084320068,91.15287017822266)"><path d="M0.25 3.35L7.42 3.35L7.42 4.17L4.31 4.17L4.31 13.05L3.36 13.05L3.36 4.17L0.25 4.17L0.25 3.35ZM14.43 5.81L14.43 12.80L14.43 12.80Q14.03 12.91 13.34 13.05L13.34 13.05L13.34 13.05Q12.66 13.19 11.66 13.19L11.66 13.19L11.66 13.19Q10.85 13.19 10.30 12.95L10.30 12.95L10.30 12.95Q9.76 12.71 9.42 12.28L9.42 12.28L9.42 12.28Q9.09 11.84 8.94 11.23L8.94 11.23L8.94 11.23Q8.79 10.61 8.79 9.87L8.79 9.87L8.79 5.81L9.70 5.81L9.70 9.58L9.70 9.58Q9.70 10.35 9.81 10.88L9.81 10.88L9.81 10.88Q9.93 11.41 10.18 11.74L10.18 11.74L10.18 11.74Q10.43 12.07 10.83 12.21L10.83 12.21L10.83 12.21Q11.23 12.36 11.80 12.36L11.80 12.36L11.80 12.36Q12.45 12.36 12.92 12.29L12.92 12.29L12.92 12.29Q13.40 12.22 13.52 12.17L13.52 12.17L13.52 5.81L14.43 5.81ZM17.70 3.51L17.70 5.81L20.58 5.81L20.58 6.58L17.70 6.58L17.70 10.43L17.70 10.43Q17.70 11.05 17.80 11.43L17.80 11.43L17.80 11.43Q17.91 11.82 18.10 12.03L18.10 12.03L18.10 12.03Q18.30 12.24 18.58 12.31L18.58 12.31L18.58 12.31Q18.86 12.38 19.19 12.38L19.19 12.38L19.19 12.38Q19.77 12.38 20.12 12.24L20.12 12.24L20.12 12.24Q20.47 12.11 20.66 12.00L20.66 12.00L20.89 12.75L20.89 12.75Q20.69 12.88 20.20 13.04L20.20 13.04L20.20 13.04Q19.71 13.20 19.14 13.20L19.14 13.20L19.14 13.20Q18.47 13.20 18.01 13.03L18.01 13.03L18.01 13.03Q17.56 12.85 17.28 12.49L17.28 12.49L17.28 12.49Q17.01 12.14 16.90 11.61L16.90 11.61L16.90 11.61Q16.79 11.07 16.79 10.35L16.79 10.35L16.79 3.68L17.70 3.51ZM27.82 5.81L27.82 12.80L27.82 12.80Q27.41 12.91 26.73 13.05L26.73 13.05L26.73 13.05Q26.04 13.19 25.05 13.19L25.05 13.19L25.05 13.19Q24.23 13.19 23.69 12.95L23.69 12.95L23.69 12.95Q23.14 12.71 22.81 12.28L22.81 12.28L22.81 12.28Q22.47 11.84 22.32 11.23L22.32 11.23L22.32 11.23Q22.18 10.61 22.18 9.87L22.18 9.87L22.18 5.81L23.09 5.81L23.09 9.58L23.09 9.58Q23.09 10.35 23.20 10.88L23.20 10.88L23.20 10.88Q23.31 11.41 23.56 11.74L23.56 11.74L23.56 11.74Q23.81 12.07 24.21 12.21L24.21 12.21L24.21 12.21Q24.61 12.36 25.19 12.36L25.19 12.36L25.19 12.36Q25.83 12.36 26.31 12.29L26.31 12.29L26.31 12.29Q26.78 12.22 26.91 12.17L26.91 12.17L26.91 5.81L27.82 5.81ZM32.69 5.67L32.69 5.67L32.69 5.67Q33.14 5.67 33.54 5.74L33.54 5.74L33.54 5.74Q33.94 5.81 34.09 5.88L34.09 5.88L33.91 6.66L33.91 6.66Q33.80 6.61 33.45 6.54L33.45 6.54L33.45 6.54Q33.11 6.48 32.55 6.48L32.55 6.48L32.55 6.48Q31.96 6.48 31.61 6.57L31.61 6.57L31.61 6.57Q31.25 6.65 31.14 6.71L31.14 6.71L31.14 13.05L30.23 13.05L30.23 6.15L30.23 6.15Q30.58 5.99 31.19 5.83L31.19 5.83L31.19 5.83Q31.81 5.67 32.69 5.67ZM41.02 5.81L41.02 12.80L41.02 12.80Q40.61 12.91 39.93 13.05L39.93 13.05L39.93 13.05Q39.24 13.19 38.25 13.19L38.25 13.19L38.25 13.19Q37.44 13.19 36.89 12.95L36.89 12.95L36.89 12.95Q36.34 12.71 36.01 12.28L36.01 12.28L36.01 12.28Q35.67 11.84 35.53 11.23L35.53 11.23L35.53 11.23Q35.38 10.61 35.38 9.87L35.38 9.87L35.38 5.81L36.29 5.81L36.29 9.58L36.29 9.58Q36.29 10.35 36.40 10.88L36.40 10.88L36.40 10.88Q36.51 11.41 36.76 11.74L36.76 11.74L36.76 11.74Q37.02 12.07 37.42 12.21L37.42 12.21L37.42 12.21Q37.81 12.36 38.39 12.36L38.39 12.36L38.39 12.36Q39.03 12.36 39.51 12.29L39.51 12.29L39.51 12.29Q39.98 12.22 40.11 12.17L40.11 12.17L40.11 5.81L41.02 5.81ZM48.58 12.42L48.45 13.17L48.45 13.17Q47.99 13.16 47.65 13.05L47.65 13.05L47.65 13.05Q47.31 12.95 47.08 12.73L47.08 12.73L47.08 12.73Q46.84 12.52 46.73 12.17L46.73 12.17L46.73 12.17Q46.61 11.83 46.61 11.31L46.61 11.31L46.61 2.35L47.52 2.18L47.52 11.28L47.52 11.28Q47.52 11.62 47.58 11.82L47.58 11.82L47.58 11.82Q47.64 12.03 47.77 12.14L47.77 12.14L47.77 12.14Q47.89 12.26 48.10 12.32L48.10 12.32L48.10 12.32Q48.30 12.38 48.58 12.42L48.58 12.42ZM52.47 12.39L52.47 12.39L52.47 12.39Q53.00 12.39 53.40 12.36L53.40 12.36L53.40 12.36Q53.80 12.32 54.08 12.26L54.08 12.26L54.08 9.72L54.08 9.72Q53.93 9.65 53.59 9.57L53.59 9.57L53.59 9.57Q53.26 9.49 52.67 9.49L52.67 9.49L52.67 9.49Q52.33 9.49 51.97 9.54L51.97 9.54L51.97 9.54Q51.60 9.59 51.30 9.75L51.30 9.75L51.30 9.75Q50.99 9.91 50.79 10.19L50.79 10.19L50.79 10.19Q50.60 10.47 50.60 10.93L50.60 10.93L50.60 10.93Q50.60 11.34 50.73 11.62L50.73 11.62L50.73 11.62Q50.86 11.90 51.11 12.07L51.11 12.07L51.11 12.07Q51.35 12.24 51.70 12.31L51.70 12.31L51.70 12.31Q52.04 12.39 52.47 12.39ZM52.39 5.64L52.39 5.64L52.39 5.64Q53.10 5.64 53.60 5.84L53.60 5.84L53.60 5.84Q54.10 6.05 54.40 6.41L54.40 6.41L54.40 6.41Q54.71 6.76 54.85 7.25L54.85 7.25L54.85 7.25Q54.99 7.74 54.99 8.32L54.99 8.32L54.99 12.88L54.99 12.88Q54.85 12.92 54.59 12.97L54.59 12.97L54.59 12.97Q54.32 13.02 53.97 13.08L53.97 13.08L53.97 13.08Q53.62 13.13 53.19 13.17L53.19 13.17L53.19 13.17Q52.77 13.20 52.32 13.20L52.32 13.20L52.32 13.20Q51.74 13.20 51.26 13.08L51.26 13.08L51.26 13.08Q50.78 12.95 50.42 12.68L50.42 12.68L50.42 12.68Q50.06 12.40 49.86 11.98L49.86 11.98L49.86 11.98Q49.66 11.55 49.66 10.93L49.66 10.93L49.66 10.93Q49.66 10.35 49.88 9.93L49.88 9.93L49.88 9.93Q50.11 9.51 50.51 9.23L50.51 9.23L50.51 9.23Q50.92 8.96 51.48 8.83L51.48 8.83L51.48 8.83Q52.04 8.71 52.70 8.71L52.70 8.71L52.70 8.71Q52.89 8.71 53.11 8.73L53.11 8.73L53.11 8.73Q53.33 8.75 53.53 8.79L53.53 8.79L53.53 8.79Q53.73 8.82 53.88 8.86L53.88 8.86L53.88 8.86Q54.03 8.89 54.08 8.92L54.08 8.92L54.08 8.47L54.08 8.47Q54.08 8.09 54.03 7.74L54.03 7.74L54.03 7.74Q53.97 7.38 53.78 7.09L53.78 7.09L53.78 7.09Q53.59 6.80 53.25 6.63L53.25 6.63L53.25 6.63Q52.91 6.45 52.35 6.45L52.35 6.45L52.35 6.45Q51.55 6.45 51.16 6.57L51.16 6.57L51.16 6.57Q50.76 6.68 50.58 6.75L50.58 6.75L50.46 5.95L50.46 5.95Q50.69 5.84 51.19 5.74L51.19 5.74L51.19 5.74Q51.69 5.64 52.39 5.64ZM58.23 2.18L58.23 6.24L58.23 6.24Q58.46 6.06 58.99 5.86L58.99 5.86L58.99 5.86Q59.51 5.66 60.23 5.66L60.23 5.66L60.23 5.66Q61.01 5.66 61.62 5.94L61.62 5.94L61.62 5.94Q62.23 6.22 62.65 6.72L62.65 6.72L62.65 6.72Q63.07 7.22 63.29 7.92L63.29 7.92L63.29 7.92Q63.50 8.61 63.50 9.44L63.50 9.44L63.50 9.44Q63.50 10.32 63.25 11.02L63.25 11.02L63.25 11.02Q62.99 11.72 62.52 12.21L62.52 12.21L62.52 12.21Q62.05 12.70 61.40 12.96L61.40 12.96L61.40 12.96Q60.75 13.22 59.95 13.22L59.95 13.22L59.95 13.22Q58.98 13.22 58.35 13.09L58.35 13.09L58.35 13.09Q57.72 12.96 57.32 12.82L57.32 12.82L57.32 2.35L58.23 2.18ZM58.23 7.13L58.23 12.19L58.23 12.19Q58.44 12.26 58.85 12.33L58.85 12.33L58.85 12.33Q59.26 12.39 59.93 12.39L59.93 12.39L59.93 12.39Q61.11 12.39 61.82 11.63L61.82 11.63L61.82 11.63Q62.54 10.86 62.54 9.44L62.54 9.44L62.54 9.44Q62.54 8.83 62.41 8.29L62.41 8.29L62.41 8.29Q62.29 7.76 62.01 7.36L62.01 7.36L62.01 7.36Q61.73 6.96 61.27 6.72L61.27 6.72L61.27 6.72Q60.82 6.48 60.14 6.48L60.14 6.48L60.14 6.48Q59.82 6.48 59.53 6.54L59.53 6.54L59.53 6.54Q59.23 6.61 58.98 6.71L58.98 6.71L58.98 6.71Q58.73 6.80 58.54 6.92L58.54 6.92L58.54 6.92Q58.35 7.03 58.23 7.13L58.23 7.13ZM66.96 12.40L66.96 12.40L66.96 12.40Q67.75 12.40 68.26 12.14L68.26 12.14L68.26 12.14Q68.77 11.89 68.77 11.27L68.77 11.27L68.77 11.27Q68.77 10.98 68.68 10.77L68.68 10.77L68.68 10.77Q68.59 10.56 68.38 10.39L68.38 10.39L68.38 10.39Q68.17 10.22 67.82 10.07L67.82 10.07L67.82 10.07Q67.48 9.91 66.98 9.70L66.98 9.70L66.98 9.70Q66.57 9.53 66.21 9.36L66.21 9.36L66.21 9.36Q65.84 9.18 65.56 8.95L65.56 8.95L65.56 8.95Q65.28 8.72 65.11 8.40L65.11 8.40L65.11 8.40Q64.95 8.08 64.95 7.62L64.95 7.62L64.95 7.62Q64.95 6.73 65.61 6.19L65.61 6.19L65.61 6.19Q66.28 5.64 67.44 5.64L67.44 5.64L67.44 5.64Q68.18 5.64 68.66 5.77L68.66 5.77L68.66 5.77Q69.15 5.89 69.34 5.99L69.34 5.99L69.13 6.80L69.13 6.80Q68.96 6.72 68.56 6.58L68.56 6.58L68.56 6.58Q68.17 6.44 67.40 6.44L67.40 6.44L67.40 6.44Q67.09 6.44 66.81 6.50L66.81 6.50L66.81 6.50Q66.54 6.57 66.33 6.70L66.33 6.70L66.33 6.70Q66.12 6.83 66.00 7.04L66.00 7.04L66.00 7.04Q65.87 7.24 65.87 7.53L65.87 7.53L65.87 7.53Q65.87 7.83 65.98 8.04L65.98 8.04L65.98 8.04Q66.09 8.25 66.31 8.41L66.31 8.41L66.31 8.41Q66.53 8.57 66.84 8.71L66.84 8.71L66.84 8.71Q67.16 8.85 67.56 9.02L67.56 9.02L67.56 9.02Q67.98 9.18 68.37 9.36L68.37 9.36L68.37 9.36Q68.75 9.53 69.05 9.78L69.05 9.78L69.05 9.78Q69.34 10.02 69.52 10.37L69.52 10.37L69.52 10.37Q69.71 10.71 69.71 11.23L69.71 11.23L69.71 11.23Q69.71 12.21 68.97 12.71L68.97 12.71L68.97 12.71Q68.24 13.22 66.96 13.22L66.96 13.22L66.96 13.22Q66.01 13.22 65.51 13.05L65.51 13.05L65.51 13.05Q65.00 12.89 64.83 12.81L64.83 12.81L65.07 11.98L65.07 11.98Q65.11 12.01 65.25 12.07L65.25 12.07L65.25 12.07Q65.39 12.14 65.63 12.21L65.63 12.21L65.63 12.21Q65.87 12.29 66.20 12.35L66.20 12.35L66.20 12.35Q66.53 12.40 66.96 12.40Z"></path></g><!----><g data-v-d3f97b9e="" id="f9774388-3b26-4526-a69c-109922c75196" transform="matrix(1.2026307582855225,0,0,1.2026307582855225,129.8199005126953,-24.163429260253906)" stroke="none" fill="#FBE1D5"><path d="M17.961 31.643L8.251 57.29c-3.785-5.55-2.469-13.798-1.976-15.748l11.686-9.899zm6.748 33.895c-1.811-.449-3.292-1.05-4.772-1.499-4.115-1.65-7.077-3.3-8.724-4.05L34.09 44.542l12.509 24.896c-6.255-.3-12.509-1.199-18.927-2.999l-2.963-.901zM12.53 55.34l8.064-21.297c1.975 2.85 6.418 5.249 12.837 7.199L12.53 55.34zm14.319 13.948a85.796 85.796 0 0 0 23.535 3.3c9.71 0 18.927-1.8 27.32-5.1L51.536 95.384 18.784 66.738c1.481.6 3.127 1.2 4.772 1.649l3.293.901zm19.914-28.496c-7.241-.9-20.243-3.6-23.699-8.699-.658-1.05-.987-2.1-.658-3.3.987-1.799 3.456-3.449 6.912-4.949 5.431-2.1 12.508-3.299 20.079-3.299 7.57 0 14.812 1.2 20.078 3.299 3.292 1.35 5.597 2.85 6.748 4.5.494.9.987 2.7.165 4.5-1.152 1.799-3.456 3.299-6.913 4.649-5.266 2.1-12.508 3.3-20.078 3.3h-2.634zm1.81 49.043l2.304-2.1-14.318-12.898-2.304 2.1 14.318 12.898zM37.217 42.142c6.419 1.5 12.015 1.95 12.344 1.95h.165c3.785-.15 7.241-.45 10.368-.75L49.231 67.488 36.395 41.842l.822.3zm25.511 3.15L80.997 62.54c-8.394 3.899-17.117 6.299-26.169 6.898-.987 0-1.975.15-2.962.15l10.862-24.296zm4.279 28.646L52.853 86.686l2.304 2.1 14.154-12.748-2.304-2.1zm-2.469-31.346c6.254-1.2 10.697-3.3 13.166-5.999l3.292 21.597-16.458-15.598zm22.054-7.349l-6.748-2.7c.164-.6.164-1.35.164-1.95l6.584 4.65zm6.089 4.949c2.14 5.399 1.317 10.349-2.304 15.148-1.975 2.399-4.114 4.05-5.596 5.1l-3.785-24.147 11.355 4.5.33-.601z"></path></g><!----><g data-v-d3f97b9e="" id="c028e449-d56a-4a3f-9e6b-475691d0647d" fill="#FFFFFF" transform="matrix(0.9005619883537292,0,0,0.9005619883537292,47.43366241455078,199.67327880859375)"><path d="M0.10 3.51C0.10 3.75 0.21 3.77 0.38 3.77L0.88 3.77C0.97 3.77 3.11 10.99 3.14 11.07C3.49 12.14 3.60 12.99 3.91 12.99C4.13 12.99 4.23 12.67 4.51 12.26C4.66 12.05 4.76 12.01 4.90 11.66L6.89 6.45C6.96 6.29 6.99 6.20 7.01 6.20C7.04 6.20 7.07 6.29 7.11 6.45C7.71 8.51 8.39 11.03 8.40 11.07C8.75 12.14 8.86 12.99 9.17 12.99C9.39 12.99 9.49 12.67 9.77 12.26C9.93 12.05 10.02 12.01 10.16 11.66L13.26 4.06C13.36 3.81 13.36 3.77 13.72 3.77C13.96 3.77 14.01 3.71 14.01 3.53C14.01 3.32 13.97 3.26 13.78 3.26C13.64 3.26 13.33 3.30 12.82 3.30C12.08 3.30 11.58 3.26 11.38 3.26C11.20 3.26 11.10 3.28 11.10 3.51C11.10 3.75 11.21 3.77 11.38 3.77L12.29 3.77C12.36 3.77 12.38 3.81 12.38 3.95C12.38 4.63 10.78 8.72 10.07 10.63C9.93 10.99 9.86 11.17 9.81 11.17C9.76 11.17 9.70 10.99 9.58 10.60C9.49 10.30 8.57 7.18 8.04 5.22C7.99 5.05 7.78 4.17 7.78 3.85C7.78 3.81 7.78 3.79 7.80 3.77L8.68 3.77C8.86 3.77 8.96 3.75 8.96 3.56C8.96 3.32 8.92 3.26 8.72 3.26C8.40 3.26 7.46 3.30 7.04 3.30C6.62 3.30 5.71 3.26 5.49 3.26C5.31 3.26 5.21 3.28 5.21 3.51C5.21 3.75 5.32 3.77 5.49 3.77L6.29 3.77C6.33 3.77 6.51 4.27 6.66 4.83C6.72 5.05 6.76 5.15 6.76 5.25C6.76 5.31 6.76 5.38 6.72 5.49L4.72 10.60C4.62 10.82 4.59 10.95 4.55 10.95C4.51 10.95 4.48 10.84 4.40 10.60C4.31 10.32 3.30 7.27 2.70 5.22C2.66 5.08 2.34 3.96 2.32 3.85C2.34 3.77 2.38 3.77 2.42 3.77L3.12 3.77C3.35 3.77 3.42 3.75 3.42 3.56C3.42 3.32 3.37 3.26 3.18 3.26C2.86 3.26 2.14 3.30 1.72 3.30C1.30 3.30 0.60 3.26 0.38 3.26C0.20 3.26 0.10 3.28 0.10 3.51ZM20.24 10.01C20.24 11.68 21.21 12.85 22.97 12.85C24.43 12.85 25.42 11.56 25.42 11.48C25.42 11.45 25.19 11.24 25.14 11.24C25.06 11.24 24.47 12.15 23.30 12.15C22.29 12.15 21.29 11.33 21.29 9.88C21.29 9.72 21.31 9.49 21.34 9.42C21.55 9.42 24.30 9.49 24.46 9.49C24.60 9.49 25.26 9.46 25.26 9.28C25.26 8.09 24.54 7.01 23.13 7.01C21.42 7.01 20.24 8.33 20.24 10.01ZM21.36 9.03C21.42 8.34 22.06 7.41 22.96 7.41C23.39 7.41 24.21 7.70 24.21 8.99C24.21 9.04 24.04 9.03 23.69 9.04C22.99 9.07 21.56 9.10 21.49 9.10C21.38 9.10 21.36 9.09 21.36 9.03ZM32.52 3.65C32.52 3.74 32.52 3.78 32.65 3.78C32.72 3.78 33.39 3.70 33.50 3.70C33.64 3.70 33.71 7.92 33.71 10.00C33.71 12.21 33.66 12.50 33.66 12.59C33.66 12.67 33.66 12.81 33.80 12.81C34.02 12.81 34.20 12.56 34.54 12.56C34.89 12.56 35.25 12.82 35.88 12.82C37.46 12.82 38.92 11.77 38.92 9.97C38.92 8.39 37.80 7.15 36.19 7.15C35.49 7.15 34.79 7.55 34.75 7.55C34.72 7.55 34.72 7.38 34.72 7.14C34.72 5.07 34.76 3.58 34.76 3.21C34.76 3.14 34.75 3.09 34.65 3.09C34.57 3.09 33.28 3.26 32.61 3.32C32.54 3.32 32.52 3.63 32.52 3.65ZM34.69 11.70C34.69 11.24 34.72 9.41 34.72 7.98C34.72 7.88 35.24 7.64 35.63 7.64C36.82 7.64 37.83 8.69 37.83 9.98C37.83 11.21 37.11 12.36 35.83 12.36C35.42 12.36 34.69 12.35 34.69 11.70ZM56.62 10.43C56.62 11.79 57.61 12.78 59.16 12.78C60.37 12.78 61.39 11.72 61.82 11.24C61.94 11.12 61.95 11.12 62.05 11.26C62.22 11.49 62.54 12.00 62.71 12.61C62.75 12.74 62.79 12.78 62.96 12.78C63.17 12.78 63.67 12.66 64.61 12.64C64.82 12.64 64.83 12.63 64.83 12.39C64.83 12.19 64.83 12.18 64.71 12.18C63.92 12.18 63.88 12.08 63.71 11.80C63.48 11.37 63.11 10.79 62.80 10.42C62.72 10.30 62.68 10.25 62.68 10.22C62.72 10.08 63.74 8.64 64.02 8.23C64.13 8.06 64.20 7.99 64.27 7.99L64.75 7.99C64.95 7.99 64.99 7.98 64.99 7.78C64.99 7.55 64.96 7.49 64.81 7.49C64.67 7.49 64.15 7.53 63.77 7.53C63.06 7.53 62.44 7.49 62.22 7.49C62.09 7.49 62.03 7.53 62.03 7.74C62.03 7.97 62.03 7.99 62.22 7.99L63.10 7.99C63.34 7.99 63.32 8.01 63.32 8.02C63.32 8.30 62.76 9.18 62.47 9.72C62.37 9.90 62.38 9.91 62.22 9.73C61.49 8.95 60.89 8.29 60.03 7.57C59.85 7.42 59.84 7.42 60.05 7.28C60.58 6.92 61.81 5.99 61.81 5.01C61.81 4.03 60.87 3.57 59.86 3.57C58.62 3.57 57.54 4.52 57.54 5.80C57.54 6.45 58.03 7.10 58.34 7.45C58.45 7.57 58.53 7.63 58.53 7.66C58.53 7.69 58.48 7.73 58.37 7.81C57.85 8.18 56.62 9.16 56.62 10.43ZM57.57 9.84C57.57 9.00 58.16 8.48 58.58 8.18C58.76 8.05 58.86 7.98 58.90 7.98C58.95 7.98 59.01 8.04 59.14 8.13C59.93 8.79 61.05 9.90 61.57 10.63C61.63 10.72 61.67 10.77 61.67 10.79C61.67 10.82 61.64 10.85 61.60 10.91C61.32 11.19 60.62 11.83 59.61 11.83C58.58 11.83 57.57 10.93 57.57 9.84ZM58.53 5.35C58.53 4.69 58.90 4.07 59.70 4.07C60.34 4.07 60.77 4.63 60.77 5.24C60.77 6.03 60.19 6.61 59.79 6.90C59.65 7.00 59.58 7.06 59.51 7.06C59.46 7.06 59.37 6.97 59.23 6.82C58.94 6.47 58.53 5.87 58.53 5.35ZM82.54 12.39C82.54 12.63 82.57 12.68 82.77 12.68C83.01 12.68 83.51 12.64 83.93 12.64C84.35 12.64 84.84 12.68 85.16 12.68C85.33 12.68 85.36 12.61 85.36 12.40C85.36 12.24 85.33 12.18 85.16 12.18L84.20 12.18C84.14 12.18 84.13 11.54 84.13 10.79C84.13 8.96 84.17 6.13 84.24 4.28C84.27 3.88 84.29 3.91 84.43 4.27L87.70 12.32C87.79 12.54 87.86 12.74 87.98 12.74C88.07 12.74 88.14 12.63 88.23 12.45C88.56 11.79 88.75 11.75 89.01 11.09L91.60 4.47C91.73 4.16 91.77 4.02 91.78 4.47C91.81 5.66 91.85 8.47 91.85 9.74C91.85 10.99 91.81 12.18 91.76 12.18L91.13 12.18C90.90 12.18 90.83 12.19 90.83 12.39C90.83 12.63 90.86 12.68 91.06 12.68C91.25 12.68 91.95 12.64 92.55 12.64C92.97 12.64 93.73 12.68 94.05 12.68C94.22 12.68 94.25 12.61 94.25 12.40C94.25 12.22 94.19 12.18 94.02 12.18L93.30 12.18C93.18 12.18 93.09 8.44 93.09 6.03L93.09 4.77C93.09 4.17 93.11 3.77 93.16 3.70L93.81 3.70C94.04 3.70 94.08 3.68 94.08 3.49C94.08 3.25 94.07 3.19 93.87 3.19C93.55 3.19 92.86 3.23 92.44 3.23L91.77 3.23C91.55 3.23 91.52 3.29 91.41 3.58L88.66 10.72C88.58 10.95 88.55 11.02 88.44 10.74L85.50 3.40C85.43 3.22 85.37 3.19 85.23 3.19C85.15 3.19 84.66 3.23 84.35 3.23C83.85 3.23 82.99 3.19 82.80 3.19C82.66 3.19 82.66 3.26 82.66 3.47C82.66 3.64 82.66 3.70 82.80 3.70L83.50 3.70C83.76 3.70 83.76 3.72 83.76 3.84C83.76 4.82 83.55 9.94 83.51 10.79C83.47 11.55 83.47 12.18 83.41 12.18L82.84 12.18C82.61 12.18 82.54 12.19 82.54 12.39ZM102.00 10.04C102.00 11.58 103.17 12.85 104.69 12.85C106.46 12.85 107.49 11.58 107.49 9.84C107.49 8.29 106.47 7.01 104.92 7.01C103.17 7.01 102.00 8.37 102.00 10.04ZM103.08 10.23C103.08 8.69 103.47 7.46 104.75 7.46C105.88 7.46 106.40 8.74 106.40 9.74C106.40 10.92 106.16 12.40 104.69 12.40C103.64 12.40 103.08 11.27 103.08 10.23ZM114.60 3.65C114.60 3.74 114.60 3.78 114.73 3.78C114.80 3.78 115.47 3.70 115.58 3.70C115.72 3.70 115.79 7.92 115.79 10.00C115.79 12.21 115.74 12.50 115.74 12.59C115.74 12.67 115.74 12.81 115.88 12.81C116.10 12.81 116.28 12.56 116.62 12.56C116.97 12.56 117.33 12.82 117.96 12.82C119.55 12.82 121.00 11.77 121.00 9.97C121.00 8.39 119.88 7.15 118.27 7.15C117.57 7.15 116.87 7.55 116.83 7.55C116.80 7.55 116.80 7.38 116.80 7.14C116.80 5.07 116.84 3.58 116.84 3.21C116.84 3.14 116.83 3.09 116.73 3.09C116.65 3.09 115.36 3.26 114.69 3.32C114.62 3.32 114.60 3.63 114.60 3.65ZM116.77 11.70C116.77 11.24 116.80 9.41 116.80 7.98C116.80 7.88 117.32 7.64 117.71 7.64C118.90 7.64 119.91 8.69 119.91 9.98C119.91 11.21 119.20 12.36 117.91 12.36C117.50 12.36 116.77 12.35 116.77 11.70ZM128.66 7.64C128.66 7.70 128.73 7.70 128.79 7.70C128.84 7.70 129.42 7.67 129.46 7.67C129.56 7.67 129.61 7.66 129.63 7.85C129.67 8.88 129.68 9.87 129.68 10.85C129.68 11.14 129.68 12.21 129.64 12.21L128.94 12.21C128.74 12.21 128.73 12.29 128.73 12.43C128.73 12.59 128.73 12.67 128.90 12.67C129.16 12.67 129.84 12.64 130.19 12.64C130.54 12.64 131.12 12.67 131.39 12.67C131.54 12.67 131.56 12.57 131.56 12.43C131.56 12.28 131.56 12.21 131.39 12.21L130.79 12.21C130.72 12.21 130.72 10.04 130.72 9.70L130.72 7.32C130.72 7.24 130.72 7.20 130.58 7.20C130.51 7.20 129.77 7.24 129.00 7.27C128.83 7.27 128.79 7.27 128.73 7.41C128.69 7.52 128.66 7.60 128.66 7.64ZM129.42 4.86C129.42 5.28 129.72 5.47 130.03 5.47C130.44 5.47 130.93 5.15 130.93 4.65C130.93 4.21 130.61 4.05 130.30 4.05C129.95 4.05 129.42 4.33 129.42 4.86ZM139.09 3.58C139.09 3.65 139.10 3.65 139.16 3.65C139.22 3.65 139.80 3.60 139.89 3.60C139.96 3.60 140.01 3.57 140.04 3.82C140.15 5.07 140.20 10.37 140.20 11.06C140.20 11.44 140.20 12.21 140.13 12.21L139.41 12.21C139.26 12.21 139.24 12.29 139.24 12.43C139.24 12.59 139.26 12.67 139.43 12.67C139.85 12.67 140.42 12.64 140.77 12.64C141.18 12.64 141.67 12.67 141.93 12.67C142.10 12.67 142.10 12.60 142.10 12.43C142.10 12.28 142.10 12.21 141.93 12.21L141.33 12.21C141.27 12.21 141.26 12.05 141.26 11.70C141.26 8.89 141.19 7.62 141.18 3.32C141.18 3.16 141.18 3.07 141.04 3.07C140.95 3.07 139.86 3.15 139.30 3.19C139.19 3.21 139.16 3.19 139.13 3.32C139.10 3.42 139.09 3.57 139.09 3.58ZM149.86 10.01C149.86 11.68 150.82 12.85 152.59 12.85C154.04 12.85 155.04 11.56 155.04 11.48C155.04 11.45 154.80 11.24 154.76 11.24C154.67 11.24 154.08 12.15 152.91 12.15C151.90 12.15 150.91 11.33 150.91 9.88C150.91 9.72 150.92 9.49 150.95 9.42C151.16 9.42 153.92 9.49 154.07 9.49C154.21 9.49 154.87 9.46 154.87 9.28C154.87 8.09 154.15 7.01 152.74 7.01C151.03 7.01 149.86 8.33 149.86 10.01ZM150.98 9.03C151.03 8.34 151.68 7.41 152.57 7.41C153.01 7.41 153.82 7.70 153.82 8.99C153.82 9.04 153.65 9.03 153.30 9.04C152.60 9.07 151.17 9.10 151.10 9.10C150.99 9.10 150.98 9.09 150.98 9.03ZM172.65 12.46C172.65 12.63 172.66 12.70 172.84 12.70C173.00 12.70 174.23 12.64 174.62 12.64C175.48 12.64 176.36 12.70 177.21 12.70C179.83 12.70 182.22 11.07 182.22 7.91C182.22 4.89 179.89 3.07 176.85 3.07C176.29 3.07 175.03 3.23 173.99 3.23C173.52 3.23 173.05 3.22 173.00 3.22C172.82 3.22 172.80 3.32 172.80 3.49C172.80 3.68 172.87 3.70 173.00 3.70L173.96 3.67C173.99 3.67 173.99 4.20 173.99 4.72C173.99 5.91 173.91 12.21 173.82 12.21L172.93 12.21C172.75 12.21 172.65 12.22 172.65 12.46ZM175.22 11.40C175.22 9.46 175.22 7.52 175.24 5.60C175.24 5.03 175.28 3.61 175.32 3.60C175.62 3.53 176.20 3.51 176.55 3.51C179.12 3.51 180.73 5.75 180.73 7.73C180.73 8.95 180.68 12.25 176.01 12.25C175.74 12.25 175.34 12.25 175.24 12.21C175.22 12.19 175.22 11.79 175.22 11.40ZM190.06 10.01C190.06 11.68 191.03 12.85 192.79 12.85C194.25 12.85 195.24 11.56 195.24 11.48C195.24 11.45 195.01 11.24 194.96 11.24C194.88 11.24 194.29 12.15 193.12 12.15C192.11 12.15 191.11 11.33 191.11 9.88C191.11 9.72 191.13 9.49 191.16 9.42C191.37 9.42 194.12 9.49 194.28 9.49C194.42 9.49 195.08 9.46 195.08 9.28C195.08 8.09 194.36 7.01 192.95 7.01C191.24 7.01 190.06 8.33 190.06 10.01ZM191.18 9.03C191.24 8.34 191.88 7.41 192.78 7.41C193.21 7.41 194.03 7.70 194.03 8.99C194.03 9.04 193.86 9.03 193.51 9.04C192.81 9.07 191.38 9.10 191.31 9.10C191.20 9.10 191.18 9.09 191.18 9.03ZM202.64 7.45C202.64 7.59 202.65 7.67 202.82 7.67L203.07 7.67C203.20 7.67 203.18 7.69 203.25 7.85C203.81 9.31 204.62 11.56 204.78 12.04C204.86 12.31 205.00 12.99 205.24 12.99C205.30 12.99 205.37 12.95 205.42 12.88C205.79 12.33 205.90 12.36 206.12 11.89C206.75 10.57 207.58 8.37 207.89 7.81C207.96 7.70 207.96 7.67 208.04 7.67L208.31 7.67C208.45 7.67 208.47 7.59 208.47 7.45C208.47 7.29 208.46 7.21 208.32 7.21C208.11 7.21 207.87 7.24 207.56 7.24C207.28 7.24 206.84 7.21 206.72 7.21C206.53 7.21 206.53 7.31 206.53 7.45C206.53 7.59 206.53 7.67 206.71 7.67L207.12 7.67C207.17 7.67 207.21 7.71 207.21 7.85C207.21 8.29 206.23 10.64 205.90 11.44C205.86 11.55 205.83 11.59 205.80 11.59C205.77 11.59 205.74 11.52 205.69 11.41C205.28 10.50 204.40 7.88 204.37 7.74C204.37 7.70 204.43 7.67 204.58 7.67L205.07 7.67C205.20 7.67 205.21 7.59 205.21 7.45C205.21 7.29 205.21 7.21 205.06 7.21C204.81 7.21 204.15 7.24 203.80 7.24C203.39 7.24 203.08 7.21 202.82 7.21C202.65 7.21 202.64 7.32 202.64 7.45ZM215.75 10.01C215.75 11.68 216.72 12.85 218.48 12.85C219.94 12.85 220.93 11.56 220.93 11.48C220.93 11.45 220.70 11.24 220.65 11.24C220.57 11.24 219.98 12.15 218.81 12.15C217.80 12.15 216.80 11.33 216.80 9.88C216.80 9.72 216.82 9.49 216.85 9.42C217.06 9.42 219.81 9.49 219.97 9.49C220.11 9.49 220.77 9.46 220.77 9.28C220.77 8.09 220.05 7.01 218.64 7.01C216.93 7.01 215.75 8.33 215.75 10.01ZM216.87 9.03C216.93 8.34 217.57 7.41 218.47 7.41C218.90 7.41 219.72 7.70 219.72 8.99C219.72 9.04 219.55 9.03 219.20 9.04C218.50 9.07 217.07 9.10 217.00 9.10C216.89 9.10 216.87 9.09 216.87 9.03ZM228.45 3.58C228.45 3.65 228.47 3.65 228.52 3.65C228.58 3.65 229.17 3.60 229.25 3.60C229.32 3.60 229.38 3.57 229.40 3.82C229.52 5.07 229.56 10.37 229.56 11.06C229.56 11.44 229.56 12.21 229.49 12.21L228.77 12.21C228.62 12.21 228.61 12.29 228.61 12.43C228.61 12.59 228.62 12.67 228.79 12.67C229.21 12.67 229.78 12.64 230.13 12.64C230.54 12.64 231.03 12.67 231.29 12.67C231.46 12.67 231.46 12.60 231.46 12.43C231.46 12.28 231.46 12.21 231.29 12.21L230.69 12.21C230.64 12.21 230.62 12.05 230.62 11.70C230.62 8.89 230.55 7.62 230.54 3.32C230.54 3.16 230.54 3.07 230.40 3.07C230.31 3.07 229.22 3.15 228.66 3.19C228.55 3.21 228.52 3.19 228.49 3.32C228.47 3.42 228.45 3.57 228.45 3.58ZM239.20 10.04C239.20 11.58 240.37 12.85 241.89 12.85C243.66 12.85 244.69 11.58 244.69 9.84C244.69 8.29 243.67 7.01 242.12 7.01C240.37 7.01 239.20 8.37 239.20 10.04ZM240.28 10.23C240.28 8.69 240.67 7.46 241.95 7.46C243.08 7.46 243.60 8.74 243.60 9.74C243.60 10.92 243.36 12.40 241.89 12.40C240.84 12.40 240.28 11.27 240.28 10.23ZM252.29 7.73C252.29 7.78 252.32 7.78 252.42 7.78C252.48 7.78 253.08 7.76 253.23 7.76C253.37 7.76 253.40 7.73 253.41 7.91C253.46 8.48 253.51 8.92 253.51 11.93L253.51 13.92C253.51 14.83 253.51 16.11 253.47 16.11L252.71 16.11C252.55 16.11 252.53 16.20 252.53 16.34C252.53 16.49 252.55 16.58 252.71 16.58C253.13 16.58 253.76 16.55 254.11 16.55C254.52 16.55 255.36 16.58 255.63 16.58C255.81 16.58 255.82 16.46 255.82 16.34C255.82 16.20 255.82 16.11 255.63 16.11L254.65 16.11C254.60 16.11 254.59 15.68 254.58 15.22L254.53 12.71C254.53 12.57 254.53 12.53 254.56 12.53C254.60 12.53 255.15 12.77 255.75 12.77C257.61 12.77 258.72 11.31 258.72 9.88C258.72 8.39 257.92 7.20 256.28 7.20C255.68 7.20 255.08 7.49 254.74 7.73C254.65 7.80 254.52 7.92 254.52 7.76L254.52 7.48C254.52 7.27 254.45 7.24 254.32 7.24C254.27 7.24 253.36 7.29 252.42 7.32C252.36 7.32 252.29 7.71 252.29 7.73ZM254.53 11.91L254.53 8.32C254.53 8.30 254.55 8.16 254.97 7.95C255.18 7.85 255.46 7.77 255.85 7.77C256.86 7.77 257.63 8.62 257.63 9.98C257.63 11.09 256.98 12.42 255.71 12.42C255.28 12.42 254.53 12.15 254.53 11.91ZM266.46 7.70C266.46 7.77 266.49 7.78 266.53 7.78C266.59 7.78 267.09 7.76 267.32 7.74C267.40 7.74 267.39 7.74 267.40 7.84C267.41 8.02 267.43 8.40 267.43 8.79L267.43 10.32C267.43 10.95 267.43 11.52 267.40 11.80C267.37 12.08 267.33 12.21 267.26 12.21L266.67 12.21C266.53 12.21 266.52 12.31 266.52 12.45C266.52 12.63 266.56 12.67 266.69 12.67C266.91 12.67 267.55 12.64 267.90 12.64C268.25 12.64 268.74 12.67 269.01 12.67C269.19 12.67 269.21 12.57 269.21 12.43C269.21 12.29 269.19 12.21 269.01 12.21L268.67 12.21C268.46 12.21 268.45 12.21 268.45 11.80L268.45 8.46C268.45 8.39 268.45 8.34 268.59 8.23C268.80 8.06 269.28 7.83 269.96 7.83C270.89 7.83 270.93 8.61 270.93 9.58C270.93 9.67 270.94 10.28 270.94 10.89C270.94 11.48 270.94 12.21 270.84 12.21L270.31 12.21C270.14 12.21 270.13 12.29 270.13 12.43C270.13 12.60 270.16 12.67 270.35 12.67C270.77 12.67 271.05 12.64 271.40 12.64C271.81 12.64 272.22 12.67 272.48 12.67C272.62 12.67 272.66 12.57 272.66 12.43C272.66 12.29 272.66 12.21 272.48 12.21L271.98 12.21C271.95 12.21 271.95 11.55 271.95 10.86L271.95 9.30C271.95 8.46 271.87 8.32 271.87 8.22C271.87 8.19 272.52 7.83 273.18 7.83C274.16 7.83 274.39 8.64 274.39 9.58C274.39 10.08 274.39 12.21 274.27 12.21L273.70 12.21C273.55 12.21 273.49 12.28 273.49 12.43C273.49 12.59 273.50 12.67 273.67 12.67C274.09 12.67 274.55 12.64 274.90 12.64C275.31 12.64 275.74 12.67 276.01 12.67C276.19 12.67 276.21 12.57 276.21 12.43C276.21 12.29 276.19 12.21 276.01 12.21L275.45 12.21C275.44 12.21 275.42 11.97 275.42 11.62C275.42 11.48 275.45 9.77 275.45 9.24C275.45 8.02 275.06 7.15 273.67 7.15C272.75 7.15 271.80 7.84 271.75 7.84C271.71 7.84 271.57 7.13 270.51 7.13C269.70 7.13 268.93 7.62 268.51 7.91C268.44 7.97 268.44 7.97 268.44 7.84L268.44 7.42C268.44 7.27 268.44 7.22 268.27 7.22C268.20 7.22 267.34 7.27 266.77 7.29C266.57 7.31 266.57 7.29 266.53 7.43C266.50 7.53 266.46 7.66 266.46 7.70ZM283.91 10.01C283.91 11.68 284.87 12.85 286.64 12.85C288.09 12.85 289.09 11.56 289.09 11.48C289.09 11.45 288.85 11.24 288.81 11.24C288.72 11.24 288.13 12.15 286.96 12.15C285.95 12.15 284.96 11.33 284.96 9.88C284.96 9.72 284.97 9.49 285.00 9.42C285.21 9.42 287.97 9.49 288.12 9.49C288.26 9.49 288.92 9.46 288.92 9.28C288.92 8.09 288.20 7.01 286.79 7.01C285.08 7.01 283.91 8.33 283.91 10.01ZM285.03 9.03C285.08 8.34 285.73 7.41 286.62 7.41C287.06 7.41 287.87 7.70 287.87 8.99C287.87 9.04 287.70 9.03 287.35 9.04C286.65 9.07 285.22 9.10 285.15 9.10C285.04 9.10 285.03 9.09 285.03 9.03ZM296.73 7.73C296.73 7.77 296.74 7.80 296.80 7.80C296.86 7.80 297.54 7.74 297.58 7.74C297.67 7.74 297.72 7.70 297.74 7.90C297.77 8.33 297.77 8.81 297.77 9.28C297.77 9.73 297.74 12.21 297.65 12.21L297.02 12.21C296.86 12.21 296.84 12.29 296.84 12.43C296.84 12.59 296.84 12.67 297.02 12.67C297.44 12.67 297.95 12.64 298.30 12.64C298.70 12.64 299.21 12.67 299.47 12.67C299.66 12.67 299.66 12.56 299.66 12.43C299.66 12.29 299.66 12.21 299.46 12.21L298.93 12.21C298.80 12.21 298.79 12.21 298.79 11.98C298.79 10.84 298.80 9.67 298.80 8.53C298.80 8.41 298.82 8.36 299.03 8.25C299.31 8.11 299.71 7.85 300.26 7.85C301.31 7.85 301.56 8.62 301.56 9.63C301.56 11.03 301.53 12.21 301.48 12.21L300.87 12.21C300.72 12.21 300.65 12.26 300.65 12.45C300.65 12.61 300.65 12.67 300.86 12.67C301.28 12.67 301.73 12.64 302.08 12.64C302.48 12.64 302.86 12.67 303.13 12.67C303.32 12.67 303.34 12.56 303.34 12.43C303.34 12.25 303.28 12.21 303.10 12.21L302.68 12.21C302.57 12.21 302.57 12.21 302.57 12.08C302.57 11.87 302.64 10.47 302.64 9.70C302.64 8.33 302.39 7.18 300.73 7.18C299.87 7.18 299.35 7.63 298.93 7.90C298.83 7.95 298.77 8.05 298.77 7.90L298.77 7.42C298.77 7.28 298.80 7.21 298.59 7.22C298.19 7.25 297.23 7.31 297.04 7.32C296.84 7.34 296.86 7.35 296.81 7.46C296.79 7.53 296.73 7.67 296.73 7.73ZM311.08 7.78C311.08 7.87 311.11 7.92 311.19 7.92L311.54 7.92C311.67 7.92 311.70 8.19 311.70 8.74C311.70 9.14 311.67 10.77 311.67 11.77C311.67 12.21 311.91 12.77 312.72 12.77C313.21 12.77 314.16 12.36 314.45 12.15C314.52 12.10 314.52 12.08 314.52 12.01C314.52 11.93 314.51 11.80 314.45 11.80C314.31 11.80 313.85 12.03 313.31 12.03C312.70 12.03 312.68 11.63 312.68 11.20L312.68 8.51C312.68 8.15 312.68 7.91 312.73 7.91L314.06 7.91C314.19 7.91 314.23 7.85 314.29 7.66C314.30 7.59 314.33 7.49 314.33 7.43C314.33 7.36 314.30 7.35 314.23 7.35L312.79 7.35C312.68 7.35 312.68 7.35 312.68 7.25C312.68 7.03 312.76 5.95 312.76 5.91C312.76 5.81 312.72 5.74 312.61 5.74C312.54 5.74 312.48 5.78 312.42 5.87L311.15 7.64C311.11 7.69 311.08 7.73 311.08 7.78Z"></path></g></svg>